SplineFontDB: 3.0
FontName: TaameyFrankCLM-MediumOblique
FullName: Taamey Frank CLM MediumOblique
FamilyName: Taamey Frank CLM
Weight: Medium
Copyright: Copyright (c) 2009-2010 by Yoram Gnat (yoram.gnat@gmail.com)\nDistributed under the terms of GNU General Public License version 2(http://www.gnu.org/licenses/gpl.html). \n\nHebrew OpenType Layout logic copyright (c) 2003 & 2007, Ralph Hancock & John Hudson. This layout logic for Biblical Hebrew is open source software under the MIT License; for details  contact copyright holders at <license@tiro.com>.\n\nLatin glyphs and part of punctuation, taken from Century Schoolbook L font, copyright 1999 by (URW)++ Design & Development \n\nHebrew glyphs, vowels, cantillation marks and implementation of above layout logic copyright (c)2009-2010 by Yoram Gnat (yoramg@shenkar.ac.il). Distributed under the terms of GNU General Public Licence version 2 (http://www.gnu.org/licenses/gpl.html)\n\nAs a special exception, if you create a document which uses this font, and embed this font or unaltered portions of this font into the document, this font does not by itself cause the resulting document to be covered by the GNU General Public License. This exception does not however invalidate any other reasons why the document might be covered by the GNU General Public License. If you modify this font, you may extend this exception to your version of the font, but you are not obligated to do so. If you do not wish to do so, delete this exception statement from your version.
Version: 0.110
ItalicAngle: 13
UnderlinePosition: -170
UnderlineWidth: 70
Ascent: 1638
Descent: 410
LayerCount: 2
Layer: 0 0 "Back"  1
Layer: 1 0 "Fore"  0
XUID: [1021 594 1227166039 12934970]
FSType: 0
OS2Version: 0
OS2_WeightWidthSlopeOnly: 0
OS2_UseTypoMetrics: 0
CreationTime: 1244295734
ModificationTime: 1284286688
PfmFamily: 17
TTFWeight: 500
TTFWidth: 5
LineGap: 184
VLineGap: 0
Panose: 2 0 0 0 0 0 0 0 0 0
OS2TypoAscent: 1638
OS2TypoAOffset: 0
OS2TypoDescent: -410

StartChar: .notdef
Encoding: 248 -1 0
Width: 942
GlyphClass: 2
Flags: W
HStem: 0 98<87 776> 266 125<303.908 411.013> 1160 32<80.936 241.831> 1313 99<-193 496>
VStem: -31 125<928.265 964.812> -31 55<1014.63 1126.25> 297 123<328.281 382.833> 297 30<501 645.855> 384 87<794.4 1058.09>
LayerCount: 2
Fore
SplineSet
170 1160 m 0xf580
 78 1160 24 1125 24 1072 c 0xf580
 24 1066 24 1059 26 1053 c 0
 38 1007 84 1006 93 965 c 0
 94 961 94 957 94 953 c 0xf8
 94 929 76 915 48 915 c 0
 11 915 -15 957 -25 999 c 0
 -29 1016 -31 1032 -31 1047 c 0
 -31 1143 47 1192 168 1192 c 0
 316 1192 432 1109 464 970 c 0
 469 950 471 932 471 915 c 0
 471 851 441 809 409 769 c 1
 396 744 327 668 327 559 c 0
 327 541 329 521 334 501 c 1
 310 501 l 1
 301 540 297 572 297 602 c 0
 297 670 319 723 356 795 c 1
 371 828 384 875 384 925 c 0
 384 945 382 965 377 985 c 0
 354 1084 263 1160 170 1160 c 0xf580
418 328 m 0
 419 323 420 318 420 314 c 0xf2
 420 289 404 266 372 266 c 0
 340 266 306 292 297 328 c 0xf1
 296 334 297 340 297 345 c 0xf2
 297 372 314 391 343 391 c 256
 381 391 411 360 418 328 c 0
776 98 m 1
 496 1313 l 1
 -193 1313 l 1
 87 98 l 1
 776 98 l 1
556 1412 m 1
 882 0 l 1
 27 0 l 1
 -299 1412 l 1
 556 1412 l 1
EndSplineSet
Validated: 1
EndChar

StartChar: dotnosp
Encoding: 96 775 3
Width: 0
GlyphClass: 4
Flags: W
HStem: 1308 217<-387.078 -267.38>
VStem: -423 192<1344.12 1489.76>
AnchorPoint: "A-23" 0 0 mark 0
AnchorPoint: "A-0" 0 0 mark 0
LayerCount: 2
Fore
SplineSet
-302 1308 m 256
 -353 1308 -404 1353 -419 1417 c 256
 -422 1428 -423 1438 -423 1448 c 0
 -423 1495 -394 1525 -352 1525 c 256
 -298 1525 -249 1477 -235 1417 c 0
 -232 1406 -231 1396 -231 1386 c 0
 -231 1339 -260 1308 -302 1308 c 256
EndSplineSet
Validated: 1
LCarets2: 1 0 
EndChar

StartChar: dieresisnosp
Encoding: 97 776 4
Width: 0
GlyphClass: 4
Flags: W
HStem: 1310 213<-598.704 -479.829 -173.772 -55.1538>
VStem: -634 189<1343.96 1488.92> -209 189<1343.96 1488.45>
AnchorPoint: "A-1" 0 0 mark 0
LayerCount: 2
Fore
SplineSet
-514 1310 m 256
 -569 1310 -617 1359 -630 1417 c 256
 -633 1428 -634 1438 -634 1448 c 0
 -634 1494 -606 1523 -564 1523 c 256
 -511 1523 -463 1476 -449 1417 c 256
 -447 1406 -445 1396 -445 1387 c 0
 -445 1341 -473 1310 -514 1310 c 256
-90 1310 m 256
 -144 1310 -192 1359 -205 1417 c 256
 -208 1428 -209 1438 -209 1448 c 0
 -209 1494 -181 1523 -140 1523 c 256
 -86 1523 -38 1476 -24 1417 c 256
 -22 1406 -20 1396 -20 1387 c 0
 -20 1341 -48 1310 -90 1310 c 256
EndSplineSet
Validated: 1
EndChar

StartChar: ringnosp
Encoding: 98 778 5
Width: 0
GlyphClass: 4
Flags: W
HStem: 1229 71<-381.22 -237.124> 1533 66<-416.464 -276.618>
VStem: -490 62<1354.85 1520.53> -226 63<1312.75 1476.84>
AnchorPoint: "A-2" -0.424805 0 mark 0
LayerCount: 2
Fore
SplineSet
-284 1229 m 0
 -383 1229 -462 1321 -484 1416 c 256
 -488 1434 -490 1452 -490 1468 c 0
 -490 1542 -449 1599 -370 1599 c 256
 -279 1599 -194 1521 -169 1416 c 0
 -165 1399 -163 1383 -163 1367 c 0
 -163 1291 -206 1229 -284 1229 c 0
-354 1533 m 256
 -406 1533 -428 1497 -428 1453 c 0
 -428 1441 -427 1428 -424 1416 c 0
 -411 1360 -369 1300 -301 1300 c 256
 -247 1300 -226 1338 -226 1381 c 0
 -226 1393 -227 1404 -230 1416 c 0
 -244 1477 -288 1533 -354 1533 c 256
EndSplineSet
Validated: 1
EndChar

StartChar: atnah
Encoding: 100 1425 7
Width: 0
GlyphClass: 4
Flags: W
HStem: -585 423
VStem: -48 76<-583.56 -376.206> 212 72<-585 -506.63>
AnchorPoint: "A-42" -190.825 0 mark 0
AnchorPoint: "A-54" -331.075 0 basemark 0
AnchorPoint: "A-53" -382.075 0 basemark 0
AnchorPoint: "A-52" -382.075 0 basemark 0
AnchorPoint: "A-51" -382.075 0 basemark 0
AnchorPoint: "A-52" 0.424805 0 mark 0
AnchorPoint: "A-50" -382.075 0 basemark 0
AnchorPoint: "A-49" -297.075 0 basemark 0
AnchorPoint: "A-44" 51.4248 0 mark 0
AnchorPoint: "A-40" 0.424805 0 mark 0
LayerCount: 2
Fore
SplineSet
-35 -511 m 1
 -44 -472 -48 -441 -48 -415 c 0
 -48 -312 10 -297 28 -292 c 1
 0 -162 l 1
 76 -163 l 1
 106 -293 l 1
 197 -312 242 -388 269 -503 c 1
 284 -585 l 1
 212 -585 l 1
 208 -570 209 -555 200 -517 c 0
 182 -439 152 -373 87 -373 c 0
 44 -373 28 -401 28 -443 c 0
 28 -463 31 -486 37 -511 c 0
 41 -526 46 -548 59 -585 c 1
 -13 -585 l 1
 -35 -511 l 1
EndSplineSet
Validated: 1
LCarets2: 1 0 
MultipleSubs2: "Add hairspace after last low mark subtable" atnah hairspace
MultipleSubs2: "Add thinspace before narrow letter subtable" atnah thinspace
MultipleSubs2: "Add hairspace before low marked Qof" atnah hairspace
EndChar

StartChar: segolta
Encoding: 101 1426 8
Width: 0
GlyphClass: 4
Flags: W
HStem: 1222 164<-473.09 -364.91 -237.09 -128.91> 1466 164<-411.253 -302.91>
VStem: -492 146<1239.27 1368.73> -430 146<1482.08 1612.73> -256 146<1239.27 1368.73>
AnchorPoint: "A-55" -127.5 0 mark 0
AnchorPoint: "A-36" 0 0 mark 0
AnchorPoint: "A-35" 0 0 mark 0
AnchorPoint: "A-57" -425 0 basemark 0
AnchorPoint: "A-56" 0 0 basemark 0
AnchorPoint: "A-57" 0 0 mark 0
AnchorPoint: "A-25" 0 0 mark 0
LayerCount: 2
Fore
SplineSet
-400 1222 m 256xe8
 -442 1222 -478 1258 -489 1304 c 256
 -491 1312 -492 1320 -492 1327 c 0
 -492 1363 -470 1386 -438 1386 c 256
 -396 1386 -360 1350 -349 1304 c 256
 -347 1296 -346 1288 -346 1281 c 0
 -346 1245 -368 1222 -400 1222 c 256xe8
-338 1466 m 256
 -380 1466 -417 1502 -427 1548 c 256
 -429 1557 -430 1565 -430 1572 c 0
 -430 1608 -408 1630 -376 1630 c 256
 -334 1630 -298 1594 -287 1548 c 256
 -285 1540 -284 1532 -284 1525 c 0xd8
 -284 1489 -306 1466 -338 1466 c 256
-164 1222 m 256
 -206 1222 -242 1258 -253 1304 c 256
 -255 1312 -256 1320 -256 1327 c 0
 -256 1363 -234 1386 -202 1386 c 256
 -160 1386 -124 1350 -113 1304 c 256
 -111 1296 -110 1288 -110 1281 c 0
 -110 1245 -132 1222 -164 1222 c 256
EndSplineSet
Validated: 1
LCarets2: 1 0 
EndChar

StartChar: shalshelet
Encoding: 102 1427 9
Width: 0
GlyphClass: 4
Flags: W
HStem: 1207 449
VStem: -474 287
AnchorPoint: "A-55" -0.424805 0 mark 0
AnchorPoint: "A-57" -425.425 0 basemark 0
AnchorPoint: "A-56" -0.424805 0 basemark 0
AnchorPoint: "A-57" -0.424805 0 mark 0
AnchorPoint: "A-23" -0.424805 0 mark 0
LayerCount: 2
Fore
SplineSet
-231 1475 m 1
 -345 1388 l 1
 -187 1301 l 1
 -304 1207 l 1
 -389 1207 l 1
 -271 1301 l 1
 -431 1388 l 1
 -316 1475 l 1
 -474 1562 l 1
 -357 1656 l 1
 -273 1656 l 1
 -389 1562 l 1
 -231 1475 l 1
EndSplineSet
Validated: 1
LCarets2: 1 0 
EndChar

StartChar: zaqefqatan
Encoding: 103 1428 10
Width: 0
GlyphClass: 4
Flags: W
HStem: 1222 164<-355.09 -246.91> 1476 164<-414.09 -305.747>
VStem: -433 146<1493.27 1623.92> -374 146<1239.27 1368.73>
AnchorPoint: "A-55" 0 0 mark 0
AnchorPoint: "A-57" -425 0 basemark 0
AnchorPoint: "A-56" 0 0 basemark 0
AnchorPoint: "A-57" 0 0 mark 0
AnchorPoint: "A-23" 0 0 mark 0
LayerCount: 2
Fore
SplineSet
-282 1222 m 256xd0
 -324 1222 -360 1258 -371 1304 c 256
 -373 1312 -374 1320 -374 1327 c 0
 -374 1363 -352 1386 -320 1386 c 256
 -278 1386 -242 1350 -231 1304 c 256
 -229 1296 -228 1288 -228 1281 c 0
 -228 1245 -250 1222 -282 1222 c 256xd0
-341 1476 m 256
 -383 1476 -419 1512 -430 1558 c 256
 -432 1566 -433 1574 -433 1581 c 0
 -433 1617 -411 1640 -379 1640 c 256
 -337 1640 -300 1604 -290 1558 c 256
 -288 1549 -287 1541 -287 1534 c 0xe0
 -287 1498 -309 1476 -341 1476 c 256
EndSplineSet
Validated: 1
LCarets2: 1 0 
EndChar

StartChar: zaqefgadol
Encoding: 104 1429 11
Width: 0
GlyphClass: 4
Flags: W
HStem: 1222 164<-285.075 -177.231> 1237 21G<-429.623 -353> 1476 164<-343.253 -236.124>
VStem: -362 145<1492.08 1623.55> -304 145<1239.27 1369.92>
AnchorPoint: "A-55" -76.9248 0 mark 0
AnchorPoint: "A-57" -442.425 0 basemark 0
AnchorPoint: "A-56" -17.4248 0 basemark 0
AnchorPoint: "A-57" -17.4248 0 mark 0
AnchorPoint: "A-23" -17.4248 0 mark 0
LayerCount: 2
Fore
SplineSet
-212 1222 m 256xa8
 -254 1222 -290 1258 -301 1304 c 256
 -303 1312 -304 1320 -304 1327 c 0
 -304 1363 -282 1386 -249 1386 c 256
 -208 1386 -172 1350 -162 1304 c 256
 -160 1295 -159 1287 -159 1279 c 0
 -159 1244 -180 1222 -212 1222 c 256xa8
-270 1476 m 256
 -312 1476 -349 1512 -359 1558 c 256
 -361 1567 -362 1575 -362 1582 c 0
 -362 1618 -340 1640 -308 1640 c 256
 -267 1640 -231 1604 -220 1558 c 256
 -218 1549 -217 1541 -217 1534 c 0x30
 -217 1499 -238 1476 -270 1476 c 256
-353 1237 m 1x60
 -425 1237 l 1
 -517 1635 l 1
 -445 1635 l 1
 -353 1237 l 1x60
EndSplineSet
Validated: 1
LCarets2: 1 3 
EndChar

StartChar: tipeha
Encoding: 105 1430 12
Width: 0
GlyphClass: 4
Flags: W
HStem: -587 410
VStem: -36 259
AnchorPoint: "A-42" -234.175 0 mark 0
AnchorPoint: "A-54" -263.925 0 basemark 0
AnchorPoint: "A-53" -314.925 0 basemark 0
AnchorPoint: "A-52" -314.925 0 basemark 0
AnchorPoint: "A-51" -314.925 0 basemark 0
AnchorPoint: "A-51" -42.9248 0 mark 0
AnchorPoint: "A-50" -331.925 0 basemark 0
AnchorPoint: "A-49" -255.425 0 basemark 0
AnchorPoint: "A-43" -42.9248 0 mark 0
AnchorPoint: "A-40" -42.9248 0 mark 0
LayerCount: 2
Fore
SplineSet
69 -353 m 1
 90 -442 134 -477 203 -500 c 1
 223 -587 l 1
 114 -562 26 -493 -7 -350 c 0
 -22 -282 -34 -194 -36 -177 c 1
 39 -177 l 1
 39 -177 63 -328 69 -353 c 1
EndSplineSet
Validated: 1
LCarets2: 1 8 
MultipleSubs2: "Add hairspace after last low mark subtable" tipeha hairspace
MultipleSubs2: "Add thinspace before narrow letter subtable" tipeha thinspace
MultipleSubs2: "Add hairspace before low marked Qof" tipeha hairspace
EndChar

StartChar: revia
Encoding: 106 1431 13
Width: 0
GlyphClass: 4
Flags: W
HStem: 1213 288
VStem: -417 208
AnchorPoint: "A-55" -0.424805 0 mark 0
AnchorPoint: "A-57" -425.425 0 basemark 0
AnchorPoint: "A-56" -0.424805 0 basemark 0
AnchorPoint: "A-57" -0.424805 0 mark 0
AnchorPoint: "A-23" -0.424805 0 mark 0
LayerCount: 2
Fore
SplineSet
-350 1501 m 1
 -209 1353 l 1
 -277 1213 l 1
 -417 1356 l 1
 -350 1501 l 1
EndSplineSet
Validated: 1
LCarets2: 1 0 
EndChar

StartChar: zarqa
Encoding: 107 1432 14
Width: 0
GlyphClass: 4
Flags: W
HStem: 1232 21G<-430 -396.706> 1249 80<-262.772 -166.485> 1447 78<-473.879 -376.565>
VStem: -549 74<1332.83 1446.53> -166 74<1331.66 1393.67>
AnchorPoint: "A-55" -127.5 0 mark 0
AnchorPoint: "A-57" -425 0 basemark 0
AnchorPoint: "A-56" 0 0 basemark 0
AnchorPoint: "A-57" 0 0 mark 0
AnchorPoint: "A-31" 0 0 mark 0
LayerCount: 2
Fore
SplineSet
-166 1394 m 0x78
 -173 1427 -201 1447 -224 1457 c 1
 -245 1546 l 1
 -193 1530 -116 1476 -97 1395 c 1
 -93 1380 -92 1366 -92 1352 c 0
 -92 1287 -132 1249 -183 1249 c 0x78
 -257 1249 -306 1314 -341 1362 c 2
 -363 1392 l 2
 -400 1441 -423 1447 -436 1447 c 0
 -460 1447 -475 1429 -475 1401 c 0
 -475 1395 -475 1388 -473 1381 c 0
 -467 1355 -447 1330 -412 1317 c 1
 -392 1232 l 1xb8
 -468 1256 -529 1315 -544 1380 c 1
 -547 1395 -549 1408 -549 1421 c 0
 -549 1485 -510 1525 -456 1525 c 0
 -393 1525 -348 1480 -298 1413 c 2
 -275 1382 l 1
 -248 1349 -228 1329 -205 1329 c 0
 -181 1329 -166 1347 -166 1374 c 0
 -166 1381 -164 1387 -166 1394 c 0x78
EndSplineSet
Validated: 1
LCarets2: 1 0 
EndChar

StartChar: pashta
Encoding: 108 1433 15
Width: 0
GlyphClass: 4
Flags: W
HStem: 1232 410
VStem: -467 259
AnchorPoint: "A-34" 325.975 0 mark 0
AnchorPoint: "A-29" 308.975 0 mark 0
LayerCount: 2
Fore
SplineSet
-313 1408 m 1
 -333 1497 -377 1532 -446 1555 c 1
 -467 1642 l 1
 -358 1617 -270 1548 -237 1405 c 0
 -221 1337 -210 1249 -208 1232 c 1
 -283 1232 l 1
 -283 1232 -307 1383 -313 1408 c 1
EndSplineSet
Validated: 1
LCarets2: 1 -58 
EndChar

StartChar: yetiv
Encoding: 109 1434 16
Width: 0
GlyphClass: 4
Flags: W
HStem: -587 416
VStem: -51 308
AnchorPoint: "A-69" -286.875 0 mark 0
AnchorPoint: "A-68" -388.875 0 mark 0
AnchorPoint: "A-67" -482.375 0 mark 0
AnchorPoint: "A-66" -337.875 0 mark 0
AnchorPoint: "A-65" -448.375 0 mark 0
AnchorPoint: "A-64" -558.875 0 mark 0
AnchorPoint: "A-47" -397.375 0 mark 0
AnchorPoint: "A-41" -414.375 0 mark 0
LayerCount: 2
Fore
SplineSet
257 -515 m 1
 224 -587 l 1
 -51 -379 l 1
 128 -171 l 1
 195 -243 l 1
 62 -376 l 1
 257 -515 l 1
EndSplineSet
Validated: 1
LCarets2: 1 73 
MultipleSubs2: "Add thinspace before narrow letter subtable" yetiv thinspace
EndChar

StartChar: tevir
Encoding: 110 1435 17
Width: 0
GlyphClass: 4
Flags: W
HStem: -411 154<-48.9186 55.0189>
VStem: -65 136<-397.711 -271.069> 154 76<-481.172 -251.184>
AnchorPoint: "A-42" -178.925 0 mark 0
AnchorPoint: "A-54" -285.175 0 basemark 0
AnchorPoint: "A-53" -361.675 0 basemark 0
AnchorPoint: "A-52" -336.175 0 basemark 0
AnchorPoint: "A-51" -336.175 0 basemark 0
AnchorPoint: "A-51" 12.3252 0 mark 0
AnchorPoint: "A-50" -387.175 0 basemark 0
AnchorPoint: "A-49" -268.175 0 basemark 0
AnchorPoint: "A-44" 63.3252 0 mark 0
AnchorPoint: "A-40" 12.3252 0 mark 0
LayerCount: 2
Fore
SplineSet
147 -353 m 1
 141 -328 94 -177 94 -177 c 1
 170 -177 l 1
 176 -194 205 -282 220 -350 c 0
 227 -378 230 -404 230 -426 c 0
 230 -519 179 -567 101 -587 c 1
 81 -500 l 1
 127 -482 154 -457 154 -405 c 0
 154 -390 152 -373 147 -353 c 1
20 -411 m 0
 -19 -411 -53 -376 -62 -334 c 0
 -64 -327 -65 -319 -65 -312 c 0
 -65 -281 -46 -257 -15 -257 c 0
 24 -257 59 -294 69 -334 c 0
 71 -341 71 -348 71 -354 c 0
 71 -388 50 -411 20 -411 c 0
EndSplineSet
Validated: 1
LCarets2: 1 -2 
MultipleSubs2: "Add hairspace after last low mark subtable" tevir hairspace
MultipleSubs2: "Add thinspace before narrow letter subtable" tevir thinspace
MultipleSubs2: "Add hairspace before low marked Qof" tevir hairspace
EndChar

StartChar: gereshaccent
Encoding: 111 1436 18
Width: 0
GlyphClass: 4
Flags: W
HStem: 1236 407<-376.922 -288.704>
VStem: -422 78<1302.1 1537.52>
AnchorPoint: "A-55" -42.0752 0 mark 0
AnchorPoint: "A-57" -467.075 0 basemark 0
AnchorPoint: "A-56" -42.0752 0 basemark 0
AnchorPoint: "A-57" -42.0752 0 mark 0
AnchorPoint: "A-23" -42.0752 0 mark 0
LayerCount: 2
Fore
SplineSet
-338 1409 m 1
 -332 1384 -287 1236 -287 1236 c 1
 -363 1236 l 1
 -369 1254 -396 1338 -412 1406 c 0
 -418 1434 -422 1459 -422 1482 c 0
 -422 1574 -370 1623 -292 1643 c 1
 -272 1556 l 1
 -317 1538 -344 1513 -344 1460 c 0
 -344 1445 -342 1428 -338 1409 c 1
EndSplineSet
Validated: 1
LCarets2: 1 7 
EndChar

StartChar: gereshmuqdam
Encoding: 112 1437 19
Width: 0
GlyphClass: 4
Flags: W
HStem: 1235 406<-377.09 -288>
VStem: -422 78<1297.16 1535.53>
AnchorPoint: "A-27" -325.125 0 mark 0
LayerCount: 2
Fore
SplineSet
-337 1407 m 1
 -332 1382 -288 1235 -288 1235 c 1
 -364 1235 l 1
 -370 1252 -396 1336 -412 1404 c 0
 -418 1432 -422 1457 -422 1480 c 0
 -422 1572 -370 1621 -291 1641 c 1
 -271 1554 l 1
 -317 1536 -344 1511 -344 1459 c 0
 -344 1444 -342 1427 -337 1407 c 1
EndSplineSet
Validated: 1
LCarets2: 1 57 
EndChar

StartChar: gershayimaccent
Encoding: 113 1438 20
Width: 0
GlyphClass: 4
Flags: W
HStem: 1237 405<-474.512 -387 -279.268 -191>
VStem: -519 77<1296.84 1535.16> -324 77<1301.38 1535.4>
AnchorPoint: "A-55" -129.2 0 mark 0
AnchorPoint: "A-57" -469.2 0 basemark 0
AnchorPoint: "A-56" -749.7 0 basemark 0
AnchorPoint: "A-57" -44.2002 0 mark 0
AnchorPoint: "A-23" -44.2002 0 mark 0
LayerCount: 2
Fore
SplineSet
-435 1407 m 1
 -429 1382 -387 1237 -387 1237 c 1
 -463 1237 l 1
 -469 1254 -493 1336 -509 1404 c 0
 -516 1432 -519 1458 -519 1480 c 0
 -519 1573 -468 1621 -389 1641 c 1
 -369 1554 l 1
 -415 1536 -442 1511 -442 1458 c 0
 -442 1444 -439 1427 -435 1407 c 1
-240 1408 m 1
 -234 1382 -191 1237 -191 1237 c 1
 -268 1237 l 1
 -271 1253 -298 1336 -314 1404 c 0
 -320 1432 -324 1457 -324 1480 c 0
 -324 1573 -272 1621 -194 1642 c 1
 -174 1554 l 1
 -220 1537 -247 1511 -247 1459 c 0
 -247 1444 -244 1427 -240 1408 c 1
EndSplineSet
Validated: 1
LCarets2: 1 8 
EndChar

StartChar: qarneypara
Encoding: 114 1439 21
Width: 0
GlyphClass: 4
Flags: W
HStem: 1311 68<-619.472 -478.932 -173.489 -30.9566> 1627 69<-662.15 -520.717 -215.636 -72.3551>
VStem: -741 64<1441.42 1613.16> -465 64<1394.28 1565.02> -293 64<1440.3 1612.64> -17 64<1392.71 1564.05>
AnchorPoint: "A-55" -323 0 mark 0
AnchorPoint: "A-57" -425 0 basemark 0
AnchorPoint: "A-56" 0 0 basemark 0
AnchorPoint: "A-57" 0 0 mark 0
AnchorPoint: "A-32" 0 0 mark 0
LayerCount: 2
Fore
SplineSet
41 1503 m 256
 45 1485 47 1467 47 1451 c 0
 47 1372 2 1311 -79 1311 c 0
 -115 1311 -149 1323 -181 1347 c 1
 -277 1199 l 1
 -441 1347 l 1
 -461 1323 -491 1311 -527 1311 c 0
 -625 1311 -711 1400 -735 1503 c 256
 -739 1521 -741 1539 -741 1555 c 0
 -741 1633 -698 1696 -616 1696 c 256
 -518 1696 -431 1608 -407 1503 c 0
 -403 1485 -401 1469 -401 1454 c 0
 -401 1431 -405 1412 -412 1395 c 1
 -299 1295 l 1
 -232 1395 l 1
 -247 1412 -275 1449 -287 1503 c 0
 -291 1522 -293 1540 -293 1557 c 0
 -293 1636 -249 1696 -168 1696 c 256
 -68 1696 18 1603 41 1503 c 256
-542 1379 m 0
 -490 1379 -465 1418 -465 1467 c 0
 -465 1478 -466 1491 -469 1503 c 256
 -484 1568 -536 1627 -600 1627 c 0
 -651 1627 -677 1588 -677 1539 c 0
 -677 1527 -676 1515 -673 1503 c 0
 -658 1438 -605 1379 -542 1379 c 0
-152 1627 m 0
 -204 1627 -229 1588 -229 1539 c 0
 -229 1528 -228 1515 -225 1503 c 256
 -210 1438 -158 1379 -94 1379 c 0
 -43 1379 -17 1418 -17 1467 c 0
 -17 1479 -18 1491 -21 1503 c 0
 -36 1568 -89 1627 -152 1627 c 0
EndSplineSet
Validated: 1
LCarets2: 1 0 
EndChar

StartChar: telishagedola
Encoding: 115 1440 22
Width: 0
GlyphClass: 4
Flags: W
HStem: 1311 68<-357.895 -246.148> 1627 69<-430.651 -289.632>
VStem: -509 64<1442.92 1612.39> -453 67<1208.66 1243.41> -232 64<1395.8 1562.35>
AnchorPoint: "A-55" -163.625 0 mark 0
AnchorPoint: "A-39" -44.625 0 mark 0
AnchorPoint: "A-57" -758.625 0 basemark 0
AnchorPoint: "A-56" -333.625 0 basemark 0
AnchorPoint: "A-56" -333.625 0 mark 0
AnchorPoint: "A-26" -163.625 0 mark 0
LayerCount: 2
Fore
SplineSet
-367 1627 m 0xe8
 -418 1627 -445 1589 -445 1540 c 0
 -445 1528 -443 1516 -440 1503 c 256
 -425 1438 -374 1379 -310 1379 c 0
 -259 1379 -232 1418 -232 1468 c 0
 -232 1479 -233 1491 -236 1503 c 0
 -252 1568 -304 1627 -367 1627 c 0xe8
-411 1358 m 1
 -447 1389 -487 1435 -502 1503 c 0
 -507 1522 -509 1540 -509 1558 c 0xe8
 -509 1637 -463 1696 -383 1696 c 256
 -283 1696 -198 1603 -174 1503 c 256
 -170 1485 -168 1468 -168 1451 c 0
 -168 1372 -213 1311 -294 1311 c 0
 -305 1311 -329 1316 -354 1324 c 1
 -386 1178 l 1
 -453 1217 l 1xd8
 -411 1358 l 1
EndSplineSet
Validated: 1
LCarets2: 1 59 
EndChar

StartChar: pazer
Encoding: 116 1441 23
Width: 0
GlyphClass: 4
Flags: W
HStem: 1237 21G<-416.623 -339> 1340 78<-364 -298.387>
VStem: -295 75<1421.32 1631.57>
AnchorPoint: "A-55" -87.125 0 mark 0
AnchorPoint: "A-57" -478.125 0 basemark 0
AnchorPoint: "A-56" -53.125 0 basemark 0
AnchorPoint: "A-57" -53.125 0 mark 0
AnchorPoint: "A-23" -53.125 0 mark 0
LayerCount: 2
Fore
SplineSet
-232 1551 m 0
 -224 1519 -220 1487 -220 1459 c 0
 -220 1390 -246 1340 -318 1340 c 0
 -332 1340 -346 1342 -364 1346 c 1
 -339 1237 l 1
 -412 1237 l 1
 -504 1635 l 1
 -431 1635 l 1
 -382 1422 l 1
 -371 1419 -361 1418 -350 1418 c 0
 -309 1418 -295 1444 -295 1483 c 0
 -295 1503 -298 1525 -304 1550 c 0
 -308 1565 -316 1597 -329 1633 c 1
 -256 1633 l 1
 -247 1608 -238 1580 -232 1551 c 0
EndSplineSet
Validated: 1
LCarets2: 1 9 
EndChar

StartChar: atnahhafukh
Encoding: 117 1442 24
Width: 0
GlyphClass: 4
Flags: W
HStem: -595 421
VStem: -108 72<-252.37 -174> 147 75<-381.996 -175.44>
AnchorPoint: "A-42" -191.675 0 mark 0
AnchorPoint: "A-54" -331.925 0 basemark 0
AnchorPoint: "A-53" -382.925 0 basemark 0
AnchorPoint: "A-52" -382.925 0 basemark 0
AnchorPoint: "A-51" -382.925 0 basemark 0
AnchorPoint: "A-52" -0.424805 0 mark 0
AnchorPoint: "A-50" -382.925 0 basemark 0
AnchorPoint: "A-49" -297.925 0 basemark 0
AnchorPoint: "A-44" 50.5752 0 mark 0
AnchorPoint: "A-40" -0.424805 0 mark 0
LayerCount: 2
Fore
SplineSet
210 -248 m 1
 219 -286 222 -317 222 -342 c 0
 222 -446 162 -460 144 -465 c 1
 174 -595 l 1
 101 -595 l 1
 71 -465 l 1
 -20 -446 -67 -371 -93 -256 c 1
 -108 -174 l 1
 -36 -174 l 1
 -33 -189 -33 -204 -25 -242 c 0
 -7 -320 24 -386 89 -386 c 0
 132 -386 147 -359 147 -317 c 0
 147 -297 144 -273 138 -248 c 0
 134 -233 129 -211 117 -174 c 1
 189 -174 l 1
 210 -248 l 1
EndSplineSet
Validated: 1
MultipleSubs2: "Add hairspace after last low mark subtable" atnahhafukh hairspace
MultipleSubs2: "Add thinspace before narrow letter subtable" atnahhafukh thinspace
MultipleSubs2: "Add hairspace before low marked Qof" atnahhafukh hairspace
EndChar

StartChar: munah
Encoding: 118 1443 25
Width: 0
GlyphClass: 4
Flags: W
HStem: -572 85<11 160>
VStem: -9 262
AnchorPoint: "A-42" -195.5 0 mark 0
AnchorPoint: "A-54" -284.75 0 basemark 0
AnchorPoint: "A-53" -335.75 0 basemark 0
AnchorPoint: "A-52" -335.75 0 basemark 0
AnchorPoint: "A-51" -335.75 0 basemark 0
AnchorPoint: "A-52" -4.25 0 mark 0
AnchorPoint: "A-50" -293.25 0 basemark 0
AnchorPoint: "A-49" -216.75 0 basemark 0
AnchorPoint: "A-45" 46.75 0 mark 0
AnchorPoint: "A-40" -4.25 0 mark 0
LayerCount: 2
Fore
SplineSet
253 -572 m 1
 11 -572 l 1
 -9 -487 l 1
 160 -487 l 1
 90 -183 l 1
 163 -183 l 1
 253 -572 l 1
EndSplineSet
Validated: 1
LCarets2: 1 1 
MultipleSubs2: "Add hairspace after last low mark subtable" munah hairspace
MultipleSubs2: "Add thinspace before narrow letter subtable" munah thinspace
MultipleSubs2: "Add hairspace before low marked Qof" munah hairspace
EndChar

StartChar: mahapakh
Encoding: 119 1444 26
Width: 0
GlyphClass: 4
Flags: W
HStem: -587 416
VStem: -51 308
AnchorPoint: "A-42" -187.425 0 mark 0
AnchorPoint: "A-54" -285.175 0 basemark 0
AnchorPoint: "A-53" -336.175 0 basemark 0
AnchorPoint: "A-52" -336.175 0 basemark 0
AnchorPoint: "A-51" -336.175 0 basemark 0
AnchorPoint: "A-52" 3.8252 0 mark 0
AnchorPoint: "A-50" -353.175 0 basemark 0
AnchorPoint: "A-49" -293.675 0 basemark 0
AnchorPoint: "A-44" 54.8252 0 mark 0
AnchorPoint: "A-40" 3.8252 0 mark 0
LayerCount: 2
Fore
SplineSet
257 -515 m 1
 224 -587 l 1
 -51 -379 l 1
 128 -171 l 1
 195 -243 l 1
 62 -376 l 1
 257 -515 l 1
EndSplineSet
Validated: 1
LCarets2: 1 -1 
MultipleSubs2: "Add hairspace after last low mark subtable" mahapakh hairspace
MultipleSubs2: "Add thinspace before narrow letter subtable" mahapakh thinspace
MultipleSubs2: "Add hairspace before low marked Qof" mahapakh hairspace
EndChar

StartChar: merkha
Encoding: 120 1445 27
Width: 0
GlyphClass: 4
Flags: W
HStem: -584 410<-29.334 56.0775>
VStem: 100 77<-478.495 -245.347>
AnchorPoint: "A-42" -148.75 0 mark 0
AnchorPoint: "A-54" -280.5 0 basemark 0
AnchorPoint: "A-53" -331.5 0 basemark 0
AnchorPoint: "A-52" -331.5 0 basemark 0
AnchorPoint: "A-51" -331.5 0 basemark 0
AnchorPoint: "A-51" -25.5 0 mark 0
AnchorPoint: "A-50" -263.5 0 basemark 0
AnchorPoint: "A-49" -255 0 basemark 0
AnchorPoint: "A-43" 0 0 mark 0
AnchorPoint: "A-40" 42.5 0 mark 0
LayerCount: 2
Fore
SplineSet
93 -350 m 1
 87 -326 42 -174 42 -174 c 1
 116 -174 l 1
 122 -192 152 -280 167 -348 c 0
 173 -376 177 -401 177 -423 c 0
 177 -516 125 -565 48 -584 c 1
 28 -498 l 1
 72 -479 100 -455 100 -402 c 0
 100 -387 98 -370 93 -350 c 1
EndSplineSet
Validated: 1
LCarets2: 1 -7 
MultipleSubs2: "Add hairspace after last low mark subtable" merkha hairspace
MultipleSubs2: "Add thinspace before narrow letter subtable" merkha thinspace
MultipleSubs2: "Add hairspace before low marked Qof" merkha hairspace
EndChar

StartChar: merkhakefula
Encoding: 121 1446 28
Width: 0
GlyphClass: 4
Flags: W
HStem: -587 410<-52.334 33.0774 143.627 229.077>
VStem: 0 80<-484.524 -243.388> 199 77<-482.246 -249.347>
AnchorPoint: "A-42" -146.625 0 mark 0
AnchorPoint: "A-54" -363.375 0 basemark 0
AnchorPoint: "A-53" -414.375 0 basemark 0
AnchorPoint: "A-52" -414.375 0 basemark 0
AnchorPoint: "A-51" -414.375 0 basemark 0
AnchorPoint: "A-53" 44.625 0 mark 0
AnchorPoint: "A-50" -354.875 0 basemark 0
AnchorPoint: "A-49" -295.375 0 basemark 0
AnchorPoint: "A-45" 95.625 0 mark 0
AnchorPoint: "A-40" 44.625 0 mark 0
LayerCount: 2
Fore
SplineSet
-5 -353 m 1
 -11 -329 -56 -177 -56 -177 c 1
 19 -177 l 1
 26 -195 54 -283 70 -351 c 0
 76 -379 80 -403 80 -426 c 0
 80 -518 28 -568 -49 -587 c 1
 -69 -501 l 1
 -24 -482 0 -456 0 -404 c 0
 0 -388 -0 -374 -5 -353 c 1
192 -354 m 1
 187 -330 141 -178 141 -178 c 1
 216 -178 l 1
 222 -196 250 -284 266 -352 c 0
 272 -380 276 -405 276 -427 c 0
 276 -519 224 -568 147 -587 c 1
 127 -502 l 1
 172 -483 199 -459 199 -407 c 0
 199 -392 197 -374 192 -354 c 1
EndSplineSet
Validated: 1
LCarets2: 1 -8 
MultipleSubs2: "Add hairspace after last low mark subtable" merkhakefula hairspace
MultipleSubs2: "Add thinspace before narrow letter subtable" merkhakefula thinspace
MultipleSubs2: "Add hairspace before low marked Qof" merkhakefula hairspace
EndChar

StartChar: darga
Encoding: 122 1447 29
Width: 0
GlyphClass: 4
Flags: W
HStem: -593 81<40.6372 131.687> -244 82<42.0973 122.147>
VStem: -36 73<-328.836 -258.91> 137 73<-495.016 -437.328>
AnchorPoint: "A-42" -191.25 0 mark 0
AnchorPoint: "A-54" -272 0 basemark 0
AnchorPoint: "A-53" -323 0 basemark 0
AnchorPoint: "A-52" -323 0 basemark 0
AnchorPoint: "A-51" -323 0 basemark 0
AnchorPoint: "A-52" 0 0 mark 0
AnchorPoint: "A-50" -331.5 0 basemark 0
AnchorPoint: "A-49" -255 0 basemark 0
AnchorPoint: "A-43" 0 0 mark 0
AnchorPoint: "A-40" 0 0 mark 0
LayerCount: 2
Fore
SplineSet
115 -247 m 0
 74 -256 37 -265 37 -301 c 0
 37 -306 38 -311 39 -316 c 0
 41 -326 170 -345 193 -400 c 0
 197 -409 201 -419 204 -432 c 0
 208 -449 210 -465 210 -479 c 0
 210 -551 155 -575 44 -593 c 1
 25 -512 l 1
 93 -495 137 -498 137 -456 c 0
 137 -451 139 -444 137 -437 c 0
 134 -424 4 -409 -20 -353 c 0
 -24 -344 -27 -334 -30 -321 c 1
 -34 -303 -36 -286 -36 -272 c 0
 -36 -199 19 -178 119 -162 c 1
 137 -244 l 1
 131 -246 128 -245 122 -247 c 0
 119 -247 117 -247 115 -247 c 0
EndSplineSet
Validated: 1
LCarets2: 1 0 
MultipleSubs2: "Add hairspace after last low mark subtable" darga hairspace
MultipleSubs2: "Add thinspace before narrow letter subtable" darga thinspace
MultipleSubs2: "Add hairspace before low marked Qof" darga hairspace
EndChar

StartChar: qadma
Encoding: 123 1448 30
Width: 0
GlyphClass: 4
Flags: W
HStem: 1232 408
VStem: -466 259
AnchorPoint: "A-55" -15.7246 0 mark 0
AnchorPoint: "A-57" -381.225 0 basemark 0
AnchorPoint: "A-56" 43.7754 0 basemark 0
AnchorPoint: "A-57" 43.7754 0 mark 0
AnchorPoint: "A-23" 43.7754 0 mark 0
LayerCount: 2
Fore
SplineSet
-312 1406 m 1
 -333 1495 -377 1530 -446 1553 c 1
 -466 1640 l 1
 -357 1615 -269 1546 -236 1403 c 0
 -221 1335 -209 1249 -207 1232 c 1
 -283 1232 l 1
 -283 1232 -306 1381 -312 1406 c 1
EndSplineSet
Validated: 1
LCarets2: 1 -8 
EndChar

StartChar: telishaqetana
Encoding: 124 1449 31
Width: 0
GlyphClass: 4
Flags: W
HStem: 1311 68<-405.838 -262.903> 1627 69<-448.052 -305.008>
VStem: -526 64<1442.83 1610.78> -249 64<1393.92 1563.17>
AnchorPoint: "A-55" -99.875 0 mark 0
AnchorPoint: "A-36" 44.625 0 mark 0
AnchorPoint: "A-57" -91.375 0 basemark 0
AnchorPoint: "A-56" 333.625 0 basemark 0
AnchorPoint: "A-57" 333.625 0 mark 0
AnchorPoint: "A-30" 418.625 0 mark 0
LayerCount: 2
Fore
SplineSet
-327 1379 m 0
 -275 1379 -249 1418 -249 1467 c 0
 -249 1479 -250 1491 -253 1503 c 256
 -269 1568 -320 1627 -384 1627 c 0
 -435 1627 -462 1589 -462 1540 c 0
 -462 1528 -460 1516 -457 1503 c 0
 -442 1438 -390 1379 -327 1379 c 0
-400 1696 m 256
 -302 1696 -216 1608 -191 1503 c 0
 -187 1487 -185 1471 -185 1455 c 0
 -185 1420 -195 1386 -216 1358 c 1
 -108 1217 l 1
 -157 1178 l 1
 -257 1324 l 1
 -278 1316 -300 1311 -311 1311 c 0
 -409 1311 -496 1400 -519 1503 c 256
 -523 1521 -526 1539 -526 1556 c 0
 -526 1634 -482 1696 -400 1696 c 256
EndSplineSet
Validated: 1
LCarets2: 1 -59 
EndChar

StartChar: yerahbenyomo
Encoding: 125 1450 32
Width: 0
GlyphClass: 4
Flags: W
HStem: -596 421
VStem: -108 72<-253.37 -175> 147 76<-383.787 -176.44>
AnchorPoint: "A-42" -191.675 0 mark 0
AnchorPoint: "A-54" -331.925 0 basemark 0
AnchorPoint: "A-53" -382.925 0 basemark 0
AnchorPoint: "A-52" -382.925 0 basemark 0
AnchorPoint: "A-51" -382.925 0 basemark 0
AnchorPoint: "A-52" -0.424805 0 mark 0
AnchorPoint: "A-50" -399.925 0 basemark 0
AnchorPoint: "A-49" -340.425 0 basemark 0
AnchorPoint: "A-44" 50.5752 0 mark 0
AnchorPoint: "A-40" -0.424805 0 mark 0
LayerCount: 2
Fore
SplineSet
210 -249 m 1
 219 -288 223 -319 223 -345 c 0
 223 -448 166 -461 147 -466 c 1
 176 -596 l 1
 99 -596 l 1
 69 -465 l 1
 -22 -446 -67 -372 -93 -257 c 1
 -108 -175 l 1
 -36 -175 l 1
 -33 -190 -33 -205 -24 -243 c 0
 -6 -321 24 -387 89 -387 c 0
 132 -387 147 -360 147 -318 c 0
 147 -298 144 -274 138 -249 c 0
 135 -234 129 -212 117 -175 c 1
 189 -175 l 1
 210 -249 l 1
EndSplineSet
Validated: 1
LCarets2: 1 0 
MultipleSubs2: "Add hairspace after last low mark subtable" yerahbenyomo hairspace
MultipleSubs2: "Add thinspace before narrow letter subtable" yerahbenyomo thinspace
MultipleSubs2: "Add hairspace before low marked Qof" yerahbenyomo hairspace
EndChar

StartChar: ole
Encoding: 126 1451 33
Width: 0
GlyphClass: 4
Flags: W
HStem: 1223 416
VStem: -469 309
AnchorPoint: "A-55" -104.125 0 mark 0
AnchorPoint: "A-57" -469.625 0 basemark 0
AnchorPoint: "A-56" -44.625 0 basemark 0
AnchorPoint: "A-57" -44.625 0 mark 0
AnchorPoint: "A-23" -44.625 0 mark 0
LayerCount: 2
Fore
SplineSet
-160 1295 m 1
 -194 1223 l 1
 -469 1431 l 1
 -290 1639 l 1
 -223 1567 l 1
 -356 1434 l 1
 -160 1295 l 1
EndSplineSet
Validated: 1
LCarets2: 1 8 
EndChar

StartChar: iluy
Encoding: 127 1452 34
Width: 0
GlyphClass: 4
Flags: W
HStem: 1203 85<-403 -244>
VStem: -422 269
AnchorPoint: "A-55" -80.75 0 mark 0
AnchorPoint: "A-57" -429.25 0 basemark 0
AnchorPoint: "A-56" -4.25 0 basemark 0
AnchorPoint: "A-57" -4.25 0 mark 0
AnchorPoint: "A-23" -4.25 0 mark 0
LayerCount: 2
Fore
SplineSet
-153 1203 m 1
 -403 1203 l 1
 -422 1288 l 1
 -244 1288 l 1
 -315 1592 l 1
 -243 1592 l 1
 -153 1203 l 1
EndSplineSet
Validated: 1
LCarets2: 1 1 
EndChar

StartChar: dehi
Encoding: 128 1453 35
Width: 0
GlyphClass: 4
Flags: W
HStem: -590 87<124.687 204>
VStem: -35 259
AnchorPoint: "A-69" -303.875 0 mark 0
AnchorPoint: "A-68" -405.875 0 mark 0
AnchorPoint: "A-67" -490.875 0 mark 0
AnchorPoint: "A-66" -354.875 0 mark 0
AnchorPoint: "A-65" -465.375 0 mark 0
AnchorPoint: "A-64" -575.875 0 mark 0
AnchorPoint: "A-46" -405.875 0 mark 0
AnchorPoint: "A-41" -405.875 0 mark 0
LayerCount: 2
Fore
SplineSet
70 -356 m 1
 90 -445 134 -480 204 -503 c 1
 224 -590 l 1
 115 -565 27 -496 -6 -353 c 0
 -22 -285 -33 -197 -35 -180 c 1
 40 -180 l 1
 40 -180 64 -331 70 -356 c 1
EndSplineSet
Validated: 1
LCarets2: 1 72 
MultipleSubs2: "Add hairspace after last low mark subtable" dehi hairspace
MultipleSubs2: "Add thinspace before narrow letter subtable" dehi thinspace
EndChar

StartChar: tsinor
Encoding: 129 1454 36
Width: 0
GlyphClass: 4
Flags: W
HStem: 1247 80<-262.745 -165.985> 1445 78<-473.922 -376.581>
VStem: -548 73<1330.52 1442.51> -165 73<1329.66 1391.67>
AnchorPoint: "A-33" 407.15 0 mark 0
AnchorPoint: "A-28" 407.15 0 mark 0
LayerCount: 2
Fore
SplineSet
-165 1392 m 0
 -173 1425 -201 1445 -224 1455 c 1
 -244 1544 l 1
 -193 1528 -115 1474 -97 1393 c 1
 -93 1378 -92 1364 -92 1350 c 0
 -92 1285 -132 1247 -183 1247 c 0
 -257 1247 -306 1312 -341 1360 c 2
 -364 1390 l 2
 -399 1439 -423 1445 -436 1445 c 0
 -460 1445 -475 1427 -475 1400 c 0
 -475 1393 -474 1386 -472 1379 c 0
 -466 1353 -447 1328 -412 1315 c 1
 -392 1228 l 1
 -468 1252 -528 1313 -543 1378 c 1
 -546 1393 -548 1407 -548 1420 c 0
 -548 1483 -510 1523 -456 1523 c 0
 -393 1523 -347 1478 -298 1411 c 2
 -275 1380 l 1
 -248 1347 -227 1327 -204 1327 c 0
 -180 1327 -165 1345 -165 1373 c 0
 -165 1379 -164 1385 -165 1392 c 0
EndSplineSet
Validated: 1
LCarets2: 1 -72 
EndChar

StartChar: masoracircle
Encoding: 130 1455 37
Width: 0
GlyphClass: 4
Flags: W
HStem: 1306 53<-396.056 -247.823> 1643 53<-443.731 -307.017>
VStem: -523 50<1448.02 1611.46> -225 50<1381.72 1549.09>
AnchorPoint: "A-55" -76.5 0 mark 0
AnchorPoint: "A-57" -425 0 basemark 0
AnchorPoint: "A-56" 0 0 basemark 0
AnchorPoint: "A-57" 0 0 mark 0
AnchorPoint: "A-24" 0 0 mark 0
LayerCount: 2
Fore
SplineSet
-302 1306 m 0
 -409 1307 -501 1393 -517 1494 c 0
 -520 1511 -523 1528 -523 1544 c 0
 -523 1624 -472 1696 -392 1696 c 0
 -303 1696 -206 1612 -181 1501 c 0
 -177 1483 -175 1466 -175 1449 c 0
 -175 1384 -208 1306 -300 1306 c 0
 -302 1306 l 0
-379 1643 m 0
 -432 1643 -473 1604 -473 1543 c 0
 -473 1531 -472 1518 -469 1504 c 256
 -450 1422 -396 1359 -314 1359 c 0
 -267 1359 -225 1383 -225 1447 c 0
 -225 1451 -225 1455 -225 1460 c 0
 -226 1473 -228 1487 -231 1501 c 256
 -250 1586 -319 1643 -379 1643 c 0
EndSplineSet
Validated: 1
LCarets2: 1 0 
EndChar

StartChar: sheva
Encoding: 131 1456 38
Width: 0
GlyphClass: 4
Flags: W
HStem: -587 164<149.747 258.09> -333 164<90.9099 199.253>
VStem: 72 146<-315.731 -185.081> 131 146<-570.919 -440.269>
AnchorPoint: "A-17" 44.7686 0 mark 0
AnchorPoint: "A-14" 44.7686 0 mark 0
AnchorPoint: "A-11" -210.231 0 mark 0
AnchorPoint: "A-8" -61.4814 0 mark 0
AnchorPoint: "A-70" 87.2686 0 mark 0
AnchorPoint: "A-50" 87.2686 0 basemark 0
AnchorPoint: "A-49" -125.231 0 basemark 0
AnchorPoint: "A-49" 87.2686 0 mark 0
AnchorPoint: "A-48" -133.731 0 basemark 0
AnchorPoint: "A-47" -91.2314 0 basemark 0
AnchorPoint: "A-46" -65.7314 0 basemark 0
AnchorPoint: "A-45" -167.731 0 basemark 0
AnchorPoint: "A-44" -167.731 0 basemark 0
AnchorPoint: "A-43" -167.731 0 basemark 0
AnchorPoint: "A-4" 87.2686 0 mark 0
LayerCount: 2
Fore
SplineSet
223 -587 m 256xd0
 181 -587 144 -551 134 -505 c 256
 132 -497 131 -489 131 -482 c 0
 131 -446 153 -423 185 -423 c 256
 227 -423 263 -459 274 -505 c 256
 276 -513 277 -521 277 -528 c 0
 277 -564 255 -587 223 -587 c 256xd0
164 -333 m 256
 122 -333 86 -297 75 -251 c 256
 73 -243 72 -235 72 -228 c 0
 72 -192 94 -169 126 -169 c 256
 168 -169 205 -205 215 -251 c 256
 217 -260 218 -268 218 -275 c 0xe0
 218 -311 196 -333 164 -333 c 256
EndSplineSet
Validated: 1
LCarets2: 1 0 
MultipleSubs2: "Add hairspace after last low mark subtable" sheva hairspace
MultipleSubs2: "Add thinspace before narrow letter subtable" sheva thinspace
MultipleSubs2: "Add hairspace before low marked Qof" sheva hairspace
EndChar

StartChar: hatafsegol
Encoding: 132 1457 39
Width: 0
GlyphClass: 4
Flags: W
HStem: -587 164<5.12414 111.683 354.91 461.876> -333 164<-171.876 -64.7471 63.9098 171.557 295.91 403.557>
VStem: -191 145<-316.549 -185.081> -14 145<-570.163 -440.269> 45 145<-315.731 -185.081> 277 145<-315.731 -185.081> 336 145<-569.731 -439.081>
AnchorPoint: "A-19" 15.0234 0 mark 0
AnchorPoint: "A-16" 15.0234 0 mark 0
AnchorPoint: "A-13" -239.977 0 mark 0
AnchorPoint: "A-10" -91.2266 0 mark 0
AnchorPoint: "A-73" 57.5234 0 mark 0
AnchorPoint: "A-50" 57.5234 0 basemark 0
AnchorPoint: "A-49" -418.477 0 basemark 0
AnchorPoint: "A-48" -392.977 0 basemark 0
AnchorPoint: "A-47" 91.5234 0 basemark 0
AnchorPoint: "A-46" 125.523 0 basemark 0
AnchorPoint: "A-45" -409.977 0 basemark 0
AnchorPoint: "A-44" -409.977 0 basemark 0
AnchorPoint: "A-43" -409.977 0 basemark 0
AnchorPoint: "A-6" 57.5234 0 mark 0
LayerCount: 2
Fore
SplineSet
428 -587 m 256xe2
 386 -587 350 -551 339 -505 c 256
 337 -497 336 -489 336 -482 c 0
 336 -446 358 -423 390 -423 c 256
 431 -423 467 -459 478 -505 c 256
 480 -514 481 -522 481 -529 c 0
 481 -564 460 -587 428 -587 c 256xe2
369 -333 m 256
 327 -333 291 -297 280 -251 c 256
 278 -243 277 -235 277 -228 c 0
 277 -192 299 -169 331 -169 c 256
 372 -169 409 -205 419 -251 c 256
 421 -260 422 -268 422 -276 c 0xe4
 422 -311 401 -333 369 -333 c 256
99 -169 m 256
 140 -169 177 -205 187 -251 c 256
 189 -260 190 -268 190 -276 c 0
 190 -311 169 -333 137 -333 c 256
 95 -333 59 -297 48 -251 c 256
 46 -243 45 -235 45 -228 c 0xe8
 45 -192 67 -169 99 -169 c 256
39 -423 m 256
 81 -423 117 -459 128 -505 c 256
 130 -514 131 -522 131 -529 c 0
 131 -564 110 -587 77 -587 c 256
 36 -587 -0 -551 -11 -505 c 256
 -13 -496 -14 -488 -14 -481 c 0xf0
 -14 -446 7 -423 39 -423 c 256
-138 -169 m 256
 -96 -169 -59 -205 -49 -251 c 256
 -47 -260 -46 -268 -46 -275 c 0
 -46 -311 -68 -333 -100 -333 c 256
 -141 -333 -177 -297 -188 -251 c 256
 -190 -242 -191 -234 -191 -227 c 0
 -191 -192 -170 -169 -138 -169 c 256
EndSplineSet
Validated: 1
LCarets2: 1 0 
MultipleSubs2: "Add hairspace after last low mark subtable" hatafsegol hairspace
MultipleSubs2: "Add thinspace before narrow letter subtable" hatafsegol thinspace
MultipleSubs2: "Add hairspace before low marked Qof" hatafsegol hairspace
EndChar

StartChar: hatafpatah
Encoding: 133 1458 40
Width: 0
GlyphClass: 4
Flags: W
HStem: -587 164<321.124 428.253> -333 164<262.443 370.09> -288 94<-140 137>
VStem: 244 145<-316.919 -186.269> 302 145<-570.549 -439.081>
AnchorPoint: "A-19" 14.9014 0 mark 0
AnchorPoint: "A-16" 14.9014 0 mark 0
AnchorPoint: "A-13" -240.099 0 mark 0
AnchorPoint: "A-10" -91.3486 0 mark 0
AnchorPoint: "A-73" 57.4014 0 mark 0
AnchorPoint: "A-50" 57.4014 0 basemark 0
AnchorPoint: "A-49" -376.099 0 basemark 0
AnchorPoint: "A-48" -359.099 0 basemark 0
AnchorPoint: "A-47" 91.4014 0 basemark 0
AnchorPoint: "A-46" 108.401 0 basemark 0
AnchorPoint: "A-45" -393.099 0 basemark 0
AnchorPoint: "A-44" -384.599 0 basemark 0
AnchorPoint: "A-43" -393.099 0 basemark 0
AnchorPoint: "A-6" 57.4014 0 mark 0
LayerCount: 2
Fore
SplineSet
158 -288 m 1xa0
 -140 -288 l 1
 -161 -194 l 1
 137 -194 l 1
 158 -288 l 1xa0
393 -587 m 256
 352 -587 316 -551 305 -505 c 256
 303 -496 302 -488 302 -481 c 0
 302 -446 323 -423 355 -423 c 256
 397 -423 434 -459 444 -505 c 256
 446 -514 447 -522 447 -529 c 0x88
 447 -565 425 -587 393 -587 c 256
335 -333 m 256xd0
 294 -333 257 -297 247 -251 c 256
 245 -242 244 -234 244 -226 c 0
 244 -191 265 -169 297 -169 c 256
 339 -169 375 -205 386 -251 c 256
 388 -259 389 -267 389 -274 c 0
 389 -310 367 -333 335 -333 c 256xd0
EndSplineSet
Validated: 1
LCarets2: 1 1 
MultipleSubs2: "Add hairspace after last low mark subtable" hatafpatah hairspace
MultipleSubs2: "Add thinspace before narrow letter subtable" hatafpatah thinspace
MultipleSubs2: "Add hairspace before low marked Qof" hatafpatah hairspace
EndChar

StartChar: hatafqamats
Encoding: 134 1459 41
Width: 0
GlyphClass: 4
Flags: W
HStem: -587 164<321.124 428.09> -333 164<262.124 369.253> -288 94<-139 -2.80768 29 135>
VStem: -12 140<-564.125 -477.364> 4 33<-375.39 -288.57> 243 145<-316.549 -185.081> 302 145<-570.919 -440.269>
AnchorPoint: "A-19" 20.4268 0 mark 0
AnchorPoint: "A-16" 20.4268 0 mark 0
AnchorPoint: "A-13" -234.573 0 mark 0
AnchorPoint: "A-10" -85.8232 0 mark 0
AnchorPoint: "A-73" 62.9268 0 mark 0
AnchorPoint: "A-50" 62.9268 0 basemark 0
AnchorPoint: "A-49" -387.573 0 basemark 0
AnchorPoint: "A-48" -370.573 0 basemark 0
AnchorPoint: "A-47" 88.4268 0 basemark 0
AnchorPoint: "A-46" 96.9268 0 basemark 0
AnchorPoint: "A-45" -404.573 0 basemark 0
AnchorPoint: "A-44" -404.573 0 basemark 0
AnchorPoint: "A-43" -404.573 0 basemark 0
AnchorPoint: "A-6" 62.9268 0 mark 0
LayerCount: 2
Fore
SplineSet
-12 -288 m 1xb0
 -139 -288 l 1
 -161 -194 l 1
 135 -194 l 1
 157 -288 l 1
 29 -288 l 1
 37 -322 l 1
 37 -324 l 0xa8
 44 -356 56 -386 71 -410 c 9
 128 -500 l 17
 123 -530 117 -558 97 -584 c 1
 83 -588 69 -588 55 -584 c 1
 24 -562 5 -532 -12 -500 c 9xb0
 4 -410 l 17
 5 -407 4 -402 4 -397 c 0xa8
 4 -374 -2 -336 -4 -326 c 0
 -5 -324 -5 -322 -5 -322 c 9
 -5 -322 -9 -300 -12 -288 c 1xb0
393 -587 m 256
 352 -587 316 -551 305 -505 c 256
 303 -496 302 -488 302 -481 c 0
 302 -446 323 -423 355 -423 c 256
 397 -423 433 -459 444 -505 c 256
 446 -513 447 -521 447 -528 c 0x82
 447 -564 425 -587 393 -587 c 256
334 -333 m 256xc4
 293 -333 257 -297 246 -251 c 256
 244 -242 243 -234 243 -227 c 0
 243 -192 264 -169 296 -169 c 256
 338 -169 375 -205 385 -251 c 256
 387 -260 388 -268 388 -275 c 0
 388 -311 366 -333 334 -333 c 256xc4
EndSplineSet
Validated: 1
LCarets2: 1 0 
MultipleSubs2: "Add hairspace after last low mark subtable" hatafqamats hairspace
MultipleSubs2: "Add thinspace before narrow letter subtable" hatafqamats thinspace
MultipleSubs2: "Add hairspace before low marked Qof" hatafqamats hairspace
EndChar

StartChar: hiriq
Encoding: 135 1460 42
Width: 0
GlyphClass: 4
Flags: W
HStem: -333 164<61.9098 170.09>
VStem: 43 146<-315.731 -186.269>
AnchorPoint: "A-59" 288.298 0 mark 0
AnchorPoint: "A-17" 15.4482 0 mark 0
AnchorPoint: "A-14" 15.4482 0 mark 0
AnchorPoint: "A-11" -239.552 0 mark 0
AnchorPoint: "A-8" -90.8018 0 mark 0
AnchorPoint: "A-70" 57.9482 0 mark 0
AnchorPoint: "A-50" 57.9482 0 basemark 0
AnchorPoint: "A-49" -154.552 0 basemark 0
AnchorPoint: "A-49" 57.9482 0 mark 0
AnchorPoint: "A-48" -146.052 0 basemark 0
AnchorPoint: "A-47" -120.552 0 basemark 0
AnchorPoint: "A-46" -103.552 0 basemark 0
AnchorPoint: "A-45" -197.052 0 basemark 0
AnchorPoint: "A-44" -197.052 0 basemark 0
AnchorPoint: "A-43" -197.052 0 basemark 0
AnchorPoint: "A-4" 57.9482 0 mark 0
LayerCount: 2
Fore
SplineSet
135 -333 m 256
 93 -333 57 -297 46 -251 c 256
 44 -243 43 -235 43 -228 c 0
 43 -192 65 -169 97 -169 c 256
 139 -169 175 -205 186 -251 c 256
 188 -259 189 -267 189 -274 c 0
 189 -310 167 -333 135 -333 c 256
EndSplineSet
Validated: 1
LCarets2: 1 -40 
MultipleSubs2: "Add hairspace after last low mark subtable" hiriq hairspace
MultipleSubs2: "Add thinspace before narrow letter subtable" hiriq thinspace
MultipleSubs2: "Add hairspace before low marked Qof" hiriq hairspace
EndChar

StartChar: tsere
Encoding: 136 1461 43
Width: 0
GlyphClass: 4
Flags: W
HStem: -333 164<-46.0902 62.0902 169.91 278.09>
VStem: -65 146<-315.731 -186.269> 151 146<-315.731 -186.269>
AnchorPoint: "A-18" 15.4482 0 mark 0
AnchorPoint: "A-15" 15.4482 0 mark 0
AnchorPoint: "A-12" -239.552 0 mark 0
AnchorPoint: "A-9" -90.8018 0 mark 0
AnchorPoint: "A-71" 57.9482 0 mark 0
AnchorPoint: "A-50" 57.9482 0 basemark 0
AnchorPoint: "A-49" -290.552 0 basemark 0
AnchorPoint: "A-48" -273.552 0 basemark 0
AnchorPoint: "A-47" -27.0518 0 basemark 0
AnchorPoint: "A-46" -10.0518 0 basemark 0
AnchorPoint: "A-45" -307.552 0 basemark 0
AnchorPoint: "A-44" -282.052 0 basemark 0
AnchorPoint: "A-43" -307.552 0 basemark 0
AnchorPoint: "A-5" 57.9482 0 mark 0
LayerCount: 2
Fore
SplineSet
294 -251 m 256
 296 -259 297 -267 297 -274 c 0
 297 -310 275 -333 243 -333 c 256
 201 -333 165 -297 154 -251 c 256
 152 -243 151 -235 151 -228 c 0
 151 -192 173 -169 205 -169 c 256
 247 -169 283 -205 294 -251 c 256
78 -251 m 256
 80 -259 81 -267 81 -274 c 0
 81 -310 59 -333 27 -333 c 256
 -15 -333 -51 -297 -62 -251 c 256
 -64 -243 -65 -235 -65 -228 c 0
 -65 -192 -43 -169 -11 -169 c 256
 31 -169 67 -205 78 -251 c 256
EndSplineSet
Validated: 1
LCarets2: 1 0 
MultipleSubs2: "Add hairspace after last low mark subtable" tsere hairspace
MultipleSubs2: "Add thinspace before narrow letter subtable" tsere thinspace
MultipleSubs2: "Add hairspace before low marked Qof" tsere hairspace
EndChar

StartChar: segol
Encoding: 137 1462 44
Width: 0
GlyphClass: 4
Flags: W
HStem: -577 164<117.91 226.253> -333 164<-56.0902 52.0902 179.91 288.09>
VStem: -75 146<-315.731 -186.269> 99 146<-559.731 -429.081> 161 146<-315.731 -186.269>
AnchorPoint: "A-18" 15.4482 0 mark 0
AnchorPoint: "A-15" 15.4482 0 mark 0
AnchorPoint: "A-12" -239.552 0 mark 0
AnchorPoint: "A-9" -90.8018 0 mark 0
AnchorPoint: "A-71" 57.9482 0 mark 0
AnchorPoint: "A-50" 57.9482 0 basemark 0
AnchorPoint: "A-49" -290.552 0 basemark 0
AnchorPoint: "A-48" -273.552 0 basemark 0
AnchorPoint: "A-47" -27.0518 0 basemark 0
AnchorPoint: "A-46" 15.4482 0 basemark 0
AnchorPoint: "A-45" -307.552 0 basemark 0
AnchorPoint: "A-44" -282.052 0 basemark 0
AnchorPoint: "A-43" -307.552 0 basemark 0
AnchorPoint: "A-5" 57.9482 0 mark 0
LayerCount: 2
Fore
SplineSet
215 -169 m 256xe8
 257 -169 293 -205 304 -251 c 256
 306 -259 307 -267 307 -274 c 0
 307 -310 285 -333 253 -333 c 256
 211 -333 175 -297 164 -251 c 256
 162 -243 161 -235 161 -228 c 0
 161 -192 183 -169 215 -169 c 256xe8
153 -413 m 256
 195 -413 232 -449 242 -495 c 256
 244 -504 245 -512 245 -519 c 0
 245 -555 223 -577 191 -577 c 256
 149 -577 113 -541 102 -495 c 256
 100 -487 99 -479 99 -472 c 0xf0
 99 -436 121 -413 153 -413 c 256
-21 -169 m 256
 21 -169 57 -205 68 -251 c 256
 70 -259 71 -267 71 -274 c 0
 71 -310 49 -333 17 -333 c 256
 -25 -333 -61 -297 -72 -251 c 256
 -74 -243 -75 -235 -75 -228 c 0
 -75 -192 -53 -169 -21 -169 c 256
EndSplineSet
Validated: 1
LCarets2: 1 0 
MultipleSubs2: "Add hairspace after last low mark subtable" segol hairspace
MultipleSubs2: "Add thinspace before narrow letter subtable" segol thinspace
MultipleSubs2: "Add hairspace before low marked Qof" segol hairspace
EndChar

StartChar: patah
Encoding: 138 1463 45
Width: 0
GlyphClass: 4
Flags: W
HStem: -288 94<-27 250>
VStem: -49 321
AnchorPoint: "A-18" 13.5635 0 mark 0
AnchorPoint: "A-15" 13.5635 0 mark 0
AnchorPoint: "A-12" -241.436 0 mark 0
AnchorPoint: "A-9" -92.6855 0 mark 0
AnchorPoint: "A-71" 56.0645 0 mark 0
AnchorPoint: "A-50" 56.0645 0 basemark 0
AnchorPoint: "A-49" -266.936 0 basemark 0
AnchorPoint: "A-50" 56.0645 0 mark 0
AnchorPoint: "A-48" -232.936 0 basemark 0
AnchorPoint: "A-47" -37.4365 0 basemark 0
AnchorPoint: "A-46" -20.4365 0 basemark 0
AnchorPoint: "A-45" -283.936 0 basemark 0
AnchorPoint: "A-44" -258.436 0 basemark 0
AnchorPoint: "A-43" -283.936 0 basemark 0
AnchorPoint: "A-5" 56.0645 0 mark 0
LayerCount: 2
Fore
SplineSet
272 -288 m 1
 -27 -288 l 1
 -49 -194 l 1
 250 -194 l 1
 272 -288 l 1
EndSplineSet
Validated: 1
LCarets2: 1 0 
MultipleSubs2: "Add hairspace after last low mark subtable" patah hairspace
MultipleSubs2: "Add thinspace before narrow letter subtable" patah thinspace
MultipleSubs2: "Add hairspace before low marked Qof" patah hairspace
EndChar

StartChar: qamats
Encoding: 139 1464 46
Width: 0
GlyphClass: 4
Flags: W
HStem: -288 94<-26 108.997 143 249>
VStem: 102 139<-564.888 -477.364> 109 42<-385.842 -322.047 -322 -288>
AnchorPoint: "A-18" 12.7148 0 mark 0
AnchorPoint: "A-15" 12.7148 0 mark 0
AnchorPoint: "A-12" -242.286 0 mark 0
AnchorPoint: "A-9" -93.5361 0 mark 0
AnchorPoint: "A-71" 55.2139 0 mark 0
AnchorPoint: "A-50" 55.2139 0 basemark 0
AnchorPoint: "A-49" -267.786 0 basemark 0
AnchorPoint: "A-48" -233.786 0 basemark 0
AnchorPoint: "A-47" -38.2852 0 basemark 0
AnchorPoint: "A-46" -4.28516 0 basemark 0
AnchorPoint: "A-45" -284.786 0 basemark 0
AnchorPoint: "A-44" -250.786 0 basemark 0
AnchorPoint: "A-43" -284.786 0 basemark 0
AnchorPoint: "A-5" 55.2139 0 mark 0
LayerCount: 2
Fore
SplineSet
102 -288 m 1xc0
 -26 -288 l 1
 -48 -194 l 1
 249 -194 l 1
 271 -288 l 1
 143 -288 l 1
 150 -322 l 1
 151 -323 151 -324 151 -325 c 0xa0
 159 -357 170 -386 184 -410 c 9
 241 -500 l 17
 236 -530 230 -559 210 -585 c 1
 197 -588 183 -588 169 -584 c 1
 137 -562 119 -532 102 -500 c 9xc0
 116 -410 l 17
 117 -406 117 -401 117 -395 c 0
 117 -372 111 -336 109 -326 c 0
 109 -324 109 -323 109 -323 c 9xa0
 109 -323 105 -301 102 -288 c 1xc0
EndSplineSet
Validated: 1
LCarets2: 1 0 
MultipleSubs2: "Add hairspace after last low mark subtable" qamats hairspace
MultipleSubs2: "Add thinspace before narrow letter subtable" qamats thinspace
MultipleSubs2: "Add hairspace before low marked Qof" qamats hairspace
EndChar

StartChar: holam
Encoding: 140 1465 47
Width: 0
GlyphClass: 4
Flags: W
HStem: 1222 164<-473.09 -364.91>
VStem: -492 146<1239.27 1368.73>
AnchorPoint: "A-35" -458 0 basemark 0
AnchorPoint: "A-34" 341 0 basemark 0
AnchorPoint: "A-33" 35.5762 200 basemark 0
AnchorPoint: "A-22" -330.5 0 mark 0
AnchorPoint: "A-21" -330.5 0 mark 0
AnchorPoint: "A-20" -330.5 0 mark 0
LayerCount: 2
Fore
SplineSet
-400 1222 m 256
 -442 1222 -478 1258 -489 1304 c 256
 -491 1312 -492 1320 -492 1327 c 0
 -492 1363 -470 1386 -438 1386 c 256
 -396 1386 -360 1350 -349 1304 c 256
 -347 1296 -346 1288 -346 1281 c 0
 -346 1245 -368 1222 -400 1222 c 256
EndSplineSet
Validated: 1
LCarets2: 1 -18 
Position2: "Move Holam to Left subtable" dx=-162 dy=0 dh=0 dv=0
EndChar

StartChar: holamhaser
Encoding: 141 1466 48
Width: 0
GlyphClass: 4
Flags: W
HStem: 1222 164<-473.09 -364.91>
VStem: -492 146<1239.27 1368.73>
AnchorPoint: "A-35" -458 0 basemark 0
AnchorPoint: "A-34" 9.5 0 basemark 0
AnchorPoint: "A-33" 35.5762 200 basemark 0
LayerCount: 2
Fore
SplineSet
-400 1222 m 256
 -442 1222 -478 1258 -489 1304 c 256
 -491 1312 -492 1320 -492 1327 c 0
 -492 1363 -470 1386 -438 1386 c 256
 -396 1386 -360 1350 -349 1304 c 256
 -347 1296 -346 1288 -346 1281 c 0
 -346 1245 -368 1222 -400 1222 c 256
EndSplineSet
Validated: 1
EndChar

StartChar: qubuts
Encoding: 142 1467 49
Width: 0
GlyphClass: 4
Flags: W
HStem: -619 159<213.145 318.795> -468 159<71.9673 177.142> -319 159<-72.1083 32.1425>
VStem: -90 141<-303.12 -176> 55 141<-453.061 -325> 196 141<-603.12 -475.947>
AnchorPoint: "A-18" 44.7578 0 mark 0
AnchorPoint: "A-15" 44.7578 0 mark 0
AnchorPoint: "A-12" -210.242 0 mark 0
AnchorPoint: "A-9" -61.4922 0 mark 0
AnchorPoint: "A-72" 87.2578 0 mark 0
AnchorPoint: "A-50" 87.2578 0 basemark 0
AnchorPoint: "A-49" -286.742 0 basemark 0
AnchorPoint: "A-48" -269.742 0 basemark 0
AnchorPoint: "A-47" 27.7578 0 basemark 0
AnchorPoint: "A-46" 61.7578 0 basemark 0
AnchorPoint: "A-45" -295.242 0 basemark 0
AnchorPoint: "A-44" -295.242 0 basemark 0
AnchorPoint: "A-43" -295.242 0 basemark 0
AnchorPoint: "A-5" 87.2578 0 mark 0
LayerCount: 2
Fore
SplineSet
0 -319 m 256x3c
 -40 -319 -77 -283 -87 -240 c 256
 -89 -232 -90 -224 -90 -216 c 0
 -90 -184 -71 -160 -39 -160 c 256
 1 -160 37 -196 48 -240 c 256
 50 -247 51 -255 51 -261 c 0
 51 -296 31 -319 0 -319 c 256x3c
285 -619 m 256x9c
 245 -619 209 -583 199 -540 c 256
 197 -532 196 -525 196 -518 c 0
 196 -484 215 -460 248 -460 c 256
 288 -460 324 -496 334 -540 c 256
 336 -548 337 -556 337 -563 c 0
 337 -597 316 -619 285 -619 c 256x9c
143 -468 m 256x5c
 103 -468 68 -432 58 -389 c 256
 56 -381 55 -373 55 -365 c 0
 55 -333 74 -309 106 -309 c 256
 146 -309 182 -345 193 -389 c 256
 195 -396 196 -404 196 -410 c 0
 196 -445 174 -468 143 -468 c 256x5c
EndSplineSet
Validated: 1
LCarets2: 1 0 
MultipleSubs2: "Add hairspace after last low mark subtable" qubuts hairspace
MultipleSubs2: "Add thinspace before narrow letter subtable" qubuts thinspace
MultipleSubs2: "Add hairspace before low marked Qof" qubuts hairspace
EndChar

StartChar: dagesh
Encoding: 143 1468 50
Width: 0
GlyphClass: 4
Flags: W
HStem: 437 164<-174.09 -65.7471>
VStem: -193 146<454.269 584.919>
AnchorPoint: "A-3" 0 0 mark 0
LayerCount: 2
Fore
SplineSet
-101 437 m 256
 -143 437 -179 473 -190 519 c 256
 -192 527 -193 535 -193 542 c 0
 -193 578 -171 601 -139 601 c 256
 -97 601 -60 565 -50 519 c 256
 -48 511 -47 503 -47 496 c 0
 -47 460 -69 437 -101 437 c 256
EndSplineSet
Validated: 1
LCarets2: 1 0 
EndChar

StartChar: meteg
Encoding: 144 1469 51
Width: 0
GlyphClass: 4
Flags: W
HStem: -572 390
VStem: 93 163
AnchorPoint: "A-63" -66.3877 0 mark 0
AnchorPoint: "A-62" -185.388 0 mark 0
AnchorPoint: "A-61" -295.888 0 mark 0
AnchorPoint: "A-17" 44.1123 0 mark 0
AnchorPoint: "A-11" -232.138 0 mark 0
AnchorPoint: "A-8" -83.3877 0 mark 0
AnchorPoint: "A-73" -338.388 0 basemark 0
AnchorPoint: "A-72" -253.388 0 basemark 0
AnchorPoint: "A-71" -219.388 0 basemark 0
AnchorPoint: "A-70" -151.388 0 basemark 0
AnchorPoint: "A-54" -168.388 0 basemark 0
AnchorPoint: "A-53" -210.888 0 basemark 0
AnchorPoint: "A-52" -210.888 0 basemark 0
AnchorPoint: "A-51" -210.888 0 basemark 0
AnchorPoint: "A-54" 61.1123 0 mark 0
AnchorPoint: "A-50" -202.388 0 basemark 0
AnchorPoint: "A-49" -125.888 0 basemark 0
AnchorPoint: "A-48" -168.388 0 basemark 0
AnchorPoint: "A-47" -100.388 0 basemark 0
AnchorPoint: "A-46" -117.388 0 basemark 0
AnchorPoint: "A-45" -193.888 0 basemark 0
AnchorPoint: "A-44" -193.888 0 basemark 0
AnchorPoint: "A-43" -168.388 0 basemark 0
AnchorPoint: "A-48" 61.1123 0 mark 0
AnchorPoint: "A-4" 86.6123 0 mark 0
LayerCount: 2
Fore
SplineSet
256 -572 m 1
 183 -572 l 1
 93 -182 l 1
 166 -182 l 1
 256 -572 l 1
EndSplineSet
Validated: 1
LCarets2: 1 0 
MultipleSubs2: "Add hairspace after last low mark subtable" meteg hairspace
MultipleSubs2: "Add thinspace before narrow letter subtable" meteg thinspace
MultipleSubs2: "Add hairspace before low marked Qof" meteg hairspace
EndChar

StartChar: makaf
Encoding: 145 1470 52
Width: 631
GlyphClass: 2
Flags: W
HStem: 830 223<-115.797 320.817>
VStem: -114 433
AnchorPoint: "A-32" 320.02 0 basechar 0
AnchorPoint: "A-31" 320.02 0 basechar 0
AnchorPoint: "A-30" 405.02 0 basechar 0
AnchorPoint: "A-29" 405.02 0 basechar 0
AnchorPoint: "A-28" 473.02 0 basechar 0
AnchorPoint: "A-27" 48.0195 0 basechar 0
AnchorPoint: "A-26" 473.02 0 basechar 0
AnchorPoint: "A-25" 48.0195 0 basechar 0
AnchorPoint: "A-24" 320.02 0 basechar 0
AnchorPoint: "A-23" 320.02 0 basechar 0
LayerCount: 2
Fore
SplineSet
-114 830 m 2
 -117 830 -118 832 -119 837 c 0
 -120 842 -121 852 -121 866 c 0
 -121 883 -120 907 -119 942 c 1
 -114 1046 l 2
 -114 1051 -113 1053 -110 1053 c 2
 319 1053 l 2
 323 1053 324 1051 326 1046 c 2
 322 942 l 1
 319 831 324 830 315 830 c 2
 -114 830 l 2
EndSplineSet
Validated: 1
EndChar

StartChar: rafe
Encoding: 146 1471 53
Width: 0
GlyphClass: 4
Flags: W
HStem: 1224 94<-477 -110>
VStem: -498 409
AnchorPoint: "A-24" 0 0 mark 0
LayerCount: 2
Fore
SplineSet
-89 1224 m 1
 -477 1224 l 1
 -498 1318 l 1
 -110 1318 l 1
 -89 1224 l 1
EndSplineSet
Validated: 1
LCarets2: 1 0 
EndChar

StartChar: paseq
Encoding: 147 1472 54
Width: 589
GlyphClass: 2
Flags: W
VStem: -77 407
LayerCount: 2
Fore
SplineSet
330 -164 m 1
 245 -164 l 1
 -77 1229 l 1
 8 1229 l 1
 330 -164 l 1
EndSplineSet
Validated: 1
EndChar

StartChar: shindot
Encoding: 148 1473 55
Width: 0
GlyphClass: 4
Flags: W
HStem: 1222 164<-656.09 -547.91>
VStem: -675 146<1239.27 1368.73>
AnchorPoint: "A-60" -630.852 0 mark 0
LayerCount: 2
Fore
SplineSet
-583 1222 m 256
 -625 1222 -661 1258 -672 1304 c 256
 -674 1312 -675 1320 -675 1327 c 0
 -675 1363 -653 1386 -621 1386 c 256
 -579 1386 -543 1350 -532 1304 c 256
 -530 1296 -529 1288 -529 1281 c 0
 -529 1245 -551 1222 -583 1222 c 256
EndSplineSet
Validated: 1
EndChar

StartChar: sindot
Encoding: 149 1474 56
Width: 0
GlyphClass: 4
Flags: W
HStem: 1222 164<-656.09 -547.91>
VStem: -675 146<1239.27 1368.73>
AnchorPoint: "A-60" 55.9482 0 mark 0
LayerCount: 2
Fore
SplineSet
-583 1222 m 256
 -625 1222 -661 1258 -672 1304 c 256
 -674 1312 -675 1320 -675 1327 c 0
 -675 1363 -653 1386 -621 1386 c 256
 -579 1386 -543 1350 -532 1304 c 256
 -530 1296 -529 1288 -529 1281 c 0
 -529 1245 -551 1222 -583 1222 c 256
EndSplineSet
Validated: 1
EndChar

StartChar: sofpasuq
Encoding: 150 1475 57
Width: 490
GlyphClass: 2
Flags: W
VStem: -101 408
LayerCount: 2
Fore
SplineSet
-28 973 m 1
 100 864 146 864 150 844 c 0
 151 840 152 835 151 832 c 2
 120 751 l 1
 93 668 l 1
 91 665 89 663 85 663 c 0
 55 663 -58 744 -101 783 c 0
 -107 789 -108 795 -105 802 c 0
 -87 859 -69 917 -46 970 c 0
 -44 975 -36 978 -28 973 c 1
130 292 m 1
 257 183 301 183 307 164 c 0
 310 158 309 154 308 151 c 2
 277 70 l 1
 250 -13 l 1
 249 -16 246 -18 242 -18 c 0
 212 -18 99 63 56 102 c 0
 50 108 50 114 52 121 c 0
 70 178 89 236 111 289 c 0
 113 294 121 297 130 292 c 1
EndSplineSet
Validated: 1
EndChar

StartChar: upperdot
Encoding: 151 1476 58
Width: 0
GlyphClass: 4
Flags: W
HStem: 1465 323
VStem: -883 267
AnchorPoint: "A-58" -378.08 0 mark 0
LayerCount: 2
Fore
SplineSet
-616 1622 m 1
 -712 1465 l 1
 -883 1626 l 1
 -791 1788 l 1
 -616 1622 l 1
EndSplineSet
Validated: 1
LCarets2: 1 0 
EndChar

StartChar: lowerdot
Encoding: 152 1477 59
Width: 0
GlyphClass: 4
Flags: W
HStem: -895 323
VStem: 206 267
AnchorPoint: "A-58" 166.769 0 mark 0
LayerCount: 2
Fore
SplineSet
473 -738 m 1
 378 -895 l 1
 206 -734 l 1
 299 -572 l 1
 473 -738 l 1
EndSplineSet
Validated: 1
LCarets2: 1 0 
EndChar

StartChar: nunhapukha
Encoding: 153 1478 60
Width: 637
GlyphClass: 2
Flags: W
HStem: 0 241<212 453> 819 232<-30.6087 12 98.7949 256>
VStem: -111 372<865.836 1050.74> 12 84<660.914 811.097>
AnchorPoint: "A-32" 372.725 0 basechar 0
AnchorPoint: "A-31" 372.725 0 basechar 0
AnchorPoint: "A-30" 517.225 0 basechar 0
AnchorPoint: "A-29" 517.225 0 basechar 0
AnchorPoint: "A-28" 517.225 0 basechar 0
AnchorPoint: "A-27" 219.725 0 basechar 0
AnchorPoint: "A-26" 483.225 0 basechar 0
AnchorPoint: "A-25" 49.7246 0 basechar 0
AnchorPoint: "A-24" 372.725 0 basechar 0
AnchorPoint: "A-23" 372.725 0 basechar 0
AnchorPoint: "A-2" 372.725 0 basechar 0
AnchorPoint: "A-1" 372.725 0 basechar 0
AnchorPoint: "A-0" 372.725 0 basechar 0
LayerCount: 2
Fore
SplineSet
90 556 m 0xd0
 71 635 35 683 20 751 c 0
 15 772 12 794 12 819 c 1xd0
 -53 828 -90 886 -104 948 c 0
 -109 970 -111 996 -111 1025 c 0
 -111 1056 -109 1092 -104 1132 c 9
 -61 1132 l 17
 -17 1063 38 1051 98 1051 c 0
 131 1051 165 1055 198 1055 c 0
 220 1055 241 1053 261 1048 c 9xe0
 256 814 l 17
 234 817 214 819 195 819 c 0
 121 819 96 793 96 755 c 0
 96 747 97 739 99 730 c 0
 123 627 173 512 197 407 c 0
 200 394 203 381 205 369 c 1
 212 241 l 1
 453 240 l 1
 574 0 l 1
 167 0 l 1
 154 28 140 69 127 127 c 0
 102 234 132 371 90 556 c 0xd0
EndSplineSet
Validated: 1
EndChar

StartChar: qamatsqatan
Encoding: 154 1479 61
Width: 0
GlyphClass: 4
Flags: W
HStem: -278 94<-30 104.995 142 244>
VStem: 95 47<-323.908 -278> 112 139<-615.812 -526.96>
AnchorPoint: "A-18" 10.8301 0 mark 0
AnchorPoint: "A-15" 10.8301 0 mark 0
AnchorPoint: "A-12" -244.17 0 mark 0
AnchorPoint: "A-9" -95.4199 0 mark 0
AnchorPoint: "A-50" 53.3301 0 basemark 0
AnchorPoint: "A-49" -269.67 0 basemark 0
AnchorPoint: "A-48" -235.67 0 basemark 0
AnchorPoint: "A-47" 53.3301 0 basemark 0
AnchorPoint: "A-46" 53.3301 0 basemark 0
AnchorPoint: "A-45" 53.3301 0 basemark 0
AnchorPoint: "A-44" 53.3301 0 basemark 0
AnchorPoint: "A-43" 53.3301 0 basemark 0
AnchorPoint: "A-5" 53.3301 0 mark 0
LayerCount: 2
Fore
SplineSet
95 -278 m 1xc0
 -30 -278 l 1
 -52 -184 l 1
 244 -184 l 1
 266 -278 l 1
 142 -278 l 1xc0
 151 -320 l 1
 152 -322 152 -322 152 -324 c 0
 160 -356 180 -436 195 -460 c 9
 251 -550 l 17
 247 -580 241 -610 221 -636 c 1
 208 -638 191 -638 177 -634 c 1
 146 -612 129 -582 112 -550 c 9xa0
 127 -460 l 17
 127 -459 127 -457 127 -455 c 0
 127 -428 107 -337 105 -326 c 0
 104 -324 105 -322 105 -322 c 9
 105 -322 98 -292 95 -278 c 1xc0
EndSplineSet
Validated: 1
MultipleSubs2: "Add hairspace after last low mark subtable" qamatsqatan hairspace
MultipleSubs2: "Add thinspace before narrow letter subtable" qamatsqatan thinspace
MultipleSubs2: "Add hairspace before low marked Qof" qamatsqatan hairspace
EndChar

StartChar: alef
Encoding: 155 1488 62
Width: 1048
GlyphClass: 2
Flags: W
HStem: 0 21G<182.714 399.5>
VStem: 67 118<390.042 555.599> 227 227<19.2718 178.257> 407 375<858 1058> 561 68<570.406 777.354> 726 56<744.638 802.669>
AnchorPoint: "A-69" 591.975 0 basechar 0
AnchorPoint: "A-68" 591.975 0 basechar 0
AnchorPoint: "A-67" 591.975 0 basechar 0
AnchorPoint: "A-66" 591.975 0 basechar 0
AnchorPoint: "A-65" 591.975 0 basechar 0
AnchorPoint: "A-64" 591.975 0 basechar 0
AnchorPoint: "A-63" 591.975 0 basechar 0
AnchorPoint: "A-62" 591.975 0 basechar 0
AnchorPoint: "A-61" 591.975 0 basechar 0
AnchorPoint: "A-59" 86.2246 0 basechar 0
AnchorPoint: "A-55" 885.225 0 basechar 0
AnchorPoint: "A-42" 613.225 0 basechar 0
AnchorPoint: "A-39" 591.975 0 basechar 0
AnchorPoint: "A-36" 591.975 0 basechar 0
AnchorPoint: "A-21" -279.275 0 basechar 0
AnchorPoint: "A-16" 591.975 0 basechar 0
AnchorPoint: "A-15" 591.975 0 basechar 0
AnchorPoint: "A-14" 591.975 0 basechar 0
AnchorPoint: "A-13" 591.975 0 basechar 0
AnchorPoint: "A-12" 591.975 0 basechar 0
AnchorPoint: "A-11" 591.975 0 basechar 0
AnchorPoint: "A-10" 591.975 0 basechar 0
AnchorPoint: "A-9" 591.975 0 basechar 0
AnchorPoint: "A-8" 591.975 0 basechar 0
AnchorPoint: "A-58" 591.975 0 basechar 0
AnchorPoint: "A-41" 591.975 0 basechar 0
AnchorPoint: "A-40" 591.975 0 basechar 0
AnchorPoint: "A-32" 591.975 0 basechar 0
AnchorPoint: "A-31" 591.975 0 basechar 0
AnchorPoint: "A-30" 591.975 0 basechar 0
AnchorPoint: "A-29" 591.975 0 basechar 0
AnchorPoint: "A-28" 498.475 0 basechar 0
AnchorPoint: "A-27" 591.975 0 basechar 0
AnchorPoint: "A-26" 885.225 0 basechar 0
AnchorPoint: "A-25" 213.725 0 basechar 0
AnchorPoint: "A-24" 591.975 0 basechar 0
AnchorPoint: "A-23" 591.975 0 basechar 0
AnchorPoint: "A-20" 120.225 0 basechar 0
AnchorPoint: "A-7" 591.975 0 basechar 0
AnchorPoint: "A-6" 591.975 0 basechar 0
AnchorPoint: "A-5" 591.975 0 basechar 0
AnchorPoint: "A-4" 591.975 0 basechar 0
AnchorPoint: "A-2" 591.975 0 basechar 0
AnchorPoint: "A-1" 591.975 0 basechar 0
AnchorPoint: "A-0" 591.975 0 basechar 0
LayerCount: 2
Fore
SplineSet
635 1039 m 1xd0
 736 1006 780 934 782 858 c 0xd0
 782 801 762 752 748 736 c 1
 726 735 l 1
 723 762 727 807 674 807 c 1
 649 745 629 683 629 621 c 0
 629 553 653 487 721 425 c 1
 839 318 l 2
 920 245 964 164 964 91 c 0
 964 51 951 15 924 -17 c 1
 897 -17 l 1
 885 34 854 77 815 112 c 2
 266 610 l 1
 212 579 185 541 185 495 c 0
 185 485 186 476 188 466 c 0
 217 343 422 259 451 134 c 0
 453 125 454 115 454 106 c 0
 454 52 420 -0 379 0 c 0
 315 0 251 0 187 0 c 1
 181 28 l 1
 214 38 227 55 227 78 c 0
 227 150 97 275 73 378 c 0
 69 395 67 411 67 428 c 0
 67 514 122 589 218 652 c 1
 64 791 l 2
 6 844 -60 930 -60 1022 c 0
 -60 1060 -49 1098 -23 1136 c 1
 3 1136 l 1
 16 1078 48 1031 87 996 c 2
 561 569 l 1
 561 581 561 592 561 603 c 0xec
 561 681 574 741 606 814 c 1
 496 831 438 897 415 998 c 0
 410 1019 407 1039 407 1058 c 0
 407 1086 413 1112 424 1136 c 1
 450 1136 l 1
 470 1095 501 1069 545 1059 c 2
 635 1039 l 1xd0
EndSplineSet
Validated: 1
LCarets2: 1 90 
MultipleSubs2: "Add hairspace before low marked Qof" alef hairspace
Substitution2: "'jalt' Wide Letter Alternatives in Hebrew subtable" alef.wide
EndChar

StartChar: bet
Encoding: 156 1489 63
Width: 967
GlyphClass: 2
Flags: W
HStem: 0 240<122.107 689 743 897.385> 814 242<27.2703 529.484>
VStem: 111 799<2.11591 237.596> 689 75<241.826 508.461>
AnchorPoint: "A-69" 512.55 0 basechar 0
AnchorPoint: "A-68" 512.55 0 basechar 0
AnchorPoint: "A-67" 512.55 0 basechar 0
AnchorPoint: "A-66" 512.55 0 basechar 0
AnchorPoint: "A-65" 512.55 0 basechar 0
AnchorPoint: "A-64" 512.55 0 basechar 0
AnchorPoint: "A-63" 512.55 0 basechar 0
AnchorPoint: "A-62" 512.55 0 basechar 0
AnchorPoint: "A-61" 512.55 0 basechar 0
AnchorPoint: "A-59" 83.2998 0 basechar 0
AnchorPoint: "A-55" 737.8 0 basechar 0
AnchorPoint: "A-42" 512.55 0 basechar 0
AnchorPoint: "A-39" 508.3 0 basechar 0
AnchorPoint: "A-36" 512.55 0 basechar 0
AnchorPoint: "A-21" -282.2 0 basechar 0
AnchorPoint: "A-16" 512.55 0 basechar 0
AnchorPoint: "A-15" 512.55 0 basechar 0
AnchorPoint: "A-14" 512.55 0 basechar 0
AnchorPoint: "A-13" 512.55 0 basechar 0
AnchorPoint: "A-12" 512.55 0 basechar 0
AnchorPoint: "A-11" 512.55 0 basechar 0
AnchorPoint: "A-10" 521.05 0 basechar 0
AnchorPoint: "A-9" 521.05 0 basechar 0
AnchorPoint: "A-8" 512.55 0 basechar 0
AnchorPoint: "A-58" 508.3 0 basechar 0
AnchorPoint: "A-41" 512.55 0 basechar 0
AnchorPoint: "A-40" 512.55 0 basechar 0
AnchorPoint: "A-32" 508.3 0 basechar 0
AnchorPoint: "A-31" 508.3 0 basechar 0
AnchorPoint: "A-30" 508.3 0 basechar 0
AnchorPoint: "A-29" 525.3 0 basechar 0
AnchorPoint: "A-28" 495.55 0 basechar 0
AnchorPoint: "A-27" 491.3 0 basechar 0
AnchorPoint: "A-26" 737.8 0 basechar 0
AnchorPoint: "A-25" 142.8 0 basechar 0
AnchorPoint: "A-24" 512.55 0 basechar 0
AnchorPoint: "A-23" 508.3 0 basechar 0
AnchorPoint: "A-20" 66.2998 0 basechar 0
AnchorPoint: "A-7" 512.55 0 basechar 0
AnchorPoint: "A-6" 512.55 0 basechar 0
AnchorPoint: "A-5" 512.55 0 basechar 0
AnchorPoint: "A-4" 512.55 0 basechar 0
AnchorPoint: "A-2" 508.3 0 basechar 0
AnchorPoint: "A-1" 508.3 0 basechar 0
AnchorPoint: "A-0" 508.3 0 basechar 0
LayerCount: 2
Fore
SplineSet
373 814 m 2xd0
 146 814 l 2
 23 814 -47 920 -47 1023 c 0
 -47 1061 -37 1098 -17 1130 c 1
 9 1130 l 1
 31 1083 70 1056 126 1056 c 2
 272 1056 l 2
 586 1056 639 969 703 693 c 2
 736 552 l 2
 755 469 764 409 764 359 c 0xd0
 764 315 757 279 743 240 c 1
 889 240 l 1
 900 189 910 119 910 58 c 0
 910 37 909 17 906 0 c 1
 137 0 l 1
 117 45 111 99 111 146 c 0xe0
 111 185 116 219 121 240 c 1
 689 240 l 1
 681 446 612 698 560 772 c 1
 529 813 463 814 373 814 c 2xd0
EndSplineSet
Validated: 1
LCarets2: 1 81 
MultipleSubs2: "Add hairspace before low marked Qof" bet hairspace
EndChar

StartChar: gimel
Encoding: 157 1490 64
Width: 665
GlyphClass: 2
Flags: W
HStem: -18 242<80 236.556>
VStem: 80 210<0 81.9919> 290 334<43.5 439>
AnchorPoint: "A-69" 373.3 0 basechar 0
AnchorPoint: "A-68" 347.8 0 basechar 0
AnchorPoint: "A-67" 373.3 0 basechar 0
AnchorPoint: "A-66" 373.3 0 basechar 0
AnchorPoint: "A-65" 373.3 0 basechar 0
AnchorPoint: "A-64" 373.3 0 basechar 0
AnchorPoint: "A-63" 373.3 0 basechar 0
AnchorPoint: "A-62" 373.3 0 basechar 0
AnchorPoint: "A-61" 373.3 0 basechar 0
AnchorPoint: "A-59" 67.2998 0 basechar 0
AnchorPoint: "A-55" 539.05 0 basechar 0
AnchorPoint: "A-42" 373.3 0 basechar 0
AnchorPoint: "A-39" 445.55 0 basechar 0
AnchorPoint: "A-36" 443 0 basechar 0
AnchorPoint: "A-22" -60.2002 0 basechar 0
AnchorPoint: "A-21" -298.2 0 basechar 0
AnchorPoint: "A-16" 373.3 0 basechar 0
AnchorPoint: "A-15" 373.3 0 basechar 0
AnchorPoint: "A-14" 373.3 0 basechar 0
AnchorPoint: "A-13" 373.3 0 basechar 0
AnchorPoint: "A-12" 373.3 0 basechar 0
AnchorPoint: "A-11" 373.3 0 basechar 0
AnchorPoint: "A-10" 373.3 0 basechar 0
AnchorPoint: "A-9" 373.3 0 basechar 0
AnchorPoint: "A-8" 373.3 0 basechar 0
AnchorPoint: "A-58" 445.55 0 basechar 0
AnchorPoint: "A-41" 234.991 10 basechar 0
AnchorPoint: "A-40" 373.3 0 basechar 0
AnchorPoint: "A-32" 445.55 0 basechar 0
AnchorPoint: "A-31" 445.55 0 basechar 0
AnchorPoint: "A-30" 598.55 0 basechar 0
AnchorPoint: "A-29" 598.55 0 basechar 0
AnchorPoint: "A-28" 479.55 0 basechar 0
AnchorPoint: "A-27" 292.55 0 basechar 0
AnchorPoint: "A-26" 539.05 0 basechar 0
AnchorPoint: "A-25" 169.3 0 basechar 0
AnchorPoint: "A-24" 443 0 basechar 0
AnchorPoint: "A-23" 445.55 0 basechar 0
AnchorPoint: "A-20" 143.8 0 basechar 0
AnchorPoint: "A-7" 373.3 0 basechar 0
AnchorPoint: "A-6" 373.3 0 basechar 0
AnchorPoint: "A-5" 373.3 0 basechar 0
AnchorPoint: "A-4" 373.3 0 basechar 0
AnchorPoint: "A-2" 445.55 0 basechar 0
AnchorPoint: "A-1" 445.55 0 basechar 0
AnchorPoint: "A-0" 445.55 0 basechar 0
LayerCount: 2
Fore
SplineSet
330 599 m 0
 369 429 624 238 624 56 c 0
 624 31 619 7 608 -18 c 1
 584 -18 l 1
 361 326 l 1
 347 326 l 1
 290 0 l 1
 80 -18 l 1
 76 224 l 1
 165 240 225 239 262 296 c 0
 281 325 290 364 290 414 c 0
 290 464 281 525 264 598 c 0
 220 789 189 792 131 805 c 2
 90 814 l 2
 -15 837 -38 888 -56 963 c 0
 -60 980 -62 998 -62 1014 c 0
 -62 1052 -52 1089 -30 1123 c 1
 -3 1123 l 1
 15 1080 2 1059 56 1054 c 2
 130 1047 l 2
 304 1031 276 831 330 599 c 0
EndSplineSet
Validated: 1
LCarets2: 1 54 
MultipleSubs2: "Add hairspace before narrowletter subtable subtable" hairspace gimel
MultipleSubs2: "Add hairspace before low marked Qof" gimel hairspace
EndChar

StartChar: dalet
Encoding: 158 1491 65
Width: 879
GlyphClass: 2
Flags: W
HStem: 814 242<-56.4927 514>
VStem: 427 98<467.187 761.859> 539 123<-0.0515137 250.082>
AnchorPoint: "A-69" 523.75 0 basechar 0
AnchorPoint: "A-68" 455.75 0 basechar 0
AnchorPoint: "A-67" 353.75 0 basechar 0
AnchorPoint: "A-66" 523.75 0 basechar 0
AnchorPoint: "A-65" 438.75 0 basechar 0
AnchorPoint: "A-64" 353.75 0 basechar 0
AnchorPoint: "A-63" 523.75 0 basechar 0
AnchorPoint: "A-62" 438.75 0 basechar 0
AnchorPoint: "A-61" 353.75 0 basechar 0
AnchorPoint: "A-59" 39.25 0 basechar 0
AnchorPoint: "A-55" 721.559 -10 basechar 0
AnchorPoint: "A-42" 451.5 0 basechar 0
AnchorPoint: "A-39" 455.75 0 basechar 0
AnchorPoint: "A-36" 460.85 0 basechar 0
AnchorPoint: "A-21" -326.25 0 basechar 0
AnchorPoint: "A-19" 362.25 0 basechar 0
AnchorPoint: "A-18" 494 0 basechar 0
AnchorPoint: "A-17" 494 0 basechar 0
AnchorPoint: "A-16" 362.25 0 basechar 0
AnchorPoint: "A-15" 494 0 basechar 0
AnchorPoint: "A-14" 494 0 basechar 0
AnchorPoint: "A-13" 362.25 0 basechar 0
AnchorPoint: "A-12" 494 0 basechar 0
AnchorPoint: "A-11" 494 0 basechar 0
AnchorPoint: "A-10" 362.25 0 basechar 0
AnchorPoint: "A-9" 494 0 basechar 0
AnchorPoint: "A-8" 494 0 basechar 0
AnchorPoint: "A-58" 430.25 0 basechar 0
AnchorPoint: "A-41" 319.75 0 basechar 0
AnchorPoint: "A-40" 617.25 0 basechar 0
AnchorPoint: "A-32" 455.75 0 basechar 0
AnchorPoint: "A-31" 455.75 0 basechar 0
AnchorPoint: "A-30" 455.75 0 basechar 0
AnchorPoint: "A-29" 455.75 0 basechar 0
AnchorPoint: "A-28" 451.5 0 basechar 0
AnchorPoint: "A-27" 455.75 0 basechar 0
AnchorPoint: "A-26" 721.559 -10 basechar 0
AnchorPoint: "A-25" 22.25 0 basechar 0
AnchorPoint: "A-24" 460.85 0 basechar 0
AnchorPoint: "A-23" 455.75 0 basechar 0
AnchorPoint: "A-20" -45.75 0 basechar 0
AnchorPoint: "A-7" 447.25 0 basechar 0
AnchorPoint: "A-6" 502.5 0 basechar 0
AnchorPoint: "A-5" 621.5 0 basechar 0
AnchorPoint: "A-4" 621.5 0 basechar 0
AnchorPoint: "A-2" 455.75 0 basechar 0
AnchorPoint: "A-1" 455.75 0 basechar 0
AnchorPoint: "A-0" 455.75 0 basechar 0
LayerCount: 2
Fore
SplineSet
536 736 m 1
 529 717 525 696 525 673 c 0
 525 556 606 381 653 175 c 0
 659 149 662 125 662 104 c 0
 662 30 626 -13 554 -25 c 1
 531 0 l 1
 537 14 539 30 539 49 c 0
 539 173 427 397 427 589 c 0
 427 674 449 753 514 814 c 1
 66 814 l 2
 -37 814 -103 878 -122 962 c 0
 -127 984 -130 1005 -130 1025 c 0
 -130 1063 -120 1097 -99 1126 c 1
 -73 1126 l 1
 -51 1080 -13 1056 43 1056 c 2
 457 1056 l 2
 551 1056 587 1026 608 937 c 0
 613 914 615 896 615 882 c 0
 615 816 568 825 536 736 c 1
EndSplineSet
Validated: 1
LCarets2: 1 73 
MultipleSubs2: "Add hairspace before low marked Qof" dalet hairspace
Substitution2: "'jalt' Wide Letter Alternatives in Hebrew subtable" dalet.wide
EndChar

StartChar: he
Encoding: 159 1492 66
Width: 1071
GlyphClass: 2
Flags: W
HStem: 814 242<41.4395 727.744>
VStem: 154 129<165.273 467.503> 220 131<-12.0209 213.648> 686 80<526.442 809.269> 816 121<-2.03878 246.285>
AnchorPoint: "A-69" 597.592 0 basechar 0
AnchorPoint: "A-68" 597.592 0 basechar 0
AnchorPoint: "A-67" 597.592 0 basechar 0
AnchorPoint: "A-66" 597.592 0 basechar 0
AnchorPoint: "A-65" 597.592 0 basechar 0
AnchorPoint: "A-64" 597.592 0 basechar 0
AnchorPoint: "A-63" 597.592 0 basechar 0
AnchorPoint: "A-62" 597.592 0 basechar 0
AnchorPoint: "A-61" 597.592 0 basechar 0
AnchorPoint: "A-59" 100.342 0 basechar 0
AnchorPoint: "A-55" 882.342 0 basechar 0
AnchorPoint: "A-42" 597.592 0 basechar 0
AnchorPoint: "A-39" 601.842 0 basechar 0
AnchorPoint: "A-36" 595.892 0 basechar 0
AnchorPoint: "A-21" -265.158 0 basechar 0
AnchorPoint: "A-16" 597.592 0 basechar 0
AnchorPoint: "A-15" 597.592 0 basechar 0
AnchorPoint: "A-14" 597.592 0 basechar 0
AnchorPoint: "A-13" 597.592 0 basechar 0
AnchorPoint: "A-12" 597.592 0 basechar 0
AnchorPoint: "A-11" 597.592 0 basechar 0
AnchorPoint: "A-10" 597.592 0 basechar 0
AnchorPoint: "A-9" 597.592 0 basechar 0
AnchorPoint: "A-8" 597.592 0 basechar 0
AnchorPoint: "A-58" 601.842 0 basechar 0
AnchorPoint: "A-41" 567.842 0 basechar 0
AnchorPoint: "A-40" 597.592 0 basechar 0
AnchorPoint: "A-32" 601.842 0 basechar 0
AnchorPoint: "A-31" 601.842 0 basechar 0
AnchorPoint: "A-30" 601.842 0 basechar 0
AnchorPoint: "A-29" 601.842 0 basechar 0
AnchorPoint: "A-28" 512.592 0 basechar 0
AnchorPoint: "A-27" 601.842 0 basechar 0
AnchorPoint: "A-26" 882.342 0 basechar 0
AnchorPoint: "A-25" 168.342 0 basechar 0
AnchorPoint: "A-24" 595.892 0 basechar 0
AnchorPoint: "A-23" 601.842 0 basechar 0
AnchorPoint: "A-20" 100.342 0 basechar 0
AnchorPoint: "A-7" 597.592 0 basechar 0
AnchorPoint: "A-6" 597.592 0 basechar 0
AnchorPoint: "A-5" 597.592 0 basechar 0
AnchorPoint: "A-4" 597.592 0 basechar 0
AnchorPoint: "A-2" 601.842 0 basechar 0
AnchorPoint: "A-1" 601.842 0 basechar 0
AnchorPoint: "A-0" 601.842 0 basechar 0
LayerCount: 2
Fore
SplineSet
782 607 m 0x98
 818 448 937 234 937 99 c 0
 937 34 909 -12 831 -25 c 1
 810 -4 l 1
 814 9 816 24 816 41 c 0
 816 180 686 437 686 645 c 0
 686 707 698 765 728 814 c 1
 158 814 l 2
 31 814 -34 921 -34 1019 c 0
 -34 1059 -24 1096 -3 1126 c 1
 24 1126 l 1
 46 1080 82 1056 134 1056 c 2
 622 1056 l 2
 731 1056 761 1015 779 937 c 2
 790 888 l 2
 792 878 793 870 793 862 c 0
 793 820 766 799 766 725 c 0
 766 695 770 658 782 607 c 0x98
306 461 m 1
 289 448 283 422 283 389 c 0xd8
 283 296 334 150 346 98 c 0
 349 85 351 73 351 62 c 0
 351 4 309 -28 227 -33 c 1
 208 -11 l 1
 217 1 220 14 220 30 c 0xb8
 220 73 193 136 167 250 c 0
 159 286 154 320 154 351 c 0xd8
 154 437 189 496 263 496 c 0
 276 496 289 493 299 488 c 1
 306 461 l 1
EndSplineSet
Validated: 1
LCarets2: 1 88 
MultipleSubs2: "Add hairspace before low marked Qof" he hairspace
Substitution2: "'jalt' Wide Letter Alternatives in Hebrew subtable" he.wide
EndChar

StartChar: vav
Encoding: 160 1493 67
Width: 484
GlyphClass: 2
Flags: W
VStem: -154 554
AnchorPoint: "A-69" 264.25 0 basechar 0
AnchorPoint: "A-68" 251.5 0 basechar 0
AnchorPoint: "A-67" 298.25 0 basechar 0
AnchorPoint: "A-66" 264.25 0 basechar 0
AnchorPoint: "A-65" 196.25 0 basechar 0
AnchorPoint: "A-64" 264.25 0 basechar 0
AnchorPoint: "A-63" 264.25 0 basechar 0
AnchorPoint: "A-62" 196.25 0 basechar 0
AnchorPoint: "A-61" 264.25 0 basechar 0
AnchorPoint: "A-59" 56 0 basechar 0
AnchorPoint: "A-55" 387.5 0 basechar 0
AnchorPoint: "A-42" 349.25 0 basechar 0
AnchorPoint: "A-39" 294 0 basechar 0
AnchorPoint: "A-36" 294 0 basechar 0
AnchorPoint: "A-21" 158 0 basechar 0
AnchorPoint: "A-16" 294 0 basechar 0
AnchorPoint: "A-15" 302.5 0 basechar 0
AnchorPoint: "A-14" 332.25 0 basechar 0
AnchorPoint: "A-13" 302.5 0 basechar 0
AnchorPoint: "A-12" 349.25 0 basechar 0
AnchorPoint: "A-11" 349.25 0 basechar 0
AnchorPoint: "A-10" 302.5 0 basechar 0
AnchorPoint: "A-9" 349.25 0 basechar 0
AnchorPoint: "A-8" 349.25 0 basechar 0
AnchorPoint: "A-58" 294 0 basechar 0
AnchorPoint: "A-41" 56 0 basechar 0
AnchorPoint: "A-40" 289.75 0 basechar 0
AnchorPoint: "A-32" 294 0 basechar 0
AnchorPoint: "A-31" 294 0 basechar 0
AnchorPoint: "A-30" 430 0 basechar 0
AnchorPoint: "A-29" 481 0 basechar 0
AnchorPoint: "A-28" 468.25 0 basechar 0
AnchorPoint: "A-27" 141 0 basechar 0
AnchorPoint: "A-26" 387.5 0 basechar 0
AnchorPoint: "A-25" 73 0 basechar 0
AnchorPoint: "A-24" 294 0 basechar 0
AnchorPoint: "A-23" 294 0 basechar 0
AnchorPoint: "A-20" 158 0 basechar 0
AnchorPoint: "A-7" 302.5 0 basechar 0
AnchorPoint: "A-6" 302.5 0 basechar 0
AnchorPoint: "A-5" 349.25 0 basechar 0
AnchorPoint: "A-4" 349.25 0 basechar 0
AnchorPoint: "A-2" 294 0 basechar 0
AnchorPoint: "A-1" 294 0 basechar 0
AnchorPoint: "A-0" 294 0 basechar 0
LayerCount: 2
Fore
SplineSet
22 1056 m 0
 119 1056 190 998 230 824 c 2
 395 107 l 2
 399 92 400 78 400 65 c 0
 400 27 386 0 356 -17 c 1
 332 -10 l 1
 177 663 l 2
 145 800 82 806 50 814 c 0
 -28 832 -123 852 -150 970 c 0
 -153 982 -154 996 -154 1009 c 0
 -154 1048 -143 1088 -124 1112 c 1
 -117 1110 -107 1111 -97 1112 c 1
 -82 1072 -38 1056 22 1056 c 0
EndSplineSet
Validated: 1
LCarets2: 1 39 
MultipleSubs2: "Add hairspace before narrowletter subtable subtable" hairspace vav
MultipleSubs2: "Add hairspace before low marked Qof" vav hairspace
EndChar

StartChar: zain
Encoding: 161 1494 68
Width: 549
GlyphClass: 2
Flags: W
HStem: 808 258<-50.0939 110>
VStem: 92 61<618.076 805.516> 236 114<-1.99863 229.391>
AnchorPoint: "A-69" 223.139 0 basechar 0
AnchorPoint: "A-68" 206.139 0 basechar 0
AnchorPoint: "A-67" 223.139 0 basechar 0
AnchorPoint: "A-66" 223.139 0 basechar 0
AnchorPoint: "A-65" 223.139 0 basechar 0
AnchorPoint: "A-64" 223.139 0 basechar 0
AnchorPoint: "A-63" 223.139 0 basechar 0
AnchorPoint: "A-62" 223.139 0 basechar 0
AnchorPoint: "A-61" 223.139 0 basechar 0
AnchorPoint: "A-59" 61.6387 0 basechar 0
AnchorPoint: "A-55" 486.639 0 basechar 0
AnchorPoint: "A-42" 316.639 0 basechar 0
AnchorPoint: "A-39" 320.889 0 basechar 0
AnchorPoint: "A-36" 333.639 0 basechar 0
AnchorPoint: "A-22" -159.361 0 basechar 0
AnchorPoint: "A-21" -303.861 0 basechar 0
AnchorPoint: "A-16" 291.139 0 basechar 0
AnchorPoint: "A-15" 257.139 0 basechar 0
AnchorPoint: "A-14" 299.639 0 basechar 0
AnchorPoint: "A-13" 308.139 0 basechar 0
AnchorPoint: "A-12" 316.639 0 basechar 0
AnchorPoint: "A-11" 316.639 0 basechar 0
AnchorPoint: "A-10" 308.139 0 basechar 0
AnchorPoint: "A-9" 316.639 0 basechar 0
AnchorPoint: "A-8" 316.639 0 basechar 0
AnchorPoint: "A-58" 333.639 0 basechar 0
AnchorPoint: "A-41" 10.6387 0 basechar 0
AnchorPoint: "A-40" 265.639 0 basechar 0
AnchorPoint: "A-32" 333.639 0 basechar 0
AnchorPoint: "A-31" 333.639 0 basechar 0
AnchorPoint: "A-30" 435.639 0 basechar 0
AnchorPoint: "A-29" 452.639 0 basechar 0
AnchorPoint: "A-28" 473.889 0 basechar 0
AnchorPoint: "A-27" 248.639 0 basechar 0
AnchorPoint: "A-26" 486.639 0 basechar 0
AnchorPoint: "A-25" 87.1387 0 basechar 0
AnchorPoint: "A-24" 333.639 0 basechar 0
AnchorPoint: "A-23" 320.889 0 basechar 0
AnchorPoint: "A-20" 19.1387 0 basechar 0
AnchorPoint: "A-7" 308.139 0 basechar 0
AnchorPoint: "A-6" 308.139 0 basechar 0
AnchorPoint: "A-5" 316.639 0 basechar 0
AnchorPoint: "A-4" 316.639 0 basechar 0
AnchorPoint: "A-2" 320.889 0 basechar 0
AnchorPoint: "A-1" 320.889 0 basechar 0
AnchorPoint: "A-0" 320.889 0 basechar 0
LayerCount: 2
Fore
SplineSet
291 736 m 1
 274 736 l 1
 257 774 191 800 153 808 c 1
 160 538 292 398 339 193 c 0
 346 161 350 132 350 106 c 0
 350 30 316 -14 248 -25 c 1
 224 -5 l 1
 232 13 236 34 236 55 c 0
 236 192 92 396 92 654 c 0
 92 703 97 755 110 808 c 1
 -29 808 -108 876 -130 971 c 0
 -135 994 -138 1015 -138 1036 c 0
 -138 1072 -130 1105 -113 1135 c 1
 -86 1135 l 1
 -69 1097 -42 1074 -4 1066 c 1
 135 1061 206 1028 241 1008 c 0
 281 986 315 914 315 838 c 0
 315 803 308 768 291 736 c 1
EndSplineSet
Validated: 1
LCarets2: 1 46 
MultipleSubs2: "Add hairspace before narrowletter subtable subtable" hairspace zain
MultipleSubs2: "Add hairspace before low marked Qof" zain hairspace
EndChar

StartChar: het
Encoding: 162 1495 69
Width: 1065
GlyphClass: 2
Flags: W
HStem: 814 242<36.15 156 183.513 719.294>
VStem: 90 83<510.672 779.27> 214 119<-0.553802 259.611> 680 79<525.061 812.146> 812 117<-2.73549 245.954>
AnchorPoint: "A-69" 594.325 0 basechar 0
AnchorPoint: "A-68" 594.325 0 basechar 0
AnchorPoint: "A-67" 594.325 0 basechar 0
AnchorPoint: "A-66" 594.325 0 basechar 0
AnchorPoint: "A-65" 594.325 0 basechar 0
AnchorPoint: "A-64" 594.325 0 basechar 0
AnchorPoint: "A-63" 594.325 0 basechar 0
AnchorPoint: "A-62" 594.325 0 basechar 0
AnchorPoint: "A-61" 594.325 0 basechar 0
AnchorPoint: "A-59" 58.8252 0 basechar 0
AnchorPoint: "A-55" 883.325 0 basechar 0
AnchorPoint: "A-42" 594.325 0 basechar 0
AnchorPoint: "A-39" 585.825 0 basechar 0
AnchorPoint: "A-36" 585.825 0 basechar 0
AnchorPoint: "A-21" -306.675 0 basechar 0
AnchorPoint: "A-16" 594.325 0 basechar 0
AnchorPoint: "A-15" 594.325 0 basechar 0
AnchorPoint: "A-14" 594.325 0 basechar 0
AnchorPoint: "A-13" 594.325 0 basechar 0
AnchorPoint: "A-12" 594.325 0 basechar 0
AnchorPoint: "A-11" 594.325 0 basechar 0
AnchorPoint: "A-10" 594.325 0 basechar 0
AnchorPoint: "A-9" 594.325 0 basechar 0
AnchorPoint: "A-8" 594.325 0 basechar 0
AnchorPoint: "A-58" 585.825 0 basechar 0
AnchorPoint: "A-41" 551.825 0 basechar 0
AnchorPoint: "A-40" 594.325 0 basechar 0
AnchorPoint: "A-32" 585.825 0 basechar 0
AnchorPoint: "A-31" 585.825 0 basechar 0
AnchorPoint: "A-30" 585.825 0 basechar 0
AnchorPoint: "A-29" 585.825 0 basechar 0
AnchorPoint: "A-28" 471.075 0 basechar 0
AnchorPoint: "A-27" 585.825 0 basechar 0
AnchorPoint: "A-26" 883.325 0 basechar 0
AnchorPoint: "A-25" 126.825 0 basechar 0
AnchorPoint: "A-24" 585.825 0 basechar 0
AnchorPoint: "A-23" 585.825 0 basechar 0
AnchorPoint: "A-20" 58.8252 0 basechar 0
AnchorPoint: "A-7" 594.325 0 basechar 0
AnchorPoint: "A-6" 594.325 0 basechar 0
AnchorPoint: "A-5" 594.325 0 basechar 0
AnchorPoint: "A-4" 594.325 0 basechar 0
AnchorPoint: "A-3" 594.325 0 basechar 0
AnchorPoint: "A-2" 585.825 0 basechar 0
AnchorPoint: "A-1" 585.825 0 basechar 0
AnchorPoint: "A-0" 585.825 0 basechar 0
LayerCount: 2
Fore
SplineSet
773 607 m 0
 808 455 929 235 929 98 c 0
 929 33 902 -13 826 -25 c 1
 805 -4 l 1
 810 8 812 23 812 41 c 0
 812 173 680 439 680 650 c 0
 680 711 691 767 720 814 c 1
 214 814 l 1
 184 787 173 749 173 704 c 0
 173 534 333 263 333 102 c 0
 333 35 304 -13 223 -25 c 1
 205 -4 l 1
 211 12 214 32 214 52 c 0
 214 107 196 168 195 173 c 2
 122 426 l 1
 101 498 90 562 90 619 c 0
 90 695 110 759 156 814 c 1
 27 816 -10 870 -31 962 c 0
 -36 984 -39 1005 -39 1025 c 0
 -39 1063 -29 1097 -8 1126 c 1
 19 1126 l 1
 41 1080 79 1056 134 1056 c 2
 617 1056 l 2
 714 1056 753 1028 774 937 c 0
 780 908 783 886 783 867 c 0
 783 807 759 783 759 714 c 0
 759 687 762 653 773 607 c 0
EndSplineSet
Validated: 1
LCarets2: 1 91 
MultipleSubs2: "Add hairspace before low marked Qof" het hairspace
EndChar

StartChar: tet
Encoding: 163 1496 70
Width: 1015
GlyphClass: 2
Flags: W
HStem: 0 240<296.155 747.817> 814 254<-30.3477 74 119.293 163.125 406.191 617.564>
VStem: -98 327<884.01 1000.37> 66 53<581.659 814> 330 34<663 722.611> 756 77<242.324 632.89>
AnchorPoint: "A-69" 548.25 0 basechar 0
AnchorPoint: "A-68" 548.25 0 basechar 0
AnchorPoint: "A-67" 548.25 0 basechar 0
AnchorPoint: "A-66" 548.25 0 basechar 0
AnchorPoint: "A-65" 548.25 0 basechar 0
AnchorPoint: "A-64" 548.25 0 basechar 0
AnchorPoint: "A-63" 548.25 0 basechar 0
AnchorPoint: "A-62" 548.25 0 basechar 0
AnchorPoint: "A-61" 548.25 0 basechar 0
AnchorPoint: "A-59" 46.75 0 basechar 0
AnchorPoint: "A-55" 862.75 0 basechar 0
AnchorPoint: "A-42" 548.25 0 basechar 0
AnchorPoint: "A-39" 548.25 0 basechar 0
AnchorPoint: "A-36" 548.25 0 basechar 0
AnchorPoint: "A-21" -318.75 0 basechar 0
AnchorPoint: "A-16" 548.25 0 basechar 0
AnchorPoint: "A-15" 548.25 0 basechar 0
AnchorPoint: "A-14" 548.25 0 basechar 0
AnchorPoint: "A-13" 548.25 0 basechar 0
AnchorPoint: "A-12" 548.25 0 basechar 0
AnchorPoint: "A-11" 548.25 0 basechar 0
AnchorPoint: "A-10" 548.25 0 basechar 0
AnchorPoint: "A-9" 548.25 0 basechar 0
AnchorPoint: "A-8" 548.25 0 basechar 0
AnchorPoint: "A-58" 548.25 0 basechar 0
AnchorPoint: "A-41" 505.75 0 basechar 0
AnchorPoint: "A-40" 548.25 0 basechar 0
AnchorPoint: "A-32" 548.25 0 basechar 0
AnchorPoint: "A-31" 548.25 0 basechar 0
AnchorPoint: "A-30" 548.25 0 basechar 0
AnchorPoint: "A-29" 548.25 0 basechar 0
AnchorPoint: "A-28" 459 0 basechar 0
AnchorPoint: "A-27" 548.25 0 basechar 0
AnchorPoint: "A-26" 862.75 0 basechar 0
AnchorPoint: "A-25" 97.75 0 basechar 0
AnchorPoint: "A-24" 548.25 0 basechar 0
AnchorPoint: "A-23" 548.25 0 basechar 0
AnchorPoint: "A-20" 29.75 0 basechar 0
AnchorPoint: "A-7" 548.25 0 basechar 0
AnchorPoint: "A-6" 548.25 0 basechar 0
AnchorPoint: "A-5" 548.25 0 basechar 0
AnchorPoint: "A-4" 548.25 0 basechar 0
AnchorPoint: "A-2" 548.25 0 basechar 0
AnchorPoint: "A-1" 548.25 0 basechar 0
AnchorPoint: "A-0" 548.25 0 basechar 0
LayerCount: 2
Fore
SplineSet
284 0 m 1xdc
 227 231 66 450 66 714 c 0xdc
 66 747 69 780 74 814 c 1
 -24 831 -68 877 -90 969 c 0
 -95 993 -98 1018 -98 1043 c 0xec
 -98 1073 -94 1104 -86 1135 c 1
 -59 1135 l 1
 -43 1086 -2 1060 66 1057 c 1xdc
 145 1055 196 1012 216 929 c 0
 221 903 229 815 229 777 c 0
 229 773 229 770 229 767 c 1xec
 209 751 209 791 177 803 c 1
 162 805 143 814 122 814 c 1
 120 792 119 771 119 750 c 0
 119 605 164 482 325 240 c 1
 739 240 l 1
 750 287 756 331 756 378 c 0
 756 451 743 529 720 629 c 0
 686 776 596 814 520 814 c 0
 448 814 374 784 364 655 c 1
 330 663 l 1
 330 675 330 688 330 700 c 0
 330 945 389 1068 508 1068 c 0
 633 1068 729 922 797 630 c 0
 821 525 833 410 833 285 c 0
 833 195 827 100 814 0 c 1
 284 0 l 1xdc
EndSplineSet
Validated: 1
LCarets2: 1 85 
MultipleSubs2: "Add hairspace before low marked Qof" tet hairspace
EndChar

StartChar: yod
Encoding: 164 1497 71
Width: 454
GlyphClass: 2
Flags: W
HStem: 480 655
VStem: 159 73<536 785.059>
AnchorPoint: "A-69" 222.875 0 basechar 0
AnchorPoint: "A-68" 214.375 0 basechar 0
AnchorPoint: "A-67" 222.875 0 basechar 0
AnchorPoint: "A-66" 222.875 0 basechar 0
AnchorPoint: "A-65" 222.875 0 basechar 0
AnchorPoint: "A-64" 222.875 0 basechar 0
AnchorPoint: "A-63" 222.875 0 basechar 0
AnchorPoint: "A-62" 222.875 0 basechar 0
AnchorPoint: "A-61" 222.875 0 basechar 0
AnchorPoint: "A-59" 44.375 0 basechar 0
AnchorPoint: "A-55" 384.375 0 basechar 0
AnchorPoint: "A-42" 248.375 0 basechar 0
AnchorPoint: "A-39" 261.125 0 basechar 0
AnchorPoint: "A-36" 282.375 0 basechar 0
AnchorPoint: "A-22" -202.125 0 basechar 0
AnchorPoint: "A-21" -321.125 0 basechar 0
AnchorPoint: "A-16" 239.875 0 basechar 0
AnchorPoint: "A-15" 239.875 0 basechar 0
AnchorPoint: "A-14" 239.875 0 basechar 0
AnchorPoint: "A-13" 239.875 0 basechar 0
AnchorPoint: "A-12" 239.875 0 basechar 0
AnchorPoint: "A-11" 239.875 0 basechar 0
AnchorPoint: "A-10" 239.875 0 basechar 0
AnchorPoint: "A-9" 256.875 0 basechar 0
AnchorPoint: "A-8" 239.875 0 basechar 0
AnchorPoint: "A-58" 282.375 0 basechar 0
AnchorPoint: "A-41" -23.625 0 basechar 0
AnchorPoint: "A-40" 248.375 0 basechar 0
AnchorPoint: "A-32" 282.375 0 basechar 0
AnchorPoint: "A-31" 282.375 0 basechar 0
AnchorPoint: "A-30" 418.375 0 basechar 0
AnchorPoint: "A-29" 469.375 0 basechar 0
AnchorPoint: "A-28" 456.625 0 basechar 0
AnchorPoint: "A-27" 159.125 0 basechar 0
AnchorPoint: "A-26" 384.375 0 basechar 0
AnchorPoint: "A-25" 44.375 0 basechar 0
AnchorPoint: "A-24" 282.375 0 basechar 0
AnchorPoint: "A-23" 261.125 0 basechar 0
AnchorPoint: "A-20" -15.125 0 basechar 0
AnchorPoint: "A-7" 239.875 0 basechar 0
AnchorPoint: "A-6" 239.875 0 basechar 0
AnchorPoint: "A-5" 239.875 0 basechar 0
AnchorPoint: "A-4" 239.875 0 basechar 0
AnchorPoint: "A-2" 261.125 0 basechar 0
AnchorPoint: "A-1" 261.125 0 basechar 0
AnchorPoint: "A-0" 261.125 0 basechar 0
LayerCount: 2
Fore
SplineSet
136 480 m 1
 101 512 l 1
 141 549 159 582 159 630 c 0
 159 652 156 676 149 705 c 2
 141 741 l 2
 131 786 118 811 37 814 c 0
 -89 819 -166 912 -166 1033 c 0
 -166 1066 -160 1100 -149 1135 c 1
 -122 1135 l 1
 -106 1090 -69 1065 -14 1060 c 1
 22 1056 l 1
 113 1049 172 988 199 871 c 2
 216 795 l 2
 227 749 232 708 232 671 c 0
 232 581 200 518 136 480 c 1
EndSplineSet
Validated: 1
LCarets2: 1 36 
MultipleSubs2: "Add hairspace before narrowletter subtable subtable" hairspace yod
MultipleSubs2: "Add hairspace before low marked Qof" yod hairspace
EndChar

StartChar: finalkaf
Encoding: 165 1498 72
Width: 846
GlyphClass: 2
Flags: W
HStem: 815 242<-50.1145 448>
AnchorPoint: "A-69" 279.95 0 basechar 0
AnchorPoint: "A-68" 220.45 0 basechar 0
AnchorPoint: "A-67" 118.45 0 basechar 0
AnchorPoint: "A-66" 279.95 0 basechar 0
AnchorPoint: "A-65" 220.45 0 basechar 0
AnchorPoint: "A-64" 118.45 0 basechar 0
AnchorPoint: "A-63" 279.95 0 basechar 0
AnchorPoint: "A-62" 220.45 0 basechar 0
AnchorPoint: "A-61" 118.45 0 basechar 0
AnchorPoint: "A-59" 84.4502 0 basechar 0
AnchorPoint: "A-55" 764.45 0 basechar 0
AnchorPoint: "A-42" 203.45 0 basechar 0
AnchorPoint: "A-39" 500.95 0 basechar 0
AnchorPoint: "A-36" 506.05 0 basechar 0
AnchorPoint: "A-21" -281.05 0 basechar 0
AnchorPoint: "A-16" 126.95 0 basechar 0
AnchorPoint: "A-15" 228.95 0 basechar 0
AnchorPoint: "A-14" 347.95 0 basechar 0
AnchorPoint: "A-13" -17.5498 0 basechar 0
AnchorPoint: "A-12" 84.4502 0 basechar 0
AnchorPoint: "A-11" 203.45 0 basechar 0
AnchorPoint: "A-10" 126.95 0 basechar 0
AnchorPoint: "A-9" 228.95 0 basechar 0
AnchorPoint: "A-8" 347.95 0 basechar 0
AnchorPoint: "A-58" 475.45 0 basechar 0
AnchorPoint: "A-41" 492.45 0 basechar 0
AnchorPoint: "A-40" 390.45 0 basechar 0
AnchorPoint: "A-32" 500.95 0 basechar 0
AnchorPoint: "A-31" 500.95 0 basechar 0
AnchorPoint: "A-30" 500.95 0 basechar 0
AnchorPoint: "A-29" 500.95 0 basechar 0
AnchorPoint: "A-28" 496.7 0 basechar 0
AnchorPoint: "A-27" 500.95 0 basechar 0
AnchorPoint: "A-26" 764.45 0 basechar 0
AnchorPoint: "A-25" 84.4502 0 basechar 0
AnchorPoint: "A-24" 506.05 0 basechar 0
AnchorPoint: "A-23" 500.95 0 basechar 0
AnchorPoint: "A-20" 16.4502 0 basechar 0
AnchorPoint: "A-7" 211.95 0 basechar 0
AnchorPoint: "A-6" 279.95 0 basechar 0
AnchorPoint: "A-5" 373.45 0 basechar 0
AnchorPoint: "A-4" 390.45 0 basechar 0
AnchorPoint: "A-2" 500.95 0 basechar 0
AnchorPoint: "A-1" 500.95 0 basechar 0
AnchorPoint: "A-0" 500.95 0 basechar 0
LayerCount: 2
Fore
SplineSet
552 800 m 1
 547 792 545 782 545 771 c 0
 545 754 550 734 554 720 c 2
 793 -177 l 1
 800 -207 808 -236 808 -263 c 0
 808 -300 793 -332 739 -354 c 1
 719 -345 l 1
 448 815 l 1
 61 815 l 2
 -61 815 -121 918 -121 1016 c 0
 -121 1057 -111 1096 -91 1127 c 1
 -65 1127 l 1
 -45 1081 -3 1057 58 1057 c 2
 419 1056 l 2
 504 1056 555 1020 572 946 c 2
 579 915 l 2
 581 904 583 894 583 884 c 0
 583 870 580 858 573 848 c 1
 552 800 l 1
EndSplineSet
Validated: 1
LCarets2: 1 72 
MultipleSubs2: "Add hairspace before low marked Qof" finalkaf hairspace
EndChar

StartChar: kaf
Encoding: 166 1499 73
Width: 942
GlyphClass: 2
Flags: W
HStem: 0 240<125 639.504> 814 242<-0.801594 467.584>
VStem: 673 109<197 552.781>
AnchorPoint: "A-69" 469.65 0 basechar 0
AnchorPoint: "A-68" 469.65 0 basechar 0
AnchorPoint: "A-67" 469.65 0 basechar 0
AnchorPoint: "A-66" 469.65 0 basechar 0
AnchorPoint: "A-65" 469.65 0 basechar 0
AnchorPoint: "A-64" 469.65 0 basechar 0
AnchorPoint: "A-63" 469.65 0 basechar 0
AnchorPoint: "A-62" 469.65 0 basechar 0
AnchorPoint: "A-61" 469.65 0 basechar 0
AnchorPoint: "A-59" 78.6504 0 basechar 0
AnchorPoint: "A-55" 724.65 0 basechar 0
AnchorPoint: "A-42" 469.65 0 basechar 0
AnchorPoint: "A-39" 495.15 0 basechar 0
AnchorPoint: "A-36" 495.15 0 basechar 0
AnchorPoint: "A-21" -286.85 0 basechar 0
AnchorPoint: "A-16" 469.65 0 basechar 0
AnchorPoint: "A-15" 469.65 0 basechar 0
AnchorPoint: "A-14" 469.65 0 basechar 0
AnchorPoint: "A-13" 469.65 0 basechar 0
AnchorPoint: "A-12" 469.65 0 basechar 0
AnchorPoint: "A-11" 469.65 0 basechar 0
AnchorPoint: "A-10" 469.65 0 basechar 0
AnchorPoint: "A-9" 469.65 0 basechar 0
AnchorPoint: "A-8" 469.65 0 basechar 0
AnchorPoint: "A-58" 495.15 0 basechar 0
AnchorPoint: "A-41" 401.65 0 basechar 0
AnchorPoint: "A-40" 469.65 0 basechar 0
AnchorPoint: "A-32" 495.15 0 basechar 0
AnchorPoint: "A-31" 495.15 0 basechar 0
AnchorPoint: "A-30" 512.15 0 basechar 0
AnchorPoint: "A-29" 529.15 0 basechar 0
AnchorPoint: "A-28" 490.9 0 basechar 0
AnchorPoint: "A-27" 461.15 0 basechar 0
AnchorPoint: "A-26" 724.65 0 basechar 0
AnchorPoint: "A-25" 129.65 0 basechar 0
AnchorPoint: "A-24" 495.15 0 basechar 0
AnchorPoint: "A-23" 495.15 0 basechar 0
AnchorPoint: "A-20" 44.6504 0 basechar 0
AnchorPoint: "A-7" 469.65 0 basechar 0
AnchorPoint: "A-6" 469.65 0 basechar 0
AnchorPoint: "A-5" 469.65 0 basechar 0
AnchorPoint: "A-4" 469.65 0 basechar 0
AnchorPoint: "A-2" 495.15 0 basechar 0
AnchorPoint: "A-1" 495.15 0 basechar 0
AnchorPoint: "A-0" 495.15 0 basechar 0
LayerCount: 2
Fore
SplineSet
494 240 m 2
 623 240 673 286 673 387 c 0
 673 423 667 466 655 517 c 0
 610 712 555 814 379 814 c 2
 104 814 l 2
 -15 814 -73 917 -73 1015 c 0
 -73 1056 -63 1095 -43 1126 c 1
 -17 1126 l 1
 5 1079 43 1056 99 1056 c 2
 305 1056 l 2
 516 1056 662 883 742 537 c 0
 770 415 782 326 782 258 c 0
 782 136 743 87 693 54 c 0
 638 18 558 0 454 0 c 2
 125 0 l 1
 115 240 l 1
 494 240 l 2
EndSplineSet
Validated: 1
LCarets2: 1 74 
MultipleSubs2: "Add hairspace before low marked Qof" kaf hairspace
Substitution2: "'jalt' Wide Letter Alternatives in Hebrew subtable" kaf.wide
EndChar

StartChar: lamed
Encoding: 167 1500 74
Width: 901
GlyphClass: 2
Flags: W
HStem: 814 242<-11.3435 579.105>
VStem: -80 40<1103.17 1325.07> 385 159<8.55548 159.76> 385 128<16.9656 242.801> 633 84<468.031 687.96>
AnchorPoint: "A-69" 397.325 0 basechar 0
AnchorPoint: "A-68" 371.825 0 basechar 0
AnchorPoint: "A-67" 397.325 0 basechar 0
AnchorPoint: "A-66" 397.325 0 basechar 0
AnchorPoint: "A-65" 371.825 0 basechar 0
AnchorPoint: "A-64" 397.325 0 basechar 0
AnchorPoint: "A-63" 397.325 0 basechar 0
AnchorPoint: "A-62" 371.825 0 basechar 0
AnchorPoint: "A-61" 397.325 0 basechar 0
AnchorPoint: "A-59" 133.825 0 basechar 0
AnchorPoint: "A-55" 796.825 0 basechar 0
AnchorPoint: "A-42" 482.325 0 basechar 0
AnchorPoint: "A-39" 601.325 0 basechar 0
AnchorPoint: "A-36" 660.825 0 basechar 0
AnchorPoint: "A-21" -231.675 0 basechar 0
AnchorPoint: "A-16" 482.325 0 basechar 0
AnchorPoint: "A-15" 482.325 0 basechar 0
AnchorPoint: "A-14" 482.325 0 basechar 0
AnchorPoint: "A-13" 482.325 0 basechar 0
AnchorPoint: "A-12" 482.325 0 basechar 0
AnchorPoint: "A-11" 482.325 0 basechar 0
AnchorPoint: "A-10" 490.825 0 basechar 0
AnchorPoint: "A-9" 499.325 0 basechar 0
AnchorPoint: "A-8" 490.825 0 basechar 0
AnchorPoint: "A-58" 516.325 0 basechar 0
AnchorPoint: "A-41" 346.325 0 basechar 0
AnchorPoint: "A-40" 482.325 0 basechar 0
AnchorPoint: "A-32" 839.325 0 basechar 0
AnchorPoint: "A-31" 686.325 0 basechar 0
AnchorPoint: "A-30" 354.825 0 basechar 0
AnchorPoint: "A-29" 329.325 0 basechar 0
AnchorPoint: "A-28" 291.075 0 basechar 0
AnchorPoint: "A-27" 541.825 0 basechar 0
AnchorPoint: "A-26" 796.825 0 basechar 0
AnchorPoint: "A-25" -53.1748 0 basechar 0
AnchorPoint: "A-24" 660.825 0 basechar 0
AnchorPoint: "A-23" 601.325 0 basechar 0
AnchorPoint: "A-20" -155.175 0 basechar 0
AnchorPoint: "A-7" 499.325 0 basechar 0
AnchorPoint: "A-6" 482.325 0 basechar 0
AnchorPoint: "A-5" 499.325 0 basechar 0
AnchorPoint: "A-4" 499.325 0 basechar 0
AnchorPoint: "A-2" 618.325 0 basechar 0
AnchorPoint: "A-1" 444.86 420 basechar 0
AnchorPoint: "A-0" 601.325 0 basechar 0
LayerCount: 2
Fore
SplineSet
-40 1215 m 1xe8
 -40 1208 -40 1201 -40 1195 c 0
 -40 1095 -16 1056 101 1056 c 2
 427 1056 l 2
 489 1056 540 1041 581 1011 c 1
 620 981 653 908 680 791 c 2
 705 683 l 2
 713 647 717 615 717 586 c 0
 717 546 709 513 692 488 c 2
 552 275 l 2
 523 231 513 194 513 162 c 0xd8
 513 114 535 79 541 52 c 0
 543 42 544 33 544 25 c 0
 544 -6 527 -22 491 -22 c 256
 446 -22 401 29 389 84 c 0
 386 96 385 107 385 119 c 0
 385 183 426 244 491 330 c 1
 602 481 l 2
 623 510 633 544 633 585 c 0
 633 604 631 625 626 647 c 2
 612 707 l 2
 589 807 551 814 403 814 c 2
 113 814 l 2
 -39 814 -95 945 -95 1102 c 0
 -95 1127 -94 1152 -91 1177 c 1
 -80 1262 l 2
 -79 1267 -80 1272 -80 1277 c 0
 -80 1308 -93 1327 -129 1343 c 2
 -191 1370 l 2
 -224 1384 -242 1404 -248 1429 c 0
 -250 1437 -251 1449 -251 1462 c 0
 -251 1498 -244 1547 -233 1572 c 1
 -208 1572 l 1
 -200 1551 -183 1536 -155 1526 c 2
 -114 1511 l 2
 -46 1486 -32 1455 -32 1391 c 0
 -32 1359 -35 1318 -37 1266 c 1
 -40 1215 l 1xe8
EndSplineSet
Validated: 1
LCarets2: 1 67 
MultipleSubs2: "Add hairspace before low marked Qof" lamed hairspace
MultipleSubs2: "Add thispace after Lamed subtable" lamed thinspace
Substitution2: "'jalt' Wide Letter Alternatives in Hebrew subtable" lamed.wide
EndChar

StartChar: finalmem
Encoding: 168 1501 75
Width: 1004
GlyphClass: 2
Flags: W
HStem: 0 240<208 781> 814 242<-5.02734 160 228 588.875>
VStem: 43 94<367.805 704.688>
AnchorPoint: "A-69" 556.9 0 basechar 0
AnchorPoint: "A-68" 556.9 0 basechar 0
AnchorPoint: "A-67" 556.9 0 basechar 0
AnchorPoint: "A-66" 556.9 0 basechar 0
AnchorPoint: "A-65" 556.9 0 basechar 0
AnchorPoint: "A-64" 556.9 0 basechar 0
AnchorPoint: "A-63" 556.9 0 basechar 0
AnchorPoint: "A-62" 556.9 0 basechar 0
AnchorPoint: "A-61" 556.9 0 basechar 0
AnchorPoint: "A-59" 76.6504 0 basechar 0
AnchorPoint: "A-55" 841.65 0 basechar 0
AnchorPoint: "A-42" 556.9 0 basechar 0
AnchorPoint: "A-39" 561.15 0 basechar 0
AnchorPoint: "A-36" 561.15 0 basechar 0
AnchorPoint: "A-21" -288.85 0 basechar 0
AnchorPoint: "A-16" 556.9 0 basechar 0
AnchorPoint: "A-15" 556.9 0 basechar 0
AnchorPoint: "A-14" 556.9 0 basechar 0
AnchorPoint: "A-13" 556.9 0 basechar 0
AnchorPoint: "A-12" 556.9 0 basechar 0
AnchorPoint: "A-11" 556.9 0 basechar 0
AnchorPoint: "A-10" 556.9 0 basechar 0
AnchorPoint: "A-9" 556.9 0 basechar 0
AnchorPoint: "A-8" 556.9 0 basechar 0
AnchorPoint: "A-58" 561.15 0 basechar 0
AnchorPoint: "A-41" 467.65 0 basechar 0
AnchorPoint: "A-40" 556.9 0 basechar 0
AnchorPoint: "A-32" 561.15 0 basechar 0
AnchorPoint: "A-31" 76.6504 0 basechar 0
AnchorPoint: "A-30" 561.15 0 basechar 0
AnchorPoint: "A-29" 561.15 0 basechar 0
AnchorPoint: "A-28" 488.9 0 basechar 0
AnchorPoint: "A-27" 561.15 0 basechar 0
AnchorPoint: "A-26" 841.65 0 basechar 0
AnchorPoint: "A-25" 110.65 0 basechar 0
AnchorPoint: "A-24" 561.15 0 basechar 0
AnchorPoint: "A-23" 561.15 0 basechar 0
AnchorPoint: "A-20" 42.6504 0 basechar 0
AnchorPoint: "A-7" 556.9 0 basechar 0
AnchorPoint: "A-6" 556.9 0 basechar 0
AnchorPoint: "A-5" 556.9 0 basechar 0
AnchorPoint: "A-4" 556.9 0 basechar 0
AnchorPoint: "A-3" 569.65 0 basechar 0
AnchorPoint: "A-2" 561.15 0 basechar 0
AnchorPoint: "A-1" 561.15 0 basechar 0
AnchorPoint: "A-0" 561.15 0 basechar 0
LayerCount: 2
Fore
SplineSet
172 0 m 1
 48 537 l 2
 44 553 43 568 43 583 c 0
 43 619 53 654 75 686 c 2
 160 814 l 1
 108 814 l 2
 -16 814 -77 918 -77 1015 c 0
 -77 1056 -67 1094 -46 1124 c 1
 -20 1124 l 1
 1 1077 38 1056 90 1056 c 2
 311 1056 l 2
 464 1056 569 1034 626 989 c 0
 681 944 726 847 761 698 c 2
 922 0 l 1
 172 0 l 1
228 814 m 1
 155 656 l 2
 143 631 137 604 137 573 c 0
 137 551 140 527 146 501 c 2
 208 240 l 1
 781 240 l 1
 727 474 l 2
 693 613 659 708 623 759 c 1
 585 810 525 813 437 814 c 1
 228 814 l 1
EndSplineSet
Validated: 1
LCarets2: 1 83 
MultipleSubs2: "Add hairspace before low marked Qof" finalmem hairspace
Substitution2: "'jalt' Wide Letter Alternatives in Hebrew subtable" finalmem.wide
EndChar

StartChar: mem
Encoding: 169 1502 76
Width: 1094
GlyphClass: 2
Flags: W
HStem: 0 240<440 848>
VStem: 135 82<76.1561 604.842> 848 83<240 489.973>
AnchorPoint: "A-69" 573.75 0 basechar 0
AnchorPoint: "A-68" 573.75 0 basechar 0
AnchorPoint: "A-67" 573.75 0 basechar 0
AnchorPoint: "A-66" 573.75 0 basechar 0
AnchorPoint: "A-65" 573.75 0 basechar 0
AnchorPoint: "A-64" 573.75 0 basechar 0
AnchorPoint: "A-63" 573.75 0 basechar 0
AnchorPoint: "A-62" 573.75 0 basechar 0
AnchorPoint: "A-61" 573.75 0 basechar 0
AnchorPoint: "A-59" 89.25 0 basechar 0
AnchorPoint: "A-55" 905.25 0 basechar 0
AnchorPoint: "A-42" 573.75 0 basechar 0
AnchorPoint: "A-39" 599.25 0 basechar 0
AnchorPoint: "A-36" 599.25 0 basechar 0
AnchorPoint: "A-21" -276.25 0 basechar 0
AnchorPoint: "A-16" 573.75 0 basechar 0
AnchorPoint: "A-15" 573.75 0 basechar 0
AnchorPoint: "A-14" 573.75 0 basechar 0
AnchorPoint: "A-13" 573.75 0 basechar 0
AnchorPoint: "A-12" 573.75 0 basechar 0
AnchorPoint: "A-11" 573.75 0 basechar 0
AnchorPoint: "A-10" 573.75 0 basechar 0
AnchorPoint: "A-9" 573.75 0 basechar 0
AnchorPoint: "A-8" 573.75 0 basechar 0
AnchorPoint: "A-58" 599.25 0 basechar 0
AnchorPoint: "A-41" 556.75 0 basechar 0
AnchorPoint: "A-40" 573.75 0 basechar 0
AnchorPoint: "A-32" 596.941 10 basechar 0
AnchorPoint: "A-31" 599.25 0 basechar 0
AnchorPoint: "A-30" 599.25 0 basechar 0
AnchorPoint: "A-29" 599.25 0 basechar 0
AnchorPoint: "A-28" 501.5 0 basechar 0
AnchorPoint: "A-27" 599.25 0 basechar 0
AnchorPoint: "A-26" 905.25 0 basechar 0
AnchorPoint: "A-25" 191.25 0 basechar 0
AnchorPoint: "A-24" 599.25 0 basechar 0
AnchorPoint: "A-23" 599.25 0 basechar 0
AnchorPoint: "A-20" 123.25 0 basechar 0
AnchorPoint: "A-7" 573.75 0 basechar 0
AnchorPoint: "A-6" 573.75 0 basechar 0
AnchorPoint: "A-5" 573.75 0 basechar 0
AnchorPoint: "A-4" 573.75 0 basechar 0
AnchorPoint: "A-2" 599.25 0 basechar 0
AnchorPoint: "A-1" 599.25 0 basechar 0
AnchorPoint: "A-0" 599.25 0 basechar 0
LayerCount: 2
Fore
SplineSet
508 783 m 2
 346 783 217 664 217 365 c 0
 217 264 231 143 264 0 c 1
 197 0 l 1
 186 34 178 63 173 87 c 0
 148 194 135 288 135 373 c 0
 135 510 169 624 240 729 c 1
 234 814 227 793 130 814 c 0
 42 832 -24 908 -40 979 c 0
 -46 1003 -48 1026 -48 1049 c 0
 -48 1079 -44 1107 -34 1135 c 1
 -7 1135 l 1
 14 1094 46 1071 86 1065 c 2
 150 1056 l 2
 276 1039 253 937 264 886 c 0
 271 859 286 838 310 825 c 1
 394 879 437 948 437 1032 c 0
 437 1044 436 1056 434 1069 c 1
 691 1028 832 759 894 490 c 0
 915 399 927 293 931 171 c 2
 936 0 l 1
 437 0 l 1
 440 240 l 1
 848 240 l 1
 848 245 848 250 848 255 c 0
 848 321 835 376 813 471 c 0
 771 655 650 780 515 783 c 1
 508 783 l 2
EndSplineSet
Validated: 1
LCarets2: 1 89 
MultipleSubs2: "Add hairspace before low marked Qof" mem hairspace
EndChar

StartChar: finalnun
Encoding: 170 1503 77
Width: 459
GlyphClass: 2
Flags: W
HStem: 815 241<-72.0684 134.494>
VStem: 139 56<595.98 892>
AnchorPoint: "A-69" -114.2 0 basechar 0
AnchorPoint: "A-68" -190.7 0 basechar 0
AnchorPoint: "A-67" -301.2 0 basechar 0
AnchorPoint: "A-66" -114.2 0 basechar 0
AnchorPoint: "A-65" -190.7 0 basechar 0
AnchorPoint: "A-64" -301.2 0 basechar 0
AnchorPoint: "A-63" -114.2 0 basechar 0
AnchorPoint: "A-62" -190.7 0 basechar 0
AnchorPoint: "A-61" -301.2 0 basechar 0
AnchorPoint: "A-59" 81.2998 0 basechar 0
AnchorPoint: "A-55" 412.8 0 basechar 0
AnchorPoint: "A-42" -156.7 0 basechar 0
AnchorPoint: "A-39" 319.3 0 basechar 0
AnchorPoint: "A-36" 319.3 0 basechar 0
AnchorPoint: "A-21" -284.2 0 basechar 0
AnchorPoint: "A-16" -284.2 0 basechar 0
AnchorPoint: "A-15" -190.7 0 basechar 0
AnchorPoint: "A-14" -67.4502 0 basechar 0
AnchorPoint: "A-13" -428.7 0 basechar 0
AnchorPoint: "A-12" -309.7 0 basechar 0
AnchorPoint: "A-11" -211.95 0 basechar 0
AnchorPoint: "A-10" -284.2 0 basechar 0
AnchorPoint: "A-9" -190.7 0 basechar 0
AnchorPoint: "A-8" -67.4502 0 basechar 0
AnchorPoint: "A-58" 319.3 0 basechar 0
AnchorPoint: "A-41" 106.8 0 basechar 0
AnchorPoint: "A-40" 21.7998 0 basechar 0
AnchorPoint: "A-32" 319.3 0 basechar 0
AnchorPoint: "A-31" 319.3 0 basechar 0
AnchorPoint: "A-30" 472.3 0 basechar 0
AnchorPoint: "A-29" 523.3 0 basechar 0
AnchorPoint: "A-28" 493.55 0 basechar 0
AnchorPoint: "A-27" 149.3 0 basechar 0
AnchorPoint: "A-26" 412.8 0 basechar 0
AnchorPoint: "A-25" 81.2998 0 basechar 0
AnchorPoint: "A-24" 319.3 0 basechar 0
AnchorPoint: "A-23" 319.3 0 basechar 0
AnchorPoint: "A-20" 21.7998 0 basechar 0
AnchorPoint: "A-7" -173.7 0 basechar 0
AnchorPoint: "A-6" -139.7 0 basechar 0
AnchorPoint: "A-5" -29.2002 0 basechar 0
AnchorPoint: "A-4" 81.2998 0 basechar 0
AnchorPoint: "A-3" 81.2998 0 basechar 0
AnchorPoint: "A-2" 319.3 0 basechar 0
AnchorPoint: "A-1" 319.3 0 basechar 0
AnchorPoint: "A-0" 319.3 0 basechar 0
LayerCount: 2
Fore
SplineSet
118 542 m 1
 114 561 113 578 113 593 c 0
 113 657 139 694 139 741 c 0
 139 749 138 758 136 768 c 0
 129 798 123 814 64 815 c 0
 -69 817 -115 888 -136 977 c 0
 -141 999 -143 1019 -143 1039 c 0
 -143 1075 -135 1108 -118 1137 c 1
 -91 1137 l 1
 -72 1089 -65 1059 -12 1056 c 1
 12 1056 l 1
 116 1050 179 995 203 892 c 0
 206 881 207 869 207 855 c 0
 207 811 195 752 195 679 c 0
 195 623 202 559 224 485 c 1
 388 -88 l 2
 396 -116 411 -171 411 -224 c 0
 411 -278 396 -330 343 -352 c 1
 323 -345 l 1
 118 542 l 1
EndSplineSet
Validated: 1
LCarets2: 1 36 
MultipleSubs2: "Add hairspace before narrowletter subtable subtable" hairspace finalnun
MultipleSubs2: "Add hairspace before low marked Qof" finalnun hairspace
EndChar

StartChar: nun
Encoding: 171 1504 78
Width: 614
GlyphClass: 2
Flags: W
HStem: 0 239<69 354>
VStem: -43 582
AnchorPoint: "A-69" 256.825 0 basechar 0
AnchorPoint: "A-68" 256.825 0 basechar 0
AnchorPoint: "A-67" 256.825 0 basechar 0
AnchorPoint: "A-66" 256.825 0 basechar 0
AnchorPoint: "A-65" 256.825 0 basechar 0
AnchorPoint: "A-64" 256.825 0 basechar 0
AnchorPoint: "A-63" 256.825 0 basechar 0
AnchorPoint: "A-62" 256.825 0 basechar 0
AnchorPoint: "A-61" 256.825 0 basechar 0
AnchorPoint: "A-59" 44.3252 0 basechar 0
AnchorPoint: "A-55" 511.825 0 basechar 0
AnchorPoint: "A-42" 316.325 0 basechar 0
AnchorPoint: "A-39" 367.325 0 basechar 0
AnchorPoint: "A-36" 384.325 0 basechar 0
AnchorPoint: "A-22" -108.675 0 basechar 0
AnchorPoint: "A-21" -299.925 0 basechar 0
AnchorPoint: "A-16" 316.325 0 basechar 0
AnchorPoint: "A-15" 316.325 0 basechar 0
AnchorPoint: "A-14" 316.325 0 basechar 0
AnchorPoint: "A-13" 316.325 0 basechar 0
AnchorPoint: "A-12" 316.325 0 basechar 0
AnchorPoint: "A-11" 316.325 0 basechar 0
AnchorPoint: "A-10" 316.325 0 basechar 0
AnchorPoint: "A-9" 316.325 0 basechar 0
AnchorPoint: "A-8" 316.325 0 basechar 0
AnchorPoint: "A-58" 384.325 0 basechar 0
AnchorPoint: "A-41" 112.325 0 basechar 0
AnchorPoint: "A-40" 316.325 0 basechar 0
AnchorPoint: "A-32" 384.325 0 basechar 0
AnchorPoint: "A-31" 384.325 0 basechar 0
AnchorPoint: "A-30" 511.825 0 basechar 0
AnchorPoint: "A-29" 528.825 0 basechar 0
AnchorPoint: "A-28" 456.575 0 basechar 0
AnchorPoint: "A-27" 265.325 0 basechar 0
AnchorPoint: "A-26" 511.825 0 basechar 0
AnchorPoint: "A-25" 146.325 0 basechar 0
AnchorPoint: "A-24" 384.325 0 basechar 0
AnchorPoint: "A-23" 367.325 0 basechar 0
AnchorPoint: "A-20" 95.3252 0 basechar 0
AnchorPoint: "A-7" 316.325 0 basechar 0
AnchorPoint: "A-6" 316.325 0 basechar 0
AnchorPoint: "A-5" 316.325 0 basechar 0
AnchorPoint: "A-4" 316.325 0 basechar 0
AnchorPoint: "A-2" 367.325 0 basechar 0
AnchorPoint: "A-1" 367.325 0 basechar 0
AnchorPoint: "A-0" 367.325 0 basechar 0
LayerCount: 2
Fore
SplineSet
358 559 m 0
 401 374 494 237 519 130 c 0
 531 75 539 33 539 5 c 0
 539 3 539 2 539 0 c 1
 69 0 l 1
 51 239 l 1
 354 240 l 1
 320 372 l 1
 314 398 l 2
 290 504 284 611 256 730 c 1
 244 776 224 810 164 811 c 0
 13 813 -24 932 -36 984 c 0
 -41 1004 -43 1023 -43 1041 c 0
 -43 1079 -32 1113 -11 1140 c 1
 16 1140 l 1
 34 1096 44 1066 98 1062 c 1
 143 1057 l 2
 379 1031 302 802 358 559 c 0
EndSplineSet
Validated: 1
LCarets2: 1 47 
MultipleSubs2: "Add hairspace before narrowletter subtable subtable" hairspace nun
MultipleSubs2: "Add hairspace before low marked Qof" nun hairspace
EndChar

StartChar: samekh
Encoding: 172 1505 79
Width: 1038
GlyphClass: 2
Flags: W
HStem: -22 226<384.765 723.5> 814 242<20.584 99 144.908 557.712>
VStem: 53 79<448.408 800.645> 772 104<253.583 557.872>
AnchorPoint: "A-69" 581.7 0 basechar 0
AnchorPoint: "A-68" 581.7 0 basechar 0
AnchorPoint: "A-67" 581.7 0 basechar 0
AnchorPoint: "A-66" 581.7 0 basechar 0
AnchorPoint: "A-65" 581.7 0 basechar 0
AnchorPoint: "A-64" 581.7 0 basechar 0
AnchorPoint: "A-63" 581.7 0 basechar 0
AnchorPoint: "A-62" 581.7 0 basechar 0
AnchorPoint: "A-61" 581.7 0 basechar 0
AnchorPoint: "A-59" 88.7002 0 basechar 0
AnchorPoint: "A-55" 870.7 0 basechar 0
AnchorPoint: "A-42" 581.7 0 basechar 0
AnchorPoint: "A-39" 573.2 0 basechar 0
AnchorPoint: "A-36" 581.7 0 basechar 0
AnchorPoint: "A-21" -268.3 0 basechar 0
AnchorPoint: "A-16" 581.7 0 basechar 0
AnchorPoint: "A-15" 581.7 0 basechar 0
AnchorPoint: "A-14" 581.7 0 basechar 0
AnchorPoint: "A-13" 581.7 0 basechar 0
AnchorPoint: "A-12" 581.7 0 basechar 0
AnchorPoint: "A-11" 581.7 0 basechar 0
AnchorPoint: "A-10" 581.7 0 basechar 0
AnchorPoint: "A-9" 581.7 0 basechar 0
AnchorPoint: "A-8" 581.7 0 basechar 0
AnchorPoint: "A-58" 573.2 0 basechar 0
AnchorPoint: "A-41" 513.7 0 basechar 0
AnchorPoint: "A-40" 581.7 0 basechar 0
AnchorPoint: "A-32" 573.2 0 basechar 0
AnchorPoint: "A-31" 573.2 0 basechar 0
AnchorPoint: "A-30" 573.2 0 basechar 0
AnchorPoint: "A-29" 573.2 0 basechar 0
AnchorPoint: "A-28" 500.95 0 basechar 0
AnchorPoint: "A-27" 573.2 0 basechar 0
AnchorPoint: "A-26" 870.7 0 basechar 0
AnchorPoint: "A-25" 139.7 0 basechar 0
AnchorPoint: "A-24" 581.7 0 basechar 0
AnchorPoint: "A-23" 573.2 0 basechar 0
AnchorPoint: "A-20" 88.7002 0 basechar 0
AnchorPoint: "A-7" 581.7 0 basechar 0
AnchorPoint: "A-6" 581.7 0 basechar 0
AnchorPoint: "A-5" 581.7 0 basechar 0
AnchorPoint: "A-4" 581.7 0 basechar 0
AnchorPoint: "A-2" 573.2 0 basechar 0
AnchorPoint: "A-1" 573.2 0 basechar 0
AnchorPoint: "A-0" 573.2 0 basechar 0
LayerCount: 2
Fore
SplineSet
838 537 m 0
 862 435 876 342 876 263 c 0
 876 87 805 -22 606 -22 c 2
 569 -22 l 2
 321 -22 129 204 75 436 c 0
 60 502 53 559 53 609 c 0
 53 687 70 751 99 817 c 1
 30 817 -53 913 -53 1019 c 0
 -53 1055 -44 1092 -21 1126 c 1
 5 1126 l 1
 27 1080 65 1056 120 1056 c 2
 364 1056 l 2
 577 1056 744 945 838 537 c 0
756 502 m 0
 706 719 644 814 446 814 c 2
 159 814 l 1
 140 763 132 715 132 663 c 0
 132 618 138 571 151 517 c 0
 202 294 345 204 491 204 c 2
 579 204 l 2
 707 204 772 259 772 381 c 0
 772 416 767 456 756 502 c 0
EndSplineSet
Validated: 1
LCarets2: 1 87 
MultipleSubs2: "Add hairspace before low marked Qof" samekh hairspace
EndChar

StartChar: ayin
Encoding: 173 1506 80
Width: 920
GlyphClass: 2
Flags: W
HStem: 814 238<-68.7759 47.4733 86 125.52>
VStem: 519 82<255.816 673.786>
AnchorPoint: "A-69" 451.126 0 basechar 0
AnchorPoint: "A-68" 451.126 0 basechar 0
AnchorPoint: "A-67" 451.126 0 basechar 0
AnchorPoint: "A-66" 451.126 0 basechar 0
AnchorPoint: "A-65" 451.126 0 basechar 0
AnchorPoint: "A-64" 451.126 0 basechar 0
AnchorPoint: "A-63" 451.126 0 basechar 0
AnchorPoint: "A-62" 451.126 0 basechar 0
AnchorPoint: "A-61" 451.126 0 basechar 0
AnchorPoint: "A-59" 17.626 0 basechar 0
AnchorPoint: "A-55" 808.126 0 basechar 0
AnchorPoint: "A-42" 451.126 0 basechar 0
AnchorPoint: "A-39" 476.626 0 basechar 0
AnchorPoint: "A-36" 476.626 0 basechar 0
AnchorPoint: "A-21" -347.874 0 basechar 0
AnchorPoint: "A-16" 485.126 0 basechar 0
AnchorPoint: "A-15" 451.126 0 basechar 0
AnchorPoint: "A-14" 451.126 0 basechar 0
AnchorPoint: "A-13" 485.126 0 basechar 0
AnchorPoint: "A-12" 451.126 0 basechar 0
AnchorPoint: "A-11" 451.126 0 basechar 0
AnchorPoint: "A-10" 485.126 0 basechar 0
AnchorPoint: "A-9" 451.126 0 basechar 0
AnchorPoint: "A-8" 451.126 0 basechar 0
AnchorPoint: "A-58" 476.626 0 basechar 0
AnchorPoint: "A-41" 315.126 0 basechar 0
AnchorPoint: "A-40" 451.126 0 basechar 0
AnchorPoint: "A-32" 476.626 0 basechar 0
AnchorPoint: "A-31" 476.626 0 basechar 0
AnchorPoint: "A-30" 476.626 0 basechar 0
AnchorPoint: "A-29" 476.626 0 basechar 0
AnchorPoint: "A-28" 429.876 0 basechar 0
AnchorPoint: "A-27" 476.626 0 basechar 0
AnchorPoint: "A-26" 808.126 0 basechar 0
AnchorPoint: "A-25" 77.126 0 basechar 0
AnchorPoint: "A-24" 476.626 0 basechar 0
AnchorPoint: "A-23" 476.626 0 basechar 0
AnchorPoint: "A-20" 0.625977 0 basechar 0
AnchorPoint: "A-7" 417.126 0 basechar 0
AnchorPoint: "A-6" 485.126 0 basechar 0
AnchorPoint: "A-5" 451.126 0 basechar 0
AnchorPoint: "A-4" 451.126 0 basechar 0
AnchorPoint: "A-3" 515 40 basechar 0
AnchorPoint: "A-2" 476.626 0 basechar 0
AnchorPoint: "A-1" 476.626 0 basechar 0
AnchorPoint: "A-0" 476.626 0 basechar 0
LayerCount: 2
Fore
SplineSet
628 282 m 0
 634 255 637 229 637 206 c 0
 637 92 562 25 413 7 c 2
 78 -33 l 1
 67 202 l 1
 315 230 l 1
 284 365 231 426 187 456 c 0
 111 508 61 545 45 814 c 1
 -64 833 -128 893 -145 967 c 0
 -151 994 -155 1021 -155 1048 c 0
 -155 1076 -151 1104 -143 1131 c 1
 -116 1131 l 1
 -95 1086 -60 1057 -12 1052 c 1
 35 1052 l 2
 112 1052 186 961 186 862 c 0
 186 830 179 798 162 767 c 1
 145 767 l 1
 128 805 117 814 86 814 c 1
 120 665 128 652 192 615 c 1
 274 569 297 551 323 438 c 2
 369 240 l 1
 429 248 l 1
 507 260 519 245 519 379 c 0
 519 380 519 382 519 383 c 0
 519 534 565 659 565 726 c 0
 565 733 564 740 563 746 c 0
 554 784 532 807 496 814 c 0
 379 840 319 927 319 1029 c 0
 319 1062 325 1096 338 1131 c 1
 365 1131 l 1
 377 1104 394 1084 412 1073 c 0
 485 1032 620 1067 650 937 c 0
 654 921 655 905 655 889 c 0
 655 792 601 684 601 507 c 0
 601 442 608 368 628 282 c 0
EndSplineSet
Validated: 1
LCarets2: 1 78 
Substitution2: "Automatic Alternate Ayin Subtable" ayin.alt
MultipleSubs2: "Add hairspace before low marked Qof" ayin hairspace
Substitution2: "'salt' Stylistic Alternatives in Hebrew subtable" ayin.alt
EndChar

StartChar: finalpe
Encoding: 174 1507 81
Width: 886
GlyphClass: 2
Flags: W
HStem: 814 242<103.544 486.612>
VStem: 18 70<544.5 763.842> 808 91<-340.139 -279.828>
AnchorPoint: "A-69" 396.35 0 basechar 0
AnchorPoint: "A-68" 302.85 0 basechar 0
AnchorPoint: "A-67" 209.35 0 basechar 0
AnchorPoint: "A-66" 396.35 0 basechar 0
AnchorPoint: "A-65" 302.85 0 basechar 0
AnchorPoint: "A-64" 209.35 0 basechar 0
AnchorPoint: "A-63" 396.35 0 basechar 0
AnchorPoint: "A-62" 302.85 0 basechar 0
AnchorPoint: "A-61" 209.35 0 basechar 0
AnchorPoint: "A-59" 107.35 0 basechar 0
AnchorPoint: "A-55" 744.85 0 basechar 0
AnchorPoint: "A-42" 328.35 0 basechar 0
AnchorPoint: "A-39" 532.35 0 basechar 0
AnchorPoint: "A-36" 532.35 0 basechar 0
AnchorPoint: "A-21" -258.15 0 basechar 0
AnchorPoint: "A-16" 183.85 0 basechar 0
AnchorPoint: "A-15" 311.35 0 basechar 0
AnchorPoint: "A-14" 421.85 0 basechar 0
AnchorPoint: "A-13" 73.3496 0 basechar 0
AnchorPoint: "A-12" 175.35 0 basechar 0
AnchorPoint: "A-11" 294.35 0 basechar 0
AnchorPoint: "A-10" 183.85 0 basechar 0
AnchorPoint: "A-9" 311.35 0 basechar 0
AnchorPoint: "A-8" 421.85 0 basechar 0
AnchorPoint: "A-58" 532.35 0 basechar 0
AnchorPoint: "A-41" 591.85 0 basechar 0
AnchorPoint: "A-40" 498.35 0 basechar 0
AnchorPoint: "A-32" 532.35 0 basechar 0
AnchorPoint: "A-31" 532.35 0 basechar 0
AnchorPoint: "A-30" 566.35 0 basechar 0
AnchorPoint: "A-29" 583.35 0 basechar 0
AnchorPoint: "A-28" 519.6 0 basechar 0
AnchorPoint: "A-27" 481.35 0 basechar 0
AnchorPoint: "A-26" 744.85 0 basechar 0
AnchorPoint: "A-25" 183.85 0 basechar 0
AnchorPoint: "A-24" 532.35 0 basechar 0
AnchorPoint: "A-23" 532.35 0 basechar 0
AnchorPoint: "A-20" 107.35 0 basechar 0
AnchorPoint: "A-7" 328.35 0 basechar 0
AnchorPoint: "A-6" 379.35 0 basechar 0
AnchorPoint: "A-5" 472.85 0 basechar 0
AnchorPoint: "A-4" 498.35 0 basechar 0
AnchorPoint: "A-2" 532.35 0 basechar 0
AnchorPoint: "A-1" 532.35 0 basechar 0
AnchorPoint: "A-0" 532.35 0 basechar 0
LayerCount: 2
Fore
SplineSet
93 346 m 1
 36 425 18 507 18 582 c 0
 18 687 55 775 74 814 c 1
 -2 828 -59 923 -59 1017 c 0
 -59 1055 -49 1094 -27 1126 c 1
 0 1126 l 1
 23 1080 59 1056 113 1056 c 2
 292 1056 l 2
 544 1056 586 934 644 725 c 2
 768 275 l 2
 819 88 859 -71 889 -201 c 0
 896 -230 899 -253 899 -271 c 0
 899 -319 875 -332 833 -350 c 1
 808 -342 l 1
 615 495 l 2
 546 793 481 814 388 814 c 2
 121 814 l 1
 102 765 88 734 88 701 c 0
 88 691 89 681 92 671 c 0
 106 611 133 596 221 579 c 1
 282 569 317 541 327 496 c 2
 343 428 l 2
 349 403 341 390 318 390 c 0
 292 390 263 399 228 399 c 0
 180 399 146 381 126 346 c 1
 93 346 l 1
EndSplineSet
Validated: 1
LCarets2: 1 73 
MultipleSubs2: "Add hairspace before low marked Qof" finalpe hairspace
EndChar

StartChar: pe
Encoding: 175 1508 82
Width: 912
GlyphClass: 2
Flags: W
HStem: 0 240<113 616.537> 814 242<55.8069 431.941>
VStem: -36 85<659.711 801.552> 654 89<222 552.946>
AnchorPoint: "A-69" 431.65 0 basechar 0
AnchorPoint: "A-68" 431.65 0 basechar 0
AnchorPoint: "A-67" 431.65 0 basechar 0
AnchorPoint: "A-66" 431.65 0 basechar 0
AnchorPoint: "A-65" 431.65 0 basechar 0
AnchorPoint: "A-64" 431.65 0 basechar 0
AnchorPoint: "A-63" 431.65 0 basechar 0
AnchorPoint: "A-62" 431.65 0 basechar 0
AnchorPoint: "A-61" 431.65 0 basechar 0
AnchorPoint: "A-59" 15.1504 0 basechar 0
AnchorPoint: "A-55" 729.15 0 basechar 0
AnchorPoint: "A-42" 431.65 0 basechar 0
AnchorPoint: "A-39" 499.65 0 basechar 0
AnchorPoint: "A-36" 500.5 0 basechar 0
AnchorPoint: "A-21" -350.35 0 basechar 0
AnchorPoint: "A-16" 440.15 0 basechar 0
AnchorPoint: "A-15" 440.15 0 basechar 0
AnchorPoint: "A-14" 440.15 0 basechar 0
AnchorPoint: "A-13" 440.15 0 basechar 0
AnchorPoint: "A-12" 440.15 0 basechar 0
AnchorPoint: "A-11" 440.15 0 basechar 0
AnchorPoint: "A-10" 440.15 0 basechar 0
AnchorPoint: "A-9" 440.15 0 basechar 0
AnchorPoint: "A-8" 440.15 0 basechar 0
AnchorPoint: "A-58" 499.65 0 basechar 0
AnchorPoint: "A-41" 363.65 0 basechar 0
AnchorPoint: "A-40" 431.65 0 basechar 0
AnchorPoint: "A-32" 499.65 0 basechar 0
AnchorPoint: "A-31" 499.65 0 basechar 0
AnchorPoint: "A-30" 542.15 0 basechar 0
AnchorPoint: "A-29" 559.15 0 basechar 0
AnchorPoint: "A-28" 427.4 0 basechar 0
AnchorPoint: "A-27" 440.15 0 basechar 0
AnchorPoint: "A-26" 729.15 0 basechar 0
AnchorPoint: "A-25" 142.65 0 basechar 0
AnchorPoint: "A-24" 500.5 0 basechar 0
AnchorPoint: "A-23" 499.65 0 basechar 0
AnchorPoint: "A-20" 83.1504 0 basechar 0
AnchorPoint: "A-7" 440.15 0 basechar 0
AnchorPoint: "A-6" 440.15 0 basechar 0
AnchorPoint: "A-5" 440.15 0 basechar 0
AnchorPoint: "A-4" 440.15 0 basechar 0
AnchorPoint: "A-2" 499.65 0 basechar 0
AnchorPoint: "A-1" 499.65 0 basechar 0
AnchorPoint: "A-0" 499.65 0 basechar 0
LayerCount: 2
Fore
SplineSet
52 414 m 1
 4 486 -36 578 -36 665 c 0
 -36 719 -21 770 16 814 c 1
 -36 859 l 2
 -56 875 -91 945 -91 1020 c 0
 -91 1056 -83 1093 -61 1126 c 1
 -36 1126 l 1
 -14 1079 26 1056 81 1056 c 2
 271 1056 l 2
 480 1056 624 883 704 537 c 0
 730 424 743 331 743 258 c 0
 743 186 730 133 705 100 c 0
 653 33 559 0 420 0 c 2
 110 0 l 1
 113 240 l 1
 443 240 l 2
 560 240 654 255 654 391 c 0
 654 422 649 459 639 503 c 0
 574 784 485 814 355 814 c 2
 93 814 l 1
 64 793 49 767 49 736 c 0
 49 727 51 718 53 708 c 0
 77 600 249 683 276 566 c 2
 289 511 l 2
 294 490 299 459 276 459 c 0
 258 459 204 467 186 467 c 0
 137 467 103 449 84 414 c 1
 52 414 l 1
EndSplineSet
Validated: 1
LCarets2: 1 75 
MultipleSubs2: "Add hairspace before low marked Qof" pe hairspace
EndChar

StartChar: finaltsadi
Encoding: 176 1509 83
Width: 990
GlyphClass: 2
Flags: W
VStem: 162 63<505.337 793.362>
AnchorPoint: "A-69" 569.75 0 basechar 0
AnchorPoint: "A-68" 612.25 0 basechar 0
AnchorPoint: "A-67" 612.25 0 basechar 0
AnchorPoint: "A-66" 569.75 0 basechar 0
AnchorPoint: "A-65" 612.25 0 basechar 0
AnchorPoint: "A-64" 612.25 0 basechar 0
AnchorPoint: "A-63" 569.75 0 basechar 0
AnchorPoint: "A-62" 612.25 0 basechar 0
AnchorPoint: "A-61" 612.25 0 basechar 0
AnchorPoint: "A-59" 119.25 0 basechar 0
AnchorPoint: "A-55" 816.25 0 basechar 0
AnchorPoint: "A-42" 697.25 0 basechar 0
AnchorPoint: "A-39" 527.25 0 basechar 0
AnchorPoint: "A-36" 527.25 0 basechar 0
AnchorPoint: "A-21" -246.25 0 basechar 0
AnchorPoint: "A-16" 875.75 0 basechar 0
AnchorPoint: "A-15" 782.25 0 basechar 0
AnchorPoint: "A-14" 663.25 0 basechar 0
AnchorPoint: "A-13" 875.75 0 basechar 0
AnchorPoint: "A-12" 782.25 0 basechar 0
AnchorPoint: "A-11" 663.25 0 basechar 0
AnchorPoint: "A-10" 875.75 0 basechar 0
AnchorPoint: "A-9" 782.25 0 basechar 0
AnchorPoint: "A-8" 663.25 0 basechar 0
AnchorPoint: "A-58" 527.25 0 basechar 0
AnchorPoint: "A-41" 433.75 0 basechar 0
AnchorPoint: "A-40" 671.75 0 basechar 0
AnchorPoint: "A-32" 527.25 0 basechar 0
AnchorPoint: "A-31" 527.25 0 basechar 0
AnchorPoint: "A-30" 527.25 0 basechar 0
AnchorPoint: "A-29" 527.25 0 basechar 0
AnchorPoint: "A-28" 531.5 0 basechar 0
AnchorPoint: "A-27" 493.25 0 basechar 0
AnchorPoint: "A-26" 816.25 0 basechar 0
AnchorPoint: "A-25" 119.25 0 basechar 0
AnchorPoint: "A-24" 527.25 0 basechar 0
AnchorPoint: "A-23" 527.25 0 basechar 0
AnchorPoint: "A-20" 59.75 0 basechar 0
AnchorPoint: "A-7" 858.75 0 basechar 0
AnchorPoint: "A-6" 807.75 0 basechar 0
AnchorPoint: "A-5" 705.75 0 basechar 0
AnchorPoint: "A-4" 612.25 0 basechar 0
AnchorPoint: "A-3" 144.75 0 basechar 0
AnchorPoint: "A-2" 527.25 0 basechar 0
AnchorPoint: "A-1" 527.25 0 basechar 0
AnchorPoint: "A-0" 527.25 0 basechar 0
LayerCount: 2
Fore
SplineSet
713 754 m 1
 696 754 l 1
 679 792 666 798 629 798 c 1
 589 761 559 733 518 678 c 2
 450 587 l 2
 365 473 336 384 336 300 c 0
 336 163 415 39 461 -162 c 0
 468 -191 471 -217 471 -240 c 0
 471 -298 449 -337 405 -356 c 1
 380 -348 l 1
 169 475 l 1
 164 497 162 520 162 543 c 0
 162 597 172 652 172 698 c 0
 172 748 160 788 111 806 c 1
 -23 830 -101 873 -124 973 c 0
 -129 996 -132 1019 -132 1041 c 0
 -132 1073 -126 1103 -115 1133 c 1
 -88 1133 l 1
 -67 1091 -36 1068 9 1063 c 2
 74 1056 l 1
 170 1047 228 1000 248 916 c 0
 251 902 252 888 252 872 c 0
 252 798 225 703 225 615 c 0
 225 591 227 567 232 545 c 1
 255 462 l 1
 271 462 l 1
 370 619 461 723 562 810 c 1
 453 827 400 893 381 973 c 0
 376 996 374 1018 374 1040 c 0
 374 1072 379 1103 390 1133 c 1
 416 1133 l 1
 431 1092 464 1068 517 1063 c 2
 581 1056 l 1
 620 1048 707 1042 734 924 c 0
 738 906 740 886 740 867 c 0
 740 828 732 788 713 754 c 1
EndSplineSet
Validated: 1
LCarets2: 1 71 
MultipleSubs2: "Add hairspace before low marked Qof" finaltsadi hairspace
EndChar

StartChar: tsadi
Encoding: 177 1510 84
Width: 968
GlyphClass: 2
Flags: W
HStem: 0 240<205 644>
AnchorPoint: "A-69" 530.625 0 basechar 0
AnchorPoint: "A-68" 530.625 0 basechar 0
AnchorPoint: "A-67" 530.625 0 basechar 0
AnchorPoint: "A-66" 530.625 0 basechar 0
AnchorPoint: "A-65" 530.625 0 basechar 0
AnchorPoint: "A-64" 530.625 0 basechar 0
AnchorPoint: "A-63" 530.625 0 basechar 0
AnchorPoint: "A-62" 530.625 0 basechar 0
AnchorPoint: "A-61" 530.625 0 basechar 0
AnchorPoint: "A-59" 139.625 0 basechar 0
AnchorPoint: "A-55" 862.125 0 basechar 0
AnchorPoint: "A-42" 530.625 0 basechar 0
AnchorPoint: "A-39" 564.625 0 basechar 0
AnchorPoint: "A-36" 564.625 0 basechar 0
AnchorPoint: "A-21" -225.875 0 basechar 0
AnchorPoint: "A-16" 530.625 0 basechar 0
AnchorPoint: "A-15" 530.625 0 basechar 0
AnchorPoint: "A-14" 530.625 0 basechar 0
AnchorPoint: "A-13" 530.625 0 basechar 0
AnchorPoint: "A-12" 530.625 0 basechar 0
AnchorPoint: "A-11" 530.625 0 basechar 0
AnchorPoint: "A-10" 530.625 0 basechar 0
AnchorPoint: "A-9" 530.625 0 basechar 0
AnchorPoint: "A-8" 530.625 0 basechar 0
AnchorPoint: "A-58" 564.625 0 basechar 0
AnchorPoint: "A-41" 411.625 0 basechar 0
AnchorPoint: "A-40" 530.625 0 basechar 0
AnchorPoint: "A-32" 564.625 0 basechar 0
AnchorPoint: "A-31" 564.625 0 basechar 0
AnchorPoint: "A-30" 564.625 0 basechar 0
AnchorPoint: "A-29" 581.625 0 basechar 0
AnchorPoint: "A-28" 551.875 0 basechar 0
AnchorPoint: "A-27" 530.625 0 basechar 0
AnchorPoint: "A-26" 862.125 0 basechar 0
AnchorPoint: "A-25" 173.625 0 basechar 0
AnchorPoint: "A-24" 564.625 0 basechar 0
AnchorPoint: "A-23" 564.625 0 basechar 0
AnchorPoint: "A-20" 88.625 0 basechar 0
AnchorPoint: "A-7" 530.625 0 basechar 0
AnchorPoint: "A-6" 530.625 0 basechar 0
AnchorPoint: "A-5" 530.625 0 basechar 0
AnchorPoint: "A-4" 530.625 0 basechar 0
AnchorPoint: "A-2" 564.625 0 basechar 0
AnchorPoint: "A-1" 564.625 0 basechar 0
AnchorPoint: "A-0" 564.625 0 basechar 0
LayerCount: 2
Fore
SplineSet
85 814 m 0
 -18 814 -78 884 -98 971 c 0
 -104 998 -108 1024 -108 1048 c 0
 -108 1079 -102 1108 -92 1135 c 1
 -65 1135 l 1
 -43 1086 -9 1061 35 1058 c 2
 70 1056 l 1
 167 1049 200 1020 223 920 c 0
 250 799 223 681 336 601 c 2
 449 522 l 1
 467 649 488 724 530 806 c 1
 424 828 373 937 373 1044 c 0
 373 1075 378 1106 386 1135 c 1
 414 1135 l 1
 431 1088 466 1063 520 1058 c 1
 576 1054 l 2
 661 1048 720 947 720 847 c 0
 720 810 712 773 694 741 c 1
 677 741 l 1
 662 775 654 799 614 799 c 0
 609 799 604 799 599 798 c 1
 580 776 535 697 535 604 c 0
 535 528 566 442 668 371 c 2
 827 261 l 1
 830 0 l 1
 205 0 l 1
 192 240 l 1
 644 240 l 1
 310 468 l 2
 242 514 227 557 221 583 c 2
 193 727 l 1
 180 783 162 814 85 814 c 0
EndSplineSet
Validated: 1
LCarets2: 1 75 
MultipleSubs2: "Add hairspace before low marked Qof" tsadi hairspace
EndChar

StartChar: kof
Encoding: 178 1511 85
Width: 997
GlyphClass: 2
Flags: W
HStem: -345 21G<282 323> 814 242<8.72852 625.252>
VStem: 282 92<-327.309 -276.733> 348 178<10.7305 167.42> 348 151<16.0709 233.659> 709 88<470.397 754.164>
AnchorPoint: "A-69" 516.825 0 basechar 0
AnchorPoint: "A-68" 516.825 0 basechar 0
AnchorPoint: "A-67" 516.825 0 basechar 0
AnchorPoint: "A-66" 516.825 0 basechar 0
AnchorPoint: "A-65" 516.825 0 basechar 0
AnchorPoint: "A-64" 516.825 0 basechar 0
AnchorPoint: "A-63" 516.825 0 basechar 0
AnchorPoint: "A-62" 516.825 0 basechar 0
AnchorPoint: "A-61" 516.825 0 basechar 0
AnchorPoint: "A-59" 57.8252 0 basechar 0
AnchorPoint: "A-55" 839.825 0 basechar 0
AnchorPoint: "A-42" 712.325 0 basechar 0
AnchorPoint: "A-39" 542.325 0 basechar 0
AnchorPoint: "A-36" 542.325 0 basechar 0
AnchorPoint: "A-21" -307.675 0 basechar 0
AnchorPoint: "A-16" 746.325 0 basechar 0
AnchorPoint: "A-15" 652.825 0 basechar 0
AnchorPoint: "A-14" 550.825 0 basechar 0
AnchorPoint: "A-13" 746.325 0 basechar 0
AnchorPoint: "A-12" 652.825 0 basechar 0
AnchorPoint: "A-11" 550.825 0 basechar 0
AnchorPoint: "A-10" 754.825 0 basechar 0
AnchorPoint: "A-9" 746.325 0 basechar 0
AnchorPoint: "A-8" 686.825 0 basechar 0
AnchorPoint: "A-58" 542.325 0 basechar 0
AnchorPoint: "A-41" 397.825 0 basechar 0
AnchorPoint: "A-40" 567.825 0 basechar 0
AnchorPoint: "A-32" 542.325 0 basechar 0
AnchorPoint: "A-31" 542.325 0 basechar 0
AnchorPoint: "A-30" 542.325 0 basechar 0
AnchorPoint: "A-29" 542.325 0 basechar 0
AnchorPoint: "A-28" 470.075 0 basechar 0
AnchorPoint: "A-27" 542.325 0 basechar 0
AnchorPoint: "A-26" 839.825 0 basechar 0
AnchorPoint: "A-25" 100.325 0 basechar 0
AnchorPoint: "A-24" 542.325 0 basechar 0
AnchorPoint: "A-23" 542.325 0 basechar 0
AnchorPoint: "A-20" 40.8252 0 basechar 0
AnchorPoint: "A-7" 746.325 0 basechar 0
AnchorPoint: "A-6" 695.325 0 basechar 0
AnchorPoint: "A-5" 618.825 0 basechar 0
AnchorPoint: "A-4" 516.825 0 basechar 0
AnchorPoint: "A-2" 542.325 0 basechar 0
AnchorPoint: "A-1" 542.325 0 basechar 0
AnchorPoint: "A-0" 542.325 0 basechar 0
LayerCount: 2
Fore
SplineSet
448 1056 m 2xd4
 632 1056 713 968 756 780 c 2
 778 683 l 2
 791 629 797 587 797 552 c 0
 797 489 776 450 734 416 c 1
 548 270 l 1
 511 241 499 206 499 170 c 0xcc
 499 115 526 57 526 20 c 0
 526 -6 514 -22 471 -22 c 0
 430 -22 365 17 353 69 c 0
 349 84 348 99 348 113 c 0
 348 202 415 271 500 338 c 2
 661 466 l 2
 693 492 709 526 709 571 c 0
 709 587 707 604 703 623 c 2
 687 695 l 2
 664 791 625 814 493 814 c 2
 121 814 l 2
 -2 814 -63 918 -63 1016 c 0
 -63 1056 -53 1095 -33 1126 c 1
 -7 1126 l 1
 14 1080 53 1056 109 1056 c 2
 448 1056 l 2xd4
305 -345 m 1
 282 -339 l 1
 84 521 l 2
 80 536 79 551 79 565 c 0
 79 605 93 640 121 671 c 1
 156 677 l 1
 374 -267 l 2
 374 -268 374 -270 374 -271 c 0xe4
 374 -294 341 -320 305 -345 c 1
EndSplineSet
Validated: 1
LCarets2: 1 88 
MultipleSubs2: "Add hairspace before low marked Qof" kof hairspace
EndChar

StartChar: resh
Encoding: 179 1512 86
Width: 883
GlyphClass: 2
Flags: W
HStem: 814 242<-58.832 489.818>
AnchorPoint: "A-69" 660.2 0 basechar 0
AnchorPoint: "A-68" 575.2 0 basechar 0
AnchorPoint: "A-67" 490.2 0 basechar 0
AnchorPoint: "A-66" 660.2 0 basechar 0
AnchorPoint: "A-65" 575.2 0 basechar 0
AnchorPoint: "A-64" 490.2 0 basechar 0
AnchorPoint: "A-63" 660.2 0 basechar 0
AnchorPoint: "A-62" 575.2 0 basechar 0
AnchorPoint: "A-61" 490.2 0 basechar 0
AnchorPoint: "A-59" 73.7002 0 basechar 0
AnchorPoint: "A-55" 736.7 0 basechar 0
AnchorPoint: "A-42" 583.7 0 basechar 0
AnchorPoint: "A-39" 456.2 0 basechar 0
AnchorPoint: "A-36" 456.2 0 basechar 0
AnchorPoint: "A-21" -291.8 0 basechar 0
AnchorPoint: "A-19" 507.2 0 basechar 0
AnchorPoint: "A-18" 583.7 0 basechar 0
AnchorPoint: "A-17" 626.2 0 basechar 0
AnchorPoint: "A-16" 507.2 0 basechar 0
AnchorPoint: "A-15" 583.7 0 basechar 0
AnchorPoint: "A-14" 626.2 0 basechar 0
AnchorPoint: "A-13" 481.7 0 basechar 0
AnchorPoint: "A-12" 558.2 0 basechar 0
AnchorPoint: "A-11" 600.7 0 basechar 0
AnchorPoint: "A-10" 507.2 0 basechar 0
AnchorPoint: "A-9" 583.7 0 basechar 0
AnchorPoint: "A-8" 626.2 0 basechar 0
AnchorPoint: "A-58" 456.2 0 basechar 0
AnchorPoint: "A-41" 456.2 0 basechar 0
AnchorPoint: "A-40" 668.7 0 basechar 0
AnchorPoint: "A-32" 456.2 0 basechar 0
AnchorPoint: "A-31" 456.2 0 basechar 0
AnchorPoint: "A-30" 456.2 0 basechar 0
AnchorPoint: "A-29" 456.2 0 basechar 0
AnchorPoint: "A-28" 485.95 0 basechar 0
AnchorPoint: "A-27" 456.2 0 basechar 0
AnchorPoint: "A-26" 736.7 0 basechar 0
AnchorPoint: "A-25" 73.7002 0 basechar 0
AnchorPoint: "A-24" 456.2 0 basechar 0
AnchorPoint: "A-23" 456.2 0 basechar 0
AnchorPoint: "A-20" -2.7998 0 basechar 0
AnchorPoint: "A-7" 545.45 0 basechar 0
AnchorPoint: "A-6" 600.7 0 basechar 0
AnchorPoint: "A-5" 719.7 0 basechar 0
AnchorPoint: "A-4" 753.7 0 basechar 0
AnchorPoint: "A-2" 456.2 0 basechar 0
AnchorPoint: "A-1" 456.2 0 basechar 0
AnchorPoint: "A-0" 456.2 0 basechar 0
LayerCount: 2
Fore
SplineSet
761 -19 m 1
 739 -12 l 1
 627 474 l 2
 577 688 553 742 460 787 c 0
 424 805 379 814 328 814 c 2
 53 814 l 2
 -69 814 -131 917 -131 1016 c 0
 -131 1056 -121 1095 -101 1126 c 1
 -75 1126 l 1
 -53 1080 -15 1056 41 1056 c 2
 216 1056 l 2
 369 1056 474 1034 530 989 c 1
 586 945 631 848 666 698 c 2
 809 80 l 2
 811 72 812 65 812 58 c 0
 812 27 795 1 761 -19 c 1
EndSplineSet
Validated: 1
LCarets2: 1 72 
MultipleSubs2: "Add hairspace before low marked Qof" resh hairspace
Substitution2: "'jalt' Wide Letter Alternatives in Hebrew subtable" resh.wide
EndChar

StartChar: shin
Encoding: 180 1513 87
Width: 1292
GlyphClass: 2
Flags: W
HStem: 0 240<320.077 404.967 470 793.399>
VStem: 72 53<615.411 797.532> 484 54<519.007 814> 962 92<683.882 915>
AnchorPoint: "A-69" 675.575 0 basechar 0
AnchorPoint: "A-68" 675.575 0 basechar 0
AnchorPoint: "A-67" 675.575 0 basechar 0
AnchorPoint: "A-66" 675.575 0 basechar 0
AnchorPoint: "A-65" 675.575 0 basechar 0
AnchorPoint: "A-64" 675.575 0 basechar 0
AnchorPoint: "A-63" 675.575 0 basechar 0
AnchorPoint: "A-62" 675.575 0 basechar 0
AnchorPoint: "A-61" 675.575 0 basechar 0
AnchorPoint: "A-59" 110.325 0 basechar 0
AnchorPoint: "A-55" 1172.83 0 basechar 0
AnchorPoint: "A-42" 675.575 0 basechar 0
AnchorPoint: "A-39" 696.825 0 basechar 0
AnchorPoint: "A-36" 696.825 0 basechar 0
AnchorPoint: "A-21" -255.175 0 basechar 0
AnchorPoint: "A-16" 675.575 0 basechar 0
AnchorPoint: "A-15" 675.575 0 basechar 0
AnchorPoint: "A-14" 675.575 0 basechar 0
AnchorPoint: "A-13" 675.575 0 basechar 0
AnchorPoint: "A-12" 675.575 0 basechar 0
AnchorPoint: "A-11" 675.575 0 basechar 0
AnchorPoint: "A-10" 675.575 0 basechar 0
AnchorPoint: "A-9" 675.575 0 basechar 0
AnchorPoint: "A-8" 675.575 0 basechar 0
AnchorPoint: "A-58" 696.825 0 basechar 0
AnchorPoint: "A-41" 675.575 0 basechar 0
AnchorPoint: "A-40" 675.575 0 basechar 0
AnchorPoint: "A-32" 696.825 0 basechar 0
AnchorPoint: "A-31" 696.825 0 basechar 0
AnchorPoint: "A-30" 535.325 0 basechar 0
AnchorPoint: "A-29" 620.325 0 basechar 0
AnchorPoint: "A-28" 522.575 0 basechar 0
AnchorPoint: "A-27" 773.325 0 basechar 0
AnchorPoint: "A-26" 1172.83 0 basechar 0
AnchorPoint: "A-25" 152.825 0 basechar 0
AnchorPoint: "A-24" 696.825 0 basechar 0
AnchorPoint: "A-23" 696.825 0 basechar 0
AnchorPoint: "A-20" 42.3252 0 basechar 0
AnchorPoint: "A-7" 675.575 0 basechar 0
AnchorPoint: "A-6" 675.575 0 basechar 0
AnchorPoint: "A-5" 675.575 0 basechar 0
AnchorPoint: "A-4" 675.575 0 basechar 0
AnchorPoint: "A-2" 696.825 0 basechar 0
AnchorPoint: "A-1" 696.825 0 basechar 0
AnchorPoint: "A-0" 696.825 0 basechar 0
LayerCount: 2
Fore
SplineSet
338 0 m 1
 211 305 72 495 72 736 c 0
 72 758 74 781 76 804 c 1
 -36 836 -89 937 -89 1035 c 0
 -89 1070 -82 1104 -69 1135 c 1
 -42 1135 l 1
 -22 1095 -5 1073 96 1054 c 1
 170 1041 234 948 234 852 c 0
 234 819 226 785 208 754 c 1
 191 754 l 1
 174 792 161 798 125 798 c 1
 126 729 135 679 155 594 c 0
 180 485 232 391 344 240 c 1
 393 241 l 1
 446 408 474 565 484 817 c 1
 369 857 322 951 322 1037 c 0
 322 1073 330 1106 344 1135 c 1
 371 1135 l 1
 388 1098 412 1075 442 1068 c 2
 509 1054 l 1
 602 1029 625 982 640 920 c 0
 643 906 644 892 644 879 c 0
 644 835 630 795 611 760 c 1
 594 760 l 1
 577 798 583 814 538 814 c 1
 538 799 538 785 538 771 c 0
 538 566 518 417 470 240 c 1
 788 240 l 1
 795 341 843 453 937 648 c 0
 954 683 962 695 962 711 c 0
 962 718 960 725 958 735 c 0
 934 839 779 795 747 936 c 0
 742 956 740 978 740 1001 c 0
 740 1049 751 1100 769 1135 c 1
 795 1135 l 1
 807 1103 829 1082 861 1071 c 1
 921 1052 l 2
 989 1030 1032 984 1048 915 c 0
 1052 898 1054 882 1054 865 c 0
 1054 705 894 526 894 97 c 0
 894 66 895 34 897 0 c 1
 338 0 l 1
EndSplineSet
Validated: 1
LCarets2: 1 104 
MultipleSubs2: "Add hairspace before low marked Qof" shin hairspace
EndChar

StartChar: tav
Encoding: 181 1514 88
Width: 1087
GlyphClass: 2
Flags: W
HStem: 0 240<152 265> 814 242<100.411 245 304 689.101>
VStem: 195 79<403.863 784.281> 939 73<-7.43076 52.5101>
AnchorPoint: "A-69" 649.6 0 basechar 0
AnchorPoint: "A-68" 649.6 0 basechar 0
AnchorPoint: "A-67" 649.6 0 basechar 0
AnchorPoint: "A-66" 649.6 0 basechar 0
AnchorPoint: "A-65" 649.6 0 basechar 0
AnchorPoint: "A-64" 649.6 0 basechar 0
AnchorPoint: "A-63" 649.6 0 basechar 0
AnchorPoint: "A-62" 649.6 0 basechar 0
AnchorPoint: "A-61" 649.6 0 basechar 0
AnchorPoint: "A-59" 101.35 0 basechar 0
AnchorPoint: "A-55" 959.85 0 basechar 0
AnchorPoint: "A-42" 649.6 0 basechar 0
AnchorPoint: "A-39" 670.85 0 basechar 0
AnchorPoint: "A-36" 684.45 0 basechar 0
AnchorPoint: "A-21" -242.9 0 basechar 0
AnchorPoint: "A-16" 649.6 0 basechar 0
AnchorPoint: "A-15" 649.6 0 basechar 0
AnchorPoint: "A-14" 649.6 0 basechar 0
AnchorPoint: "A-13" 649.6 0 basechar 0
AnchorPoint: "A-12" 649.6 0 basechar 0
AnchorPoint: "A-11" 649.6 0 basechar 0
AnchorPoint: "A-10" 649.6 0 basechar 0
AnchorPoint: "A-9" 649.6 0 basechar 0
AnchorPoint: "A-8" 649.6 0 basechar 0
AnchorPoint: "A-58" 670.85 0 basechar 0
AnchorPoint: "A-41" 628.35 0 basechar 0
AnchorPoint: "A-40" 649.6 0 basechar 0
AnchorPoint: "A-32" 670.85 0 basechar 0
AnchorPoint: "A-31" 670.85 0 basechar 0
AnchorPoint: "A-30" 670.85 0 basechar 0
AnchorPoint: "A-29" 670.85 0 basechar 0
AnchorPoint: "A-28" 513.6 0 basechar 0
AnchorPoint: "A-27" 670.85 0 basechar 0
AnchorPoint: "A-26" 959.85 0 basechar 0
AnchorPoint: "A-25" 203.35 0 basechar 0
AnchorPoint: "A-24" 684.45 0 basechar 0
AnchorPoint: "A-23" 670.85 0 basechar 0
AnchorPoint: "A-20" 135.35 0 basechar 0
AnchorPoint: "A-7" 649.6 0 basechar 0
AnchorPoint: "A-6" 649.6 0 basechar 0
AnchorPoint: "A-5" 649.6 0 basechar 0
AnchorPoint: "A-4" 649.6 0 basechar 0
AnchorPoint: "A-2" 670.85 0 basechar 0
AnchorPoint: "A-1" 670.85 0 basechar 0
AnchorPoint: "A-0" 670.85 0 basechar 0
LayerCount: 2
Fore
SplineSet
962 -17 m 1
 939 -10 l 1
 828 474 l 2
 788 645 756 814 528 814 c 2
 304 814 l 1
 291 746 l 1
 281 691 274 646 274 601 c 0
 274 533 289 463 333 350 c 1
 383 236 411 166 422 118 c 1
 443 0 l 1
 152 0 l 1
 139 240 l 1
 265 240 l 1
 222 400 l 1
 215 428 l 2
 201 487 195 541 195 592 c 0
 195 645 202 694 218 738 c 1
 245 814 l 1
 206 814 l 2
 79 814 26 919 26 1015 c 0
 26 1057 36 1097 54 1126 c 1
 83 1126 l 1
 106 1079 144 1056 199 1056 c 2
 422 1056 l 2
 576 1056 681 1034 736 990 c 0
 792 945 836 848 871 698 c 2
 1007 107 l 2
 1010 93 1012 80 1012 68 c 0
 1012 30 995 2 962 -17 c 1
EndSplineSet
Validated: 1
LCarets2: 1 91 
MultipleSubs2: "Add hairspace before low marked Qof" tav hairspace
Substitution2: "'jalt' Wide Letter Alternatives in Hebrew subtable" tav.wide
EndChar

StartChar: geresh
Encoding: 185 1523 92
Width: 428
GlyphClass: 2
Flags: W
HStem: 623 473<-37 4>
VStem: -103 201<793.609 1082.56>
LayerCount: 2
Fore
SplineSet
56 802 m 2
 4 623 l 1
 -37 623 l 1
 -94 907 l 2
 -100 936 -103 961 -103 983 c 0
 -103 1058 -69 1096 -0 1096 c 0
 52 1096 84 1069 97 1014 c 0
 98 1010 98 1005 98 999 c 0
 98 965 84 900 56 802 c 2
EndSplineSet
Validated: 1
EndChar

StartChar: zerononjoin
Encoding: 189 8204 96
Width: 0
GlyphClass: 2
Flags: W
HStem: 1613 281
VStem: -570 330
LayerCount: 2
Fore
SplineSet
-545 1894 m 1
 -412 1786 l 1
 -331 1893 l 1
 -289 1860 l 1
 -372 1753 l 1
 -240 1646 l 1
 -266 1613 l 1
 -397 1719 l 1
 -480 1613 l 1
 -521 1646 l 1
 -439 1753 l 1
 -570 1860 l 1
 -545 1894 l 1
EndSplineSet
Validated: 1
EndChar

StartChar: zerojoin
Encoding: 190 8205 97
Width: 0
GlyphClass: 2
Flags: W
HStem: 1637 140<-581 -555 -221 -206> 1730 47<-555 -242>
VStem: -613 439
LayerCount: 2
Fore
SplineSet
-221 1637 m 1xa0
 -242 1730 l 1
 -555 1730 l 1x60
 -534 1637 l 1
 -581 1637 l 1xa0
 -613 1777 l 1x60
 -206 1777 l 1
 -174 1637 l 1
 -221 1637 l 1xa0
EndSplineSet
Validated: 1
EndChar

StartChar: lrm
Encoding: 191 8206 98
Width: 0
GlyphClass: 2
Flags: W
HStem: 1730 47<-553 -306>
VStem: -564 354
LayerCount: 2
Fore
SplineSet
-408 1860 m 1
 -383 1894 l 1
 -210 1753 l 1
 -318 1612 l 1
 -359 1646 l 1
 -294 1730 l 1
 -553 1730 l 1
 -564 1777 l 1
 -306 1777 l 1
 -408 1860 l 1
EndSplineSet
Validated: 1
EndChar

StartChar: rlm
Encoding: 192 8207 99
Width: 0
GlyphClass: 2
Flags: W
HStem: 1730 47<-502 -255>
VStem: -599 355
LayerCount: 2
Fore
SplineSet
-400 1647 m 1
 -425 1613 l 1
 -599 1754 l 1
 -490 1895 l 1
 -450 1861 l 1
 -514 1777 l 1
 -255 1777 l 1
 -244 1730 l 1
 -502 1730 l 1
 -400 1647 l 1
EndSplineSet
Validated: 1
EndChar

StartChar: quoteleft
Encoding: 193 8216 100
Width: 385
GlyphClass: 2
Flags: W
HStem: 854 202<-75.219 45.2557>
VStem: -162 236<911.373 1028.66> -162 78<1059.58 1205.38>
LayerCount: 2
Fore
SplineSet
71 958 m 0xa0
 73 949 74 941 74 933 c 0xc0
 74 886 40 854 -5 854 c 0
 -82 854 -134 909 -153 990 c 0
 -159 1017 -162 1042 -162 1066 c 0
 -162 1166 -109 1247 -17 1338 c 1
 13 1312 l 1
 -15 1279 -37 1253 -52 1232 c 1
 -71 1203 -81 1175 -84 1152 c 1
 -84 1137 -83 1122 -80 1109 c 0
 -73 1079 -57 1056 -26 1056 c 0
 4 1056 57 1020 71 958 c 0xa0
EndSplineSet
Validated: 1
EndChar

StartChar: quoteright
Encoding: 194 8217 101
Width: 384
GlyphClass: 2
Flags: W
HStem: 1136 202<-159.413 -38.8216>
VStem: -187 235<1160.75 1280.63> -30 78<986.125 1132.42>
LayerCount: 2
Fore
SplineSet
-184 1232 m 0xa0
 -186 1241 -187 1250 -187 1258 c 0xc0
 -187 1306 -154 1338 -109 1338 c 0
 -32 1338 20 1283 38 1202 c 0
 44 1175 48 1149 48 1125 c 0
 48 1025 -5 945 -97 854 c 1
 -127 880 l 1
 -99 913 -77 941 -62 962 c 1
 -44 991 -33 1017 -30 1040 c 1
 -30 1055 -31 1070 -34 1083 c 0
 -41 1113 -57 1136 -88 1136 c 0
 -118 1136 -170 1170 -184 1232 c 0xa0
EndSplineSet
Validated: 1
EndChar

StartChar: quotesinglbase
Encoding: 195 8218 102
Width: 384
GlyphClass: 2
Flags: W
HStem: 0 204<96.7375 218.912>
VStem: 67 235<26.75 146.627> 225 77<-147.75 -4.22017>
LayerCount: 2
Fore
SplineSet
70 100 m 0xa0
 68 109 67 117 67 125 c 0xc0
 67 172 101 204 146 204 c 0
 223 204 275 149 293 68 c 0
 299 41 302 16 302 -8 c 0
 302 -109 250 -189 158 -280 c 1
 128 -254 l 1
 156 -221 178 -193 193 -172 c 1
 211 -143 222 -117 225 -94 c 1
 225 -79 224 -64 221 -51 c 0
 214 -21 196 0 165 0 c 0
 135 0 84 38 70 100 c 0xa0
EndSplineSet
Validated: 1
EndChar

StartChar: newshekel
Encoding: 199 8362 106
Width: 1024
GlyphClass: 2
Flags: W
HStem: 0 54<525.48 811> 1002 54<-15 269.52>
LayerCount: 2
Fore
SplineSet
664 204 m 1
 512 204 l 1
 380 816 l 2
 379 818 379 820 378 822 c 0
 362 891 335 937 298 960 c 0
 255 988 201 1002 137 1002 c 2
 -15 1002 l 1
 213 0 l 1
 61 0 l 1
 -180 1056 l 1
 140 1056 l 2
 257 1056 348 1036 410 996 c 256
 471 957 513 898 531 820 c 0
 531 819 531 817 532 816 c 2
 664 204 l 1
126 837 m 1
 278 837 l 1
 416 240 l 2
 432 168 459 120 497 96 c 0
 540 68 595 54 659 54 c 2
 811 54 l 1
 579 1056 l 1
 731 1056 l 1
 975 0 l 1
 655 0 l 2
 538 0 447 20 385 60 c 256
 323 100 282 160 264 240 c 2
 126 837 l 1
EndSplineSet
Validated: 1
EndChar

StartChar: Euro
Encoding: 200 8364 107
Width: 1024
GlyphClass: 2
Flags: W
HStem: -27 67<459.848 696.633> 453 62<-18 41 214 635> 582 62<-48 19 186 645> 1044 55<264.156 485.869>
VStem: 16 152<644 928.222> 38 160<515 580.923> 59 155<336.787 453> 658 31<790 828.469>
LayerCount: 2
Fore
SplineSet
19 644 m 1xf5
 17 666 16 687 16 708 c 0
 16 927 118 1099 345 1099 c 0
 436 1099 533 1076 633 1029 c 1
 689 790 l 1
 658 790 l 1
 604 961 503 1044 357 1044 c 0
 214 1044 168 914 168 759 c 0xf9
 168 722 170 683 175 644 c 1
 648 644 l 1
 645 582 l 1
 186 582 l 1
 189 559 193 537 198 515 c 1xf5
 640 515 l 1
 635 453 l 1
 214 453 l 1
 278 216 413 40 569 40 c 0
 722 40 767 119 816 220 c 1
 845 204 l 1
 795 82 734 -27 552 -27 c 0
 304 -27 141 187 59 453 c 1xf3
 -22 453 l 1
 -18 515 l 1
 41 515 l 1
 38 528 l 2
 34 544 29 562 26 582 c 1
 -51 582 l 1
 -48 644 l 1
 19 644 l 1xf5
EndSplineSet
Validated: 1
EndChar

StartChar: dottedcircle
Encoding: 201 9676 108
Width: 1150
GlyphClass: 2
Flags: W
HStem: -12 143<557.362 659.751> 48 143<344.838 447.227 742.838 845.227> 222 143<156.362 258.751 850.362 952.751> 456 143<51.3616 153.751 847.362 949.751> 690 143<48.3616 150.751 742.362 844.751> 864 143<156.362 258.751 554.362 656.751> 924 143<341.362 443.751>
VStem: 39 128<464.467 590.387 697.001 822.875> 144 128<230.467 356.387 872.467 998.387> 332 128<56.4672 182.492 931.001 1056.88> 545 128<-3.53281 122.387 871.001 996.875> 730 128<56.4672 182.492 698.467 824.387> 838 128<230.467 356.387 463.001 588.875>
AnchorPoint: "A-69" 656.075 0 basechar 0
AnchorPoint: "A-68" 656.075 0 basechar 0
AnchorPoint: "A-67" 656.075 0 basechar 0
AnchorPoint: "A-66" 656.075 0 basechar 0
AnchorPoint: "A-65" 656.075 0 basechar 0
AnchorPoint: "A-64" 656.075 0 basechar 0
AnchorPoint: "A-63" 656.075 0 basechar 0
AnchorPoint: "A-62" 656.075 0 basechar 0
AnchorPoint: "A-61" 656.075 0 basechar 0
AnchorPoint: "A-59" 93.375 0 basechar 0
AnchorPoint: "A-55" 970.575 0 basechar 0
AnchorPoint: "A-42" 656.075 0 basechar 0
AnchorPoint: "A-39" 622.075 0 basechar 0
AnchorPoint: "A-36" 622.075 0 basechar 0
AnchorPoint: "A-21" -272.125 0 basechar 0
AnchorPoint: "A-16" 622.075 0 basechar 0
AnchorPoint: "A-15" 622.075 0 basechar 0
AnchorPoint: "A-14" 622.075 0 basechar 0
AnchorPoint: "A-13" 622.075 0 basechar 0
AnchorPoint: "A-12" 622.075 0 basechar 0
AnchorPoint: "A-11" 622.075 0 basechar 0
AnchorPoint: "A-10" 622.075 0 basechar 0
AnchorPoint: "A-9" 622.075 0 basechar 0
AnchorPoint: "A-8" 622.075 0 basechar 0
AnchorPoint: "A-60" 622.075 0 basechar 0
AnchorPoint: "A-58" 622.075 0 basechar 0
AnchorPoint: "A-41" 628.875 0 basechar 0
AnchorPoint: "A-40" 656.075 0 basechar 0
AnchorPoint: "A-32" 622.075 0 basechar 0
AnchorPoint: "A-31" 622.075 0 basechar 0
AnchorPoint: "A-30" 518.375 0 basechar 0
AnchorPoint: "A-29" 622.075 0 basechar 0
AnchorPoint: "A-28" 505.625 0 basechar 0
AnchorPoint: "A-27" 622.075 0 basechar 0
AnchorPoint: "A-26" 970.575 0 basechar 0
AnchorPoint: "A-25" 220.875 0 basechar 0
AnchorPoint: "A-24" 622.075 0 basechar 0
AnchorPoint: "A-23" 622.075 0 basechar 0
AnchorPoint: "A-20" 25.375 0 basechar 0
AnchorPoint: "A-7" 622.075 0 basechar 0
AnchorPoint: "A-6" 622.075 0 basechar 0
AnchorPoint: "A-5" 622.075 0 basechar 0
AnchorPoint: "A-4" 622.075 0 basechar 0
AnchorPoint: "A-3" 622.075 0 basechar 0
AnchorPoint: "A-2" 622.075 0 basechar 0
AnchorPoint: "A-1" 622.075 0 basechar 0
AnchorPoint: "A-0" 622.075 0 basechar 0
LayerCount: 2
Fore
SplineSet
42 527 m 0x3960
 40 537 39 546 39 554 c 0
 39 584 54 599 86 599 c 0
 127 599 152 575 163 527 c 0
 165 517 167 508 167 500 c 0
 167 471 151 456 119 456 c 0
 79 456 53 480 42 527 c 0x3960
838 527 m 0x3868
 836 537 835 546 835 554 c 0
 835 584 850 599 882 599 c 0
 923 599 948 575 959 527 c 0
 961 517 963 508 963 500 c 0
 963 471 947 456 915 456 c 0
 875 456 849 480 838 527 c 0x3868
332 995 m 0
 330 1005 329 1014 329 1022 c 0
 329 1052 344 1067 376 1067 c 0
 417 1067 442 1043 453 995 c 0
 455 985 457 976 457 968 c 0
 457 939 441 924 409 924 c 0x3a60
 369 924 343 948 332 995 c 0
548 59 m 0
 546 69 545 78 545 86 c 0
 545 116 560 131 592 131 c 0
 633 131 658 107 669 59 c 0
 671 49 673 40 673 32 c 0
 673 3 657 -12 625 -12 c 0xb860
 585 -12 559 12 548 59 c 0
733 761 m 0
 731 771 730 780 730 788 c 0
 730 818 745 833 777 833 c 0
 818 833 843 809 854 761 c 0
 856 751 858 742 858 734 c 0x3870
 858 705 842 690 810 690 c 0
 770 690 744 714 733 761 c 0
841 293 m 0
 839 303 838 312 838 320 c 0
 838 350 853 365 885 365 c 0
 926 365 951 341 962 293 c 0
 964 283 966 274 966 266 c 0x3868
 966 237 950 222 918 222 c 0
 878 222 852 246 841 293 c 0
39 761 m 0x3960
 37 771 36 780 36 788 c 0
 36 818 51 833 83 833 c 0
 124 833 149 809 160 761 c 0
 162 751 164 742 164 734 c 0
 164 705 148 690 116 690 c 0
 76 690 50 714 39 761 c 0x3960
147 293 m 0
 145 303 144 312 144 320 c 0
 144 350 159 365 191 365 c 0
 232 365 257 341 268 293 c 0
 270 283 272 274 272 266 c 0x38e0
 272 237 256 222 224 222 c 0
 184 222 158 246 147 293 c 0
147 935 m 0
 145 945 144 954 144 962 c 0
 144 992 159 1007 191 1007 c 0
 232 1007 257 983 268 935 c 0
 270 925 272 916 272 908 c 0
 272 879 256 864 224 864 c 0x3ce0
 184 864 158 888 147 935 c 0
545 935 m 0
 543 945 542 954 542 962 c 0
 542 992 557 1007 589 1007 c 0
 630 1007 655 983 666 935 c 0
 668 925 670 916 670 908 c 0
 670 879 654 864 622 864 c 0
 582 864 556 888 545 935 c 0
336 119 m 0
 333 130 332 139 332 148 c 0
 332 177 348 191 379 191 c 0
 420 191 445 167 457 119 c 0
 459 109 460 101 460 93 c 0
 460 63 445 48 412 48 c 0x7860
 372 48 346 72 336 119 c 0
734 119 m 0
 731 130 730 139 730 148 c 0
 730 177 746 191 777 191 c 0
 818 191 843 167 855 119 c 0
 857 109 858 101 858 93 c 0x7870
 858 63 843 48 810 48 c 0
 770 48 744 72 734 119 c 0
EndSplineSet
Validated: 1
LCarets2: 1 93 
MultipleSubs2: "Add hairspace before low marked Qof" dottedcircle hairspace
EndChar

StartChar: jsvarika
Encoding: 203 64286 110
Width: 0
GlyphClass: 4
Flags: W
HStem: 1188 202
VStem: -815 372
AnchorPoint: "A-55" -501.469 0 mark 0
AnchorPoint: "A-57" -739.469 0 basemark 0
AnchorPoint: "A-56" -314.469 0 basemark 0
AnchorPoint: "A-57" -314.469 0 mark 0
AnchorPoint: "A-24" -314.469 0 mark 0
LayerCount: 2
Fore
SplineSet
-589 1188 m 1
 -638 1215 -715 1301 -815 1361 c 1
 -818 1377 l 1
 -819 1382 -817 1387 -815 1390 c 1
 -805 1387 -687 1324 -611 1283 c 1
 -556 1322 -516 1348 -451 1374 c 1
 -447 1371 -444 1366 -443 1361 c 1
 -439 1345 l 1
 -502 1307 -556 1208 -589 1188 c 1
EndSplineSet
Validated: 1
LCarets2: 1 0 
EndChar

StartChar: yodyodpatah
Encoding: 204 64287 111
Width: 919
GlyphClass: 2
Flags: W
HStem: 287 94<10 764>
VStem: 159 73<536 785.059> 568 73<536 785.059>
AnchorPoint: "A-69" 520 0 basechar 0
AnchorPoint: "A-68" 520 0 basechar 0
AnchorPoint: "A-67" 520 0 basechar 0
AnchorPoint: "A-66" 520 0 basechar 0
AnchorPoint: "A-65" 520 0 basechar 0
AnchorPoint: "A-64" 520 0 basechar 0
AnchorPoint: "A-63" 520 0 basechar 0
AnchorPoint: "A-62" 520 0 basechar 0
AnchorPoint: "A-61" 520 0 basechar 0
AnchorPoint: "A-59" 0 0 basechar 0
AnchorPoint: "A-55" 900 0 basechar 0
AnchorPoint: "A-42" 520 0 basechar 0
AnchorPoint: "A-39" 510 0 basechar 0
AnchorPoint: "A-36" 510 0 basechar 0
AnchorPoint: "A-21" -430 0 basechar 0
AnchorPoint: "A-16" 510 0 basechar 0
AnchorPoint: "A-15" 510 0 basechar 0
AnchorPoint: "A-14" 510 0 basechar 0
AnchorPoint: "A-13" 510 0 basechar 0
AnchorPoint: "A-12" 510 0 basechar 0
AnchorPoint: "A-11" 510 0 basechar 0
AnchorPoint: "A-10" 510 0 basechar 0
AnchorPoint: "A-9" 510 0 basechar 0
AnchorPoint: "A-8" 510 0 basechar 0
AnchorPoint: "A-58" 510 0 basechar 0
AnchorPoint: "A-41" 440 0 basechar 0
AnchorPoint: "A-40" 520 0 basechar 0
AnchorPoint: "A-32" 510 0 basechar 0
AnchorPoint: "A-31" 510 0 basechar 0
AnchorPoint: "A-30" 510 0 basechar 0
AnchorPoint: "A-29" 510 0 basechar 0
AnchorPoint: "A-28" 485 0 basechar 0
AnchorPoint: "A-27" 510 0 basechar 0
AnchorPoint: "A-26" 900 0 basechar 0
AnchorPoint: "A-25" 0 0 basechar 0
AnchorPoint: "A-24" 510 0 basechar 0
AnchorPoint: "A-23" 510 0 basechar 0
AnchorPoint: "A-20" -70 0 basechar 0
AnchorPoint: "A-4" 400 0 basechar 0
AnchorPoint: "A-2" 510 0 basechar 0
AnchorPoint: "A-1" 510 0 basechar 0
AnchorPoint: "A-0" 510 0 basechar 0
LayerCount: 2
Fore
SplineSet
545 480 m 1
 510 512 l 1
 550 549 568 582 568 630 c 0
 568 652 565 676 558 705 c 0
 555 718 552 730 550 741 c 0
 540 786 527 811 446 814 c 0
 334 818 270 888 249 978 c 0
 245 996 243 1015 243 1034 c 0
 243 1066 248 1099 260 1135 c 1
 287 1135 l 1
 303 1090 340 1065 395 1060 c 1
 431 1056 l 1
 522 1049 581 988 608 871 c 2
 625 795 l 2
 636 749 641 708 641 671 c 0
 641 581 609 518 545 480 c 1
136 480 m 1
 101 512 l 1
 141 549 159 582 159 630 c 0
 159 652 156 676 149 705 c 0
 146 718 143 730 141 741 c 0
 131 786 118 811 37 814 c 0
 -75 818 -139 888 -160 978 c 0
 -164 996 -166 1015 -166 1034 c 0
 -166 1066 -161 1099 -149 1135 c 1
 -122 1135 l 1
 -106 1090 -69 1065 -14 1060 c 1
 22 1056 l 1
 113 1049 172 988 199 871 c 2
 216 795 l 2
 227 749 232 708 232 671 c 0
 232 581 200 518 136 480 c 1
786 287 m 1
 10 287 l 1
 -12 381 l 1
 764 381 l 1
 786 287 l 1
EndSplineSet
Validated: 1
LCarets2: 1 0 
MultipleSubs2: "Add hairspace before low marked Qof" yodyodpatah hairspace
EndChar

StartChar: ayin.alt
Encoding: 205 64288 112
Width: 920
GlyphClass: 2
Flags: W
HStem: 814 238<-68.7759 47.9312 86 127.694>
VStem: 519 82<255.816 673.786>
AnchorPoint: "A-69" 432.65 0 basechar 0
AnchorPoint: "A-68" 432.65 0 basechar 0
AnchorPoint: "A-67" 432.65 0 basechar 0
AnchorPoint: "A-66" 432.65 0 basechar 0
AnchorPoint: "A-65" 432.65 0 basechar 0
AnchorPoint: "A-64" 432.65 0 basechar 0
AnchorPoint: "A-63" 432.65 0 basechar 0
AnchorPoint: "A-62" 432.65 0 basechar 0
AnchorPoint: "A-61" 432.65 0 basechar 0
AnchorPoint: "A-59" 16.1504 0 basechar 0
AnchorPoint: "A-55" 815.15 0 basechar 0
AnchorPoint: "A-42" 432.65 0 basechar 0
AnchorPoint: "A-39" 500.65 0 basechar 0
AnchorPoint: "A-36" 500.65 0 basechar 0
AnchorPoint: "A-21" -349.35 0 basechar 0
AnchorPoint: "A-16" 432.65 0 basechar 0
AnchorPoint: "A-15" 432.65 0 basechar 0
AnchorPoint: "A-14" 432.65 0 basechar 0
AnchorPoint: "A-13" 432.65 0 basechar 0
AnchorPoint: "A-12" 432.65 0 basechar 0
AnchorPoint: "A-11" 432.65 0 basechar 0
AnchorPoint: "A-10" 432.65 0 basechar 0
AnchorPoint: "A-9" 432.65 0 basechar 0
AnchorPoint: "A-8" 432.65 0 basechar 0
AnchorPoint: "A-58" 500.65 0 basechar 0
AnchorPoint: "A-41" 313.65 0 basechar 0
AnchorPoint: "A-40" 432.65 0 basechar 0
AnchorPoint: "A-32" 500.65 0 basechar 0
AnchorPoint: "A-31" 16.1504 0 basechar 0
AnchorPoint: "A-30" 500.65 0 basechar 0
AnchorPoint: "A-29" 500.65 0 basechar 0
AnchorPoint: "A-28" 428.4 0 basechar 0
AnchorPoint: "A-27" 500.65 0 basechar 0
AnchorPoint: "A-26" 815.15 0 basechar 0
AnchorPoint: "A-25" 84.1504 0 basechar 0
AnchorPoint: "A-24" 500.65 0 basechar 0
AnchorPoint: "A-23" 500.65 0 basechar 0
AnchorPoint: "A-20" 16.1504 0 basechar 0
AnchorPoint: "A-7" 432.65 0 basechar 0
AnchorPoint: "A-6" 432.65 0 basechar 0
AnchorPoint: "A-5" 432.65 0 basechar 0
AnchorPoint: "A-4" 432.65 0 basechar 0
AnchorPoint: "A-3" 515 0 basechar 0
AnchorPoint: "A-2" 500.65 0 basechar 0
AnchorPoint: "A-1" 500.65 0 basechar 0
AnchorPoint: "A-0" 500.65 0 basechar 0
LayerCount: 2
Fore
SplineSet
628 282 m 0
 634 255 637 229 637 206 c 0
 637 92 562 25 413 7 c 2
 78 -33 l 1
 67 202 l 1
 315 230 l 1
 284 365 231 426 187 456 c 0
 100 516 87 549 65 645 c 0
 56 686 50 733 45 814 c 1
 -64 833 -128 893 -145 967 c 0
 -151 994 -155 1021 -155 1048 c 0
 -155 1076 -151 1104 -143 1131 c 1
 -116 1131 l 1
 -95 1086 -60 1057 -12 1052 c 1
 35 1052 l 1
 99 1052 163 988 181 908 c 0
 185 893 187 877 187 861 c 0
 187 830 179 798 162 767 c 1
 145 767 l 1
 128 805 117 814 86 814 c 1
 120 665 128 652 192 615 c 1
 274 569 297 551 323 438 c 1
 369 240 l 1
 429 248 l 1
 507 260 519 245 519 379 c 1
 519 380 519 382 519 383 c 0
 519 534 565 659 565 726 c 0
 565 733 564 740 563 746 c 0
 554 784 532 807 496 814 c 0
 393 837 342 903 325 975 c 0
 321 993 319 1011 319 1029 c 0
 319 1062 325 1096 338 1131 c 1
 365 1131 l 1
 377 1104 394 1084 412 1073 c 0
 485 1032 620 1067 650 937 c 0
 654 921 655 905 655 889 c 0
 655 792 601 684 601 507 c 0
 601 442 608 368 628 282 c 0
EndSplineSet
Validated: 1
LCarets2: 1 77 
MultipleSubs2: "Add hairspace before low marked Qof" ayin.alt hairspace
EndChar

StartChar: alef.wide
Encoding: 206 64289 113
Width: 682
GlyphClass: 2
Flags: W
HStem: 0 21G<232.556 445>
VStem: 110 126<379.035 551.306> 1099 82<485.339 788.458>
AnchorPoint: "A-69" 893.6 0 basechar 0
AnchorPoint: "A-68" 893.6 0 basechar 0
AnchorPoint: "A-67" 893.6 0 basechar 0
AnchorPoint: "A-66" 893.6 0 basechar 0
AnchorPoint: "A-65" 893.6 0 basechar 0
AnchorPoint: "A-64" 893.6 0 basechar 0
AnchorPoint: "A-63" 893.6 0 basechar 0
AnchorPoint: "A-62" 893.6 0 basechar 0
AnchorPoint: "A-61" 893.6 0 basechar 0
AnchorPoint: "A-59" 103.1 0 basechar 0
AnchorPoint: "A-55" 1420.6 0 basechar 0
AnchorPoint: "A-42" 893.6 0 basechar 0
AnchorPoint: "A-39" 876.6 0 basechar 0
AnchorPoint: "A-36" 876.6 0 basechar 0
AnchorPoint: "A-21" -262.4 0 basechar 0
AnchorPoint: "A-16" 893.6 0 basechar 0
AnchorPoint: "A-15" 893.6 0 basechar 0
AnchorPoint: "A-14" 893.6 0 basechar 0
AnchorPoint: "A-13" 893.6 0 basechar 0
AnchorPoint: "A-12" 893.6 0 basechar 0
AnchorPoint: "A-11" 893.6 0 basechar 0
AnchorPoint: "A-10" 893.6 0 basechar 0
AnchorPoint: "A-9" 893.6 0 basechar 0
AnchorPoint: "A-8" 893.6 0 basechar 0
AnchorPoint: "A-58" 876.6 0 basechar 0
AnchorPoint: "A-41" 1148.6 0 basechar 0
AnchorPoint: "A-40" 893.6 0 basechar 0
AnchorPoint: "A-32" 876.6 0 basechar 0
AnchorPoint: "A-31" 876.6 0 basechar 0
AnchorPoint: "A-30" 621.6 0 basechar 0
AnchorPoint: "A-29" 706.6 0 basechar 0
AnchorPoint: "A-28" 515.35 0 basechar 0
AnchorPoint: "A-27" 1046.6 0 basechar 0
AnchorPoint: "A-26" 1420.6 0 basechar 0
AnchorPoint: "A-25" 230.6 0 basechar 0
AnchorPoint: "A-24" 876.6 0 basechar 0
AnchorPoint: "A-23" 876.6 0 basechar 0
AnchorPoint: "A-20" 111.6 0 basechar 0
AnchorPoint: "A-7" 893.6 0 basechar 0
AnchorPoint: "A-6" 893.6 0 basechar 0
AnchorPoint: "A-5" 893.6 0 basechar 0
AnchorPoint: "A-4" 893.6 0 basechar 0
AnchorPoint: "A-3" 1014.49 -450 basechar 0
AnchorPoint: "A-2" 876.6 0 basechar 0
AnchorPoint: "A-1" 876.6 0 basechar 0
AnchorPoint: "A-0" 876.6 0 basechar 0
LayerCount: 2
Fore
SplineSet
277 96 m 0
 262 159 136 296 115 384 c 0
 112 398 110 413 110 427 c 0
 110 516 175 595 282 672 c 1
 115 790 l 1
 49 849 8 910 -7 973 c 0
 -10 988 -12 1003 -12 1017 c 0
 -12 1058 1 1097 27 1135 c 1
 53 1135 l 1
 70 1077 98 1030 137 995 c 1
 388 748 740 541 1193 376 c 1
 1151 441 1124 503 1110 562 c 0
 1103 593 1099 621 1099 648 c 0
 1099 709 1118 761 1159 819 c 1
 1049 836 987 908 967 997 c 0
 963 1017 960 1035 960 1053 c 0
 960 1083 967 1110 978 1135 c 1
 1002 1135 l 1
 1022 1094 1055 1068 1099 1058 c 2
 1188 1038 l 2
 1269 1020 1316 978 1332 911 c 0
 1335 896 1336 879 1336 862 c 0
 1336 846 1335 831 1334 822 c 1
 1314 815 1278 812 1227 812 c 1
 1195 735 1181 676 1181 624 c 0
 1181 603 1183 582 1188 562 c 0
 1200 511 1229 465 1274 424 c 2
 1392 317 l 2
 1458 258 1499 196 1513 133 c 0
 1516 118 1518 103 1518 89 c 0
 1518 49 1505 14 1477 -18 c 1
 1450 -18 l 1
 1434 33 1407 76 1368 111 c 1
 1027 253 681 426 331 630 c 1
 268 587 236 541 236 492 c 0
 236 483 237 474 239 465 c 0
 267 341 449 220 478 96 c 0
 482 81 483 68 483 56 c 0
 483 19 464 0 426 0 c 2
 237 0 l 1
 231 27 l 1
 262 36 277 53 277 79 c 0
 277 84 278 90 277 96 c 0
EndSplineSet
Validated: 1
LCarets2: 1 137 
MultipleSubs2: "Add hairspace before low marked Qof" alef.wide hairspace
EndChar

StartChar: dalet.wide
Encoding: 207 64290 114
Width: 1538
GlyphClass: 2
Flags: W
HStem: 815 241<-8.15485 1166>
VStem: 1084 99<467.944 771.093> 1199 122<-0.0515137 249.507>
AnchorPoint: "A-69" 1180.22 0 basechar 0
AnchorPoint: "A-68" 1095.22 0 basechar 0
AnchorPoint: "A-67" 1010.22 0 basechar 0
AnchorPoint: "A-66" 1180.22 0 basechar 0
AnchorPoint: "A-65" 1095.22 0 basechar 0
AnchorPoint: "A-64" 1010.22 0 basechar 0
AnchorPoint: "A-63" 1180.22 0 basechar 0
AnchorPoint: "A-62" 1095.22 0 basechar 0
AnchorPoint: "A-61" 1010.22 0 basechar 0
AnchorPoint: "A-59" 109.225 0 basechar 0
AnchorPoint: "A-55" 1282.22 0 basechar 0
AnchorPoint: "A-42" 1078.22 0 basechar 0
AnchorPoint: "A-39" 806.225 0 basechar 0
AnchorPoint: "A-36" 806.225 0 basechar 0
AnchorPoint: "A-21" -256.275 0 basechar 0
AnchorPoint: "A-19" 1001.72 0 basechar 0
AnchorPoint: "A-18" 1129.22 0 basechar 0
AnchorPoint: "A-17" 1120.72 0 basechar 0
AnchorPoint: "A-16" 1001.72 0 basechar 0
AnchorPoint: "A-15" 1129.22 0 basechar 0
AnchorPoint: "A-14" 1120.72 0 basechar 0
AnchorPoint: "A-13" 874.225 0 basechar 0
AnchorPoint: "A-12" 1001.72 0 basechar 0
AnchorPoint: "A-11" 993.22 0 basechar 0
AnchorPoint: "A-10" 1001.72 0 basechar 0
AnchorPoint: "A-9" 1129.22 0 basechar 0
AnchorPoint: "A-8" 1120.72 0 basechar 0
AnchorPoint: "A-58" 789.225 0 basechar 0
AnchorPoint: "A-41" 959.225 0 basechar 0
AnchorPoint: "A-40" 1265.22 0 basechar 0
AnchorPoint: "A-32" 806.225 0 basechar 0
AnchorPoint: "A-31" 806.225 0 basechar 0
AnchorPoint: "A-30" 551.225 0 basechar 0
AnchorPoint: "A-29" 636.225 0 basechar 0
AnchorPoint: "A-28" 521.475 0 basechar 0
AnchorPoint: "A-27" 976.225 0 basechar 0
AnchorPoint: "A-26" 1282.22 0 basechar 0
AnchorPoint: "A-25" 92.2246 0 basechar 0
AnchorPoint: "A-24" 806.225 0 basechar 0
AnchorPoint: "A-23" 806.225 0 basechar 0
AnchorPoint: "A-20" 24.2246 0 basechar 0
AnchorPoint: "A-7" 1090.97 0 basechar 0
AnchorPoint: "A-6" 1146.22 0 basechar 0
AnchorPoint: "A-5" 1273.72 0 basechar 0
AnchorPoint: "A-4" 1273.72 0 basechar 0
AnchorPoint: "A-3" 746.725 0 basechar 0
AnchorPoint: "A-2" 806.225 0 basechar 0
AnchorPoint: "A-1" 806.225 0 basechar 0
AnchorPoint: "A-0" 806.225 0 basechar 0
LayerCount: 2
Fore
SplineSet
1192 596 m 0
 1218 483 1286 287 1312 175 c 0
 1318 149 1321 125 1321 104 c 0
 1321 30 1285 -13 1213 -25 c 1
 1190 0 l 1
 1196 14 1199 30 1199 50 c 0
 1199 65 1197 82 1193 101 c 0
 1163 230 1132 327 1109 423 c 0
 1093 494 1084 555 1084 608 c 0
 1084 693 1108 759 1166 815 c 1
 89 815 l 1
 -14 815 -54 878 -73 962 c 0
 -78 984 -81 1005 -81 1024 c 0
 -81 1063 -71 1097 -50 1126 c 1
 -24 1126 l 1
 -2 1079 36 1056 92 1056 c 2
 1116 1056 l 2
 1209 1056 1246 1026 1267 937 c 0
 1272 914 1274 896 1274 882 c 0
 1274 816 1226 825 1194 736 c 0
 1187 716 1183 694 1183 669 c 0
 1183 647 1186 622 1192 596 c 0
EndSplineSet
Validated: 1
LCarets2: 1 123 
MultipleSubs2: "Add hairspace before low marked Qof" dalet.wide hairspace
EndChar

StartChar: he.wide
Encoding: 208 64291 115
Width: 1681
GlyphClass: 2
Flags: W
HStem: 818 238<103.436 1337.74>
VStem: 196 129<164.343 457.378> 261 131<-11.0206 218.485> 1296 80<522.093 810.91> 1429 118<-3.73359 237.832>
AnchorPoint: "A-69" 934.875 0 basechar 0
AnchorPoint: "A-68" 934.875 0 basechar 0
AnchorPoint: "A-67" 934.875 0 basechar 0
AnchorPoint: "A-66" 934.875 0 basechar 0
AnchorPoint: "A-65" 934.875 0 basechar 0
AnchorPoint: "A-64" 934.875 0 basechar 0
AnchorPoint: "A-63" 934.875 0 basechar 0
AnchorPoint: "A-62" 934.875 0 basechar 0
AnchorPoint: "A-61" 934.875 0 basechar 0
AnchorPoint: "A-59" 152.875 0 basechar 0
AnchorPoint: "A-55" 1495.88 0 basechar 0
AnchorPoint: "A-42" 934.875 0 basechar 0
AnchorPoint: "A-39" 934.875 0 basechar 0
AnchorPoint: "A-36" 934.875 0 basechar 0
AnchorPoint: "A-21" -212.625 0 basechar 0
AnchorPoint: "A-16" 917.875 0 basechar 0
AnchorPoint: "A-15" 917.875 0 basechar 0
AnchorPoint: "A-14" 917.875 0 basechar 0
AnchorPoint: "A-13" 917.875 0 basechar 0
AnchorPoint: "A-12" 917.875 0 basechar 0
AnchorPoint: "A-11" 917.875 0 basechar 0
AnchorPoint: "A-10" 917.875 0 basechar 0
AnchorPoint: "A-9" 917.875 0 basechar 0
AnchorPoint: "A-8" 917.875 0 basechar 0
AnchorPoint: "A-58" 934.875 0 basechar 0
AnchorPoint: "A-41" 1172.88 0 basechar 0
AnchorPoint: "A-40" 934.875 0 basechar 0
AnchorPoint: "A-32" 934.875 0 basechar 0
AnchorPoint: "A-31" 934.875 0 basechar 0
AnchorPoint: "A-30" 679.875 0 basechar 0
AnchorPoint: "A-29" 764.875 0 basechar 0
AnchorPoint: "A-28" 565.125 0 basechar 0
AnchorPoint: "A-27" 1104.88 0 basechar 0
AnchorPoint: "A-26" 1495.88 0 basechar 0
AnchorPoint: "A-25" 220.875 0 basechar 0
AnchorPoint: "A-24" 934.875 0 basechar 0
AnchorPoint: "A-23" 934.875 0 basechar 0
AnchorPoint: "A-20" 152.875 0 basechar 0
AnchorPoint: "A-7" 917.875 0 basechar 0
AnchorPoint: "A-6" 917.875 0 basechar 0
AnchorPoint: "A-5" 917.875 0 basechar 0
AnchorPoint: "A-4" 917.875 0 basechar 0
AnchorPoint: "A-3" 917.875 0 basechar 0
AnchorPoint: "A-2" 934.875 0 basechar 0
AnchorPoint: "A-1" 934.875 0 basechar 0
AnchorPoint: "A-0" 934.875 0 basechar 0
LayerCount: 2
Fore
SplineSet
1392 604 m 0xd8
 1421 478 1505 310 1537 172 c 0
 1544 144 1547 119 1547 97 c 0
 1547 25 1512 -16 1441 -28 c 1
 1421 -7 l 1
 1426 8 1429 25 1429 44 c 0
 1429 60 1427 79 1422 98 c 0
 1403 184 1344 367 1324 453 c 0
 1306 530 1296 594 1296 651 c 0
 1296 713 1309 766 1338 815 c 1
 204 818 l 2
 103 818 57 878 38 962 c 0
 33 983 31 1003 31 1022 c 0
 31 1062 41 1096 62 1126 c 1
 88 1126 l 1
 110 1079 144 1056 196 1056 c 2
 1232 1053 l 2
 1341 1053 1371 1014 1389 934 c 2
 1401 885 l 2
 1403 875 1404 867 1404 859 c 0
 1404 817 1376 796 1376 721 c 0
 1376 691 1380 654 1392 604 c 0xd8
334 294 m 0
 343 255 378 138 387 99 c 0
 390 86 392 74 392 63 c 0
 392 5 350 -27 267 -32 c 1
 248 -10 l 1
 256 2 261 16 261 33 c 0xb8
 261 42 260 52 257 63 c 0
 240 138 217 213 208 251 c 0
 200 285 196 317 196 346 c 0
 196 432 233 486 308 486 c 0
 321 486 333 483 344 478 c 1
 350 451 l 1
 333 438 325 406 325 368 c 0
 325 345 328 319 334 294 c 0
EndSplineSet
Validated: 1
LCarets2: 1 137 
MultipleSubs2: "Add hairspace before low marked Qof" he.wide hairspace
EndChar

StartChar: kaf.wide
Encoding: 209 64292 116
Width: 1488
GlyphClass: 2
Flags: W
HStem: 0 240<200 1205.04> 814 242<46.1328 1014.02>
VStem: 1236 92<197 554.295>
AnchorPoint: "A-69" 746.525 0 basechar 0
AnchorPoint: "A-68" 746.525 0 basechar 0
AnchorPoint: "A-67" 746.525 0 basechar 0
AnchorPoint: "A-66" 746.525 0 basechar 0
AnchorPoint: "A-65" 746.525 0 basechar 0
AnchorPoint: "A-64" 746.525 0 basechar 0
AnchorPoint: "A-63" 746.525 0 basechar 0
AnchorPoint: "A-62" 746.525 0 basechar 0
AnchorPoint: "A-61" 746.525 0 basechar 0
AnchorPoint: "A-59" 100.525 0 basechar 0
AnchorPoint: "A-55" 1273.53 0 basechar 0
AnchorPoint: "A-42" 746.525 0 basechar 0
AnchorPoint: "A-39" 780.525 0 basechar 0
AnchorPoint: "A-36" 780.525 0 basechar 0
AnchorPoint: "A-21" -264.975 0 basechar 0
AnchorPoint: "A-16" 746.525 0 basechar 0
AnchorPoint: "A-15" 746.525 0 basechar 0
AnchorPoint: "A-14" 746.525 0 basechar 0
AnchorPoint: "A-13" 746.525 0 basechar 0
AnchorPoint: "A-12" 746.525 0 basechar 0
AnchorPoint: "A-11" 746.525 0 basechar 0
AnchorPoint: "A-10" 746.525 0 basechar 0
AnchorPoint: "A-9" 746.525 0 basechar 0
AnchorPoint: "A-8" 746.525 0 basechar 0
AnchorPoint: "A-58" 780.525 0 basechar 0
AnchorPoint: "A-41" 959.025 0 basechar 0
AnchorPoint: "A-40" 746.525 0 basechar 0
AnchorPoint: "A-32" 780.525 0 basechar 0
AnchorPoint: "A-31" 780.525 0 basechar 0
AnchorPoint: "A-30" 610.525 0 basechar 0
AnchorPoint: "A-29" 610.525 0 basechar 0
AnchorPoint: "A-28" 512.775 0 basechar 0
AnchorPoint: "A-27" 950.525 0 basechar 0
AnchorPoint: "A-26" 1273.53 0 basechar 0
AnchorPoint: "A-25" 151.525 0 basechar 0
AnchorPoint: "A-24" 780.525 0 basechar 0
AnchorPoint: "A-23" 780.525 0 basechar 0
AnchorPoint: "A-20" 83.5254 0 basechar 0
AnchorPoint: "A-7" 746.525 0 basechar 0
AnchorPoint: "A-6" 746.525 0 basechar 0
AnchorPoint: "A-5" 746.525 0 basechar 0
AnchorPoint: "A-4" 746.525 0 basechar 0
AnchorPoint: "A-3" 763.525 0 basechar 0
AnchorPoint: "A-2" 780.525 0 basechar 0
AnchorPoint: "A-1" 780.525 0 basechar 0
AnchorPoint: "A-0" 780.525 0 basechar 0
LayerCount: 2
Fore
SplineSet
1219 503 m 1
 1217 511 l 0
 1172 708 1110 814 932 814 c 1
 157 814 l 1
 63 814 -1 878 -20 962 c 0
 -24 982 -27 1001 -27 1019 c 0
 -27 1058 -17 1094 3 1126 c 1
 29 1126 l 1
 51 1079 89 1056 145 1056 c 2
 851 1056 l 2
 1063 1056 1208 883 1288 537 c 0
 1316 415 1328 326 1328 258 c 0
 1328 136 1289 87 1239 54 c 0
 1184 18 1104 0 1000 0 c 2
 171 0 l 1
 200 240 l 1
 1058 240 l 1
 1179 240 1236 277 1236 382 c 0
 1236 415 1230 455 1219 503 c 1
EndSplineSet
Validated: 1
LCarets2: 1 121 
MultipleSubs2: "Add hairspace before low marked Qof" kaf.wide hairspace
EndChar

StartChar: lamed.wide
Encoding: 210 64293 117
Width: 1449
GlyphClass: 2
Flags: W
HStem: 814 242<35.4639 1128.4>
VStem: -203 217<1377.75 1489.45> -33 47<1087.05 1295.67> 948 144<-8.20377 160.391> 948 113<25.3757 258.918> 1181 84<468.031 687.96>
AnchorPoint: "A-69" 945.75 0 basechar 0
AnchorPoint: "A-68" 945.75 0 basechar 0
AnchorPoint: "A-67" 945.75 0 basechar 0
AnchorPoint: "A-66" 945.75 0 basechar 0
AnchorPoint: "A-65" 945.75 0 basechar 0
AnchorPoint: "A-64" 945.75 0 basechar 0
AnchorPoint: "A-63" 945.75 0 basechar 0
AnchorPoint: "A-62" 945.75 0 basechar 0
AnchorPoint: "A-61" 945.75 0 basechar 0
AnchorPoint: "A-59" 155.25 0 basechar 0
AnchorPoint: "A-55" 1302.75 0 basechar 0
AnchorPoint: "A-42" 1030.75 0 basechar 0
AnchorPoint: "A-39" 818.25 0 basechar 0
AnchorPoint: "A-36" 818.25 0 basechar 0
AnchorPoint: "A-21" -210.25 0 basechar 0
AnchorPoint: "A-16" 1030.75 0 basechar 0
AnchorPoint: "A-15" 1030.75 0 basechar 0
AnchorPoint: "A-14" 1030.75 0 basechar 0
AnchorPoint: "A-13" 903.25 0 basechar 0
AnchorPoint: "A-12" 903.25 0 basechar 0
AnchorPoint: "A-11" 903.25 0 basechar 0
AnchorPoint: "A-10" 1030.75 0 basechar 0
AnchorPoint: "A-9" 1030.75 0 basechar 0
AnchorPoint: "A-8" 1030.75 0 basechar 0
AnchorPoint: "A-58" 792.75 0 basechar 0
AnchorPoint: "A-41" 894.75 0 basechar 0
AnchorPoint: "A-40" 1030.75 0 basechar 0
AnchorPoint: "A-32" 877.75 0 basechar 0
AnchorPoint: "A-31" 818.25 0 basechar 0
AnchorPoint: "A-30" 376.25 0 basechar 0
AnchorPoint: "A-29" 350.75 0 basechar 0
AnchorPoint: "A-28" 312.5 0 basechar 0
AnchorPoint: "A-27" 988.25 0 basechar 0
AnchorPoint: "A-26" 1302.75 0 basechar 0
AnchorPoint: "A-25" -31.75 0 basechar 0
AnchorPoint: "A-24" 818.25 0 basechar 0
AnchorPoint: "A-23" 818.25 0 basechar 0
AnchorPoint: "A-20" -132.9 0 basechar 0
AnchorPoint: "A-7" 1030.75 0 basechar 0
AnchorPoint: "A-6" 1030.75 0 basechar 0
AnchorPoint: "A-5" 1030.75 0 basechar 0
AnchorPoint: "A-4" 1030.75 0 basechar 0
AnchorPoint: "A-3" 767.25 0 basechar 0
AnchorPoint: "A-2" 818.25 0 basechar 0
AnchorPoint: "A-1" 818.25 0 basechar 0
AnchorPoint: "A-0" 818.25 0 basechar 0
LayerCount: 2
Fore
SplineSet
13 1137 m 0xc4
 28 1069 72 1056 149 1056 c 2
 975 1056 l 2
 1037 1056 1088 1041 1129 1011 c 0
 1168 981 1201 908 1228 791 c 2
 1253 683 l 2
 1261 647 1265 615 1265 586 c 0
 1265 546 1257 513 1240 488 c 2
 1100 275 l 2
 1074 237 1061 198 1061 161 c 0xcc
 1061 148 1062 136 1065 124 c 0
 1072 95 1084 74 1089 52 c 0
 1091 42 1092 33 1092 25 c 0
 1092 -6 1075 -22 1039 -22 c 256
 994 -22 966 6 953 61 c 0
 949 76 948 92 948 108 c 0x94
 948 174 978 249 1039 330 c 2
 1150 481 l 2
 1171 510 1181 544 1181 585 c 0
 1181 604 1179 625 1174 647 c 2
 1160 707 l 2
 1137 807 1096 814 948 814 c 1
 160 814 l 1
 56 814 -12 882 -33 975 c 0
 -42 1014 -47 1056 -47 1102 c 0
 -47 1126 -45 1151 -43 1177 c 2
 -33 1262 l 2
 -32 1277 -32 1289 -33 1296 c 0xac
 -38 1315 -54 1331 -81 1343 c 2
 -143 1370 l 2
 -176 1384 -194 1404 -200 1429 c 0
 -202 1438 -203 1450 -203 1464 c 0
 -203 1498 -197 1544 -186 1568 c 1
 -161 1568 l 1
 -153 1547 -136 1532 -108 1522 c 2
 -67 1507 l 2
 -21 1490 6 1465 14 1430 c 0
 14 1429 14 1425 14 1419 c 0
 14 1393 13 1327 11 1266 c 2
 8 1215 l 2
 8 1180 9 1154 13 1137 c 0xc4
EndSplineSet
Validated: 1
LCarets2: 1 113 
MultipleSubs2: "Add hairspace before low marked Qof" lamed.wide hairspace
MultipleSubs2: "Add thispace after Lamed subtable" lamed.wide thinspace
EndChar

StartChar: finalmem.wide
Encoding: 211 64294 118
Width: 1616
GlyphClass: 2
Flags: W
HStem: 0 240<259 1390> 814 242<274 1196.34> 836 220<46.0703 218>
VStem: 92 95<371.031 706.625>
AnchorPoint: "A-69" 843.3 0 basechar 0
AnchorPoint: "A-68" 843.3 0 basechar 0
AnchorPoint: "A-67" 843.3 0 basechar 0
AnchorPoint: "A-66" 843.3 0 basechar 0
AnchorPoint: "A-65" 843.3 0 basechar 0
AnchorPoint: "A-64" 843.3 0 basechar 0
AnchorPoint: "A-63" 843.3 0 basechar 0
AnchorPoint: "A-62" 843.3 0 basechar 0
AnchorPoint: "A-61" 843.3 0 basechar 0
AnchorPoint: "A-59" 95.2998 0 basechar 0
AnchorPoint: "A-55" 1421.3 0 basechar 0
AnchorPoint: "A-42" 843.3 0 basechar 0
AnchorPoint: "A-39" 860.3 0 basechar 0
AnchorPoint: "A-36" 860.3 0 basechar 0
AnchorPoint: "A-21" -270.2 0 basechar 0
AnchorPoint: "A-16" 843.3 0 basechar 0
AnchorPoint: "A-15" 843.3 0 basechar 0
AnchorPoint: "A-14" 843.3 0 basechar 0
AnchorPoint: "A-13" 843.3 0 basechar 0
AnchorPoint: "A-12" 843.3 0 basechar 0
AnchorPoint: "A-11" 843.3 0 basechar 0
AnchorPoint: "A-10" 843.3 0 basechar 0
AnchorPoint: "A-9" 843.3 0 basechar 0
AnchorPoint: "A-8" 843.3 0 basechar 0
AnchorPoint: "A-58" 860.3 0 basechar 0
AnchorPoint: "A-41" 1064.3 0 basechar 0
AnchorPoint: "A-40" 843.3 0 basechar 0
AnchorPoint: "A-32" 860.3 0 basechar 0
AnchorPoint: "A-31" 860.3 0 basechar 0
AnchorPoint: "A-30" 605.3 0 basechar 0
AnchorPoint: "A-29" 605.3 0 basechar 0
AnchorPoint: "A-28" 507.55 0 basechar 0
AnchorPoint: "A-27" 1030.3 0 basechar 0
AnchorPoint: "A-26" 1421.3 0 basechar 0
AnchorPoint: "A-25" 129.3 0 basechar 0
AnchorPoint: "A-24" 860.3 0 basechar 0
AnchorPoint: "A-23" 860.3 0 basechar 0
AnchorPoint: "A-20" 61.2998 0 basechar 0
AnchorPoint: "A-7" 843.3 0 basechar 0
AnchorPoint: "A-6" 843.3 0 basechar 0
AnchorPoint: "A-5" 843.3 0 basechar 0
AnchorPoint: "A-4" 843.3 0 basechar 0
AnchorPoint: "A-3" 860.3 0 basechar 0
AnchorPoint: "A-2" 860.3 0 basechar 0
AnchorPoint: "A-1" 860.3 0 basechar 0
AnchorPoint: "A-0" 860.3 0 basechar 0
LayerCount: 2
Fore
SplineSet
222 0 m 1xd0
 98 539 l 2
 94 555 92 570 92 585 c 0
 92 621 103 656 124 688 c 2
 218 836 l 1
 154 836 l 2
 57 836 -1 879 -21 964 c 0
 -26 985 -28 1004 -28 1023 c 0
 -28 1061 -18 1096 3 1126 c 1
 29 1126 l 1
 51 1079 88 1056 140 1056 c 2xb0
 919 1056 l 2
 1072 1056 1177 1034 1233 989 c 0
 1289 944 1334 847 1369 698 c 2
 1530 0 l 1
 222 0 l 1xd0
274 814 m 1xd0
 204 658 l 2
 193 633 187 605 187 574 c 0
 187 552 190 528 196 503 c 2
 259 240 l 1
 1390 240 l 1
 1336 474 l 2
 1302 613 1267 708 1230 759 c 0
 1193 810 1119 814 1031 814 c 1
 274 814 l 1xd0
EndSplineSet
Validated: 1
LCarets2: 1 132 
MultipleSubs2: "Add hairspace before low marked Qof" finalmem.wide hairspace
EndChar

StartChar: resh.wide
Encoding: 212 64295 119
Width: 1484
GlyphClass: 2
Flags: W
HStem: 815 241<-12.6609 1090.21>
AnchorPoint: "A-69" 1269.35 0 basechar 0
AnchorPoint: "A-68" 1184.35 0 basechar 0
AnchorPoint: "A-67" 1099.35 0 basechar 0
AnchorPoint: "A-66" 1269.35 0 basechar 0
AnchorPoint: "A-65" 1184.35 0 basechar 0
AnchorPoint: "A-64" 1099.35 0 basechar 0
AnchorPoint: "A-63" 1269.35 0 basechar 0
AnchorPoint: "A-62" 1184.35 0 basechar 0
AnchorPoint: "A-61" 1099.35 0 basechar 0
AnchorPoint: "A-59" 147.35 0 basechar 0
AnchorPoint: "A-55" 1345.85 0 basechar 0
AnchorPoint: "A-42" 1192.85 0 basechar 0
AnchorPoint: "A-39" 801.85 0 basechar 0
AnchorPoint: "A-36" 801.85 0 basechar 0
AnchorPoint: "A-21" -218.15 0 basechar 0
AnchorPoint: "A-19" 1107.85 0 basechar 0
AnchorPoint: "A-18" 1184.35 0 basechar 0
AnchorPoint: "A-17" 1235.35 0 basechar 0
AnchorPoint: "A-16" 1107.85 0 basechar 0
AnchorPoint: "A-15" 1184.35 0 basechar 0
AnchorPoint: "A-14" 1235.35 0 basechar 0
AnchorPoint: "A-13" 980.35 0 basechar 0
AnchorPoint: "A-12" 1056.85 0 basechar 0
AnchorPoint: "A-11" 1107.85 0 basechar 0
AnchorPoint: "A-10" 1107.85 0 basechar 0
AnchorPoint: "A-9" 1184.35 0 basechar 0
AnchorPoint: "A-8" 1235.35 0 basechar 0
AnchorPoint: "A-58" 801.85 0 basechar 0
AnchorPoint: "A-41" 1065.35 0 basechar 0
AnchorPoint: "A-40" 1277.85 0 basechar 0
AnchorPoint: "A-32" 801.85 0 basechar 0
AnchorPoint: "A-31" 801.85 0 basechar 0
AnchorPoint: "A-30" 546.85 0 basechar 0
AnchorPoint: "A-29" 631.85 0 basechar 0
AnchorPoint: "A-28" 559.6 0 basechar 0
AnchorPoint: "A-27" 971.85 0 basechar 0
AnchorPoint: "A-26" 1345.85 0 basechar 0
AnchorPoint: "A-25" 147.35 0 basechar 0
AnchorPoint: "A-24" 801.85 0 basechar 0
AnchorPoint: "A-23" 801.85 0 basechar 0
AnchorPoint: "A-20" 70.8496 0 basechar 0
AnchorPoint: "A-7" 1158.85 0 basechar 0
AnchorPoint: "A-6" 1209.85 0 basechar 0
AnchorPoint: "A-5" 1328.85 0 basechar 0
AnchorPoint: "A-4" 1362.85 0 basechar 0
AnchorPoint: "A-3" 784.85 0 basechar 0
AnchorPoint: "A-2" 801.85 0 basechar 0
AnchorPoint: "A-1" 801.85 0 basechar 0
AnchorPoint: "A-0" 801.85 0 basechar 0
LayerCount: 2
Fore
SplineSet
1359 -19 m 1
 1337 -12 l 1
 1225 474 l 2
 1175 689 1150 744 1059 788 c 0
 1021 806 977 815 926 815 c 1
 99 815 l 1
 3 815 -59 878 -78 962 c 0
 -83 982 -85 1002 -85 1021 c 0
 -85 1059 -75 1094 -55 1126 c 1
 -29 1126 l 1
 -7 1079 31 1056 87 1056 c 2
 814 1056 l 2
 967 1056 1072 1034 1128 989 c 0
 1184 944 1229 847 1264 698 c 2
 1407 80 l 2
 1409 72 1410 65 1410 58 c 0
 1410 27 1393 1 1359 -19 c 1
EndSplineSet
Validated: 1
LCarets2: 1 118 
MultipleSubs2: "Add hairspace before low marked Qof" resh.wide hairspace
EndChar

StartChar: tav.wide
Encoding: 213 64296 120
Width: 1729
GlyphClass: 2
Flags: W
HStem: 0 240<205 321> 814 242<151.411 301.39 364 1332.65>
VStem: 245 79<412.499 770.25>
AnchorPoint: "A-69" 999.67 0 basechar 0
AnchorPoint: "A-68" 999.67 0 basechar 0
AnchorPoint: "A-67" 999.67 0 basechar 0
AnchorPoint: "A-66" 999.67 0 basechar 0
AnchorPoint: "A-65" 999.67 0 basechar 0
AnchorPoint: "A-64" 999.67 0 basechar 0
AnchorPoint: "A-63" 999.67 0 basechar 0
AnchorPoint: "A-62" 999.67 0 basechar 0
AnchorPoint: "A-61" 999.67 0 basechar 0
AnchorPoint: "A-59" 141.175 0 basechar 0
AnchorPoint: "A-55" 1594.67 0 basechar 0
AnchorPoint: "A-42" 999.67 0 basechar 0
AnchorPoint: "A-39" 991.175 0 basechar 0
AnchorPoint: "A-36" 991.175 0 basechar 0
AnchorPoint: "A-21" -203.075 0 basechar 0
AnchorPoint: "A-16" 999.67 0 basechar 0
AnchorPoint: "A-15" 999.67 0 basechar 0
AnchorPoint: "A-14" 999.67 0 basechar 0
AnchorPoint: "A-13" 999.67 0 basechar 0
AnchorPoint: "A-12" 999.67 0 basechar 0
AnchorPoint: "A-11" 999.67 0 basechar 0
AnchorPoint: "A-10" 999.67 0 basechar 0
AnchorPoint: "A-9" 999.67 0 basechar 0
AnchorPoint: "A-8" 999.67 0 basechar 0
AnchorPoint: "A-58" 991.175 0 basechar 0
AnchorPoint: "A-41" 1254.67 0 basechar 0
AnchorPoint: "A-40" 999.67 0 basechar 0
AnchorPoint: "A-32" 991.175 0 basechar 0
AnchorPoint: "A-31" 991.175 0 basechar 0
AnchorPoint: "A-30" 736.175 0 basechar 0
AnchorPoint: "A-29" 821.175 0 basechar 0
AnchorPoint: "A-28" 553.425 0 basechar 0
AnchorPoint: "A-27" 1161.17 0 basechar 0
AnchorPoint: "A-26" 1594.67 0 basechar 0
AnchorPoint: "A-25" 243.175 0 basechar 0
AnchorPoint: "A-24" 991.175 0 basechar 0
AnchorPoint: "A-23" 991.175 0 basechar 0
AnchorPoint: "A-20" 175.175 0 basechar 0
AnchorPoint: "A-7" 999.67 0 basechar 0
AnchorPoint: "A-6" 999.67 0 basechar 0
AnchorPoint: "A-5" 999.67 0 basechar 0
AnchorPoint: "A-4" 999.67 0 basechar 0
AnchorPoint: "A-3" 999.67 0 basechar 0
AnchorPoint: "A-2" 991.175 0 basechar 0
AnchorPoint: "A-1" 991.175 0 basechar 0
AnchorPoint: "A-0" 991.175 0 basechar 0
LayerCount: 2
Fore
SplineSet
1600 -16 m 1
 1577 -9 l 1
 1465 475 l 2
 1413 702 1394 727 1323 777 c 0
 1286 802 1236 814 1173 814 c 1
 364 814 l 1
 344 746 l 2
 330 698 324 652 324 611 c 0
 324 578 328 547 334 519 c 1
 335 514 336 507 338 500 c 0
 345 467 361 416 386 350 c 1
 436 233 466 157 473 125 c 0
 474 122 474 120 475 118 c 2
 496 0 l 1
 205 0 l 1
 203 240 l 1
 321 240 l 1
 274 400 l 2
 270 411 269 422 266 433 c 0
 252 492 245 546 245 596 c 0
 245 649 253 696 271 738 c 2
 302 814 l 1
 289 815 275 817 263 814 c 1
 161 814 104 878 85 962 c 0
 80 983 78 1002 78 1021 c 0
 78 1060 88 1095 109 1126 c 1
 136 1126 l 1
 158 1080 196 1056 252 1056 c 2
 1060 1057 l 2
 1214 1057 1318 1035 1373 991 c 0
 1429 946 1474 849 1509 699 c 2
 1645 108 l 2
 1648 95 1650 82 1650 70 c 0
 1650 32 1633 3 1600 -16 c 1
EndSplineSet
Validated: 1
LCarets2: 1 143 
MultipleSubs2: "Add hairspace before low marked Qof" tav.wide hairspace
EndChar

StartChar: hebrewplussign
Encoding: 214 64297 121
Width: 1063
GlyphClass: 2
Flags: W
HStem: 429 87<72 417 492 856>
LayerCount: 2
Fore
SplineSet
876 429 m 1
 72 429 l 1
 65 458 59 487 52 516 c 1
 417 516 l 1
 318 946 l 1
 343 946 369 946 393 946 c 1
 492 516 l 1
 856 516 l 1
 876 429 l 1
EndSplineSet
Validated: 1
EndChar

StartChar: aleflamed
Encoding: 247 64335 154
Width: 1038
GlyphClass: 3
Flags: W
HStem: 809 248<-76.8119 121.188>
VStem: -313 221<1379 1510.69> -156 54<1092.56 1340.31> 380 381<847 1057> 534 75<580 812.635> 715 46<744.841 773.812>
AnchorPoint: "A-63" 874 0 basechar 0
AnchorPoint: "A-62" 1034 0 basechar 0
AnchorPoint: "A-61" 1094 0 basechar 0
AnchorPoint: "A-20" 154 0 basechar 0
AnchorPoint: "A-7" 636 0 basechar 0
AnchorPoint: "A-6" 734 0 basechar 0
AnchorPoint: "A-5" 684 0 basechar 0
AnchorPoint: "A-4" 634 0 basechar 0
LayerCount: 2
Fore
SplineSet
546 1052 m 0x90
 688 1039 741 963 754 905 c 0
 758 886 761 867 761 847 c 0x90
 761 809 752 770 734 737 c 1
 715 737 l 1
 711 746 711 754 709 762 c 0
 708 766 707 770 706 774 c 0
 702 794 649 814 616 814 c 1
 612 700 l 2
 612 674 609 648 609 620 c 0
 609 601 610 582 615 561 c 0
 627 512 653 467 694 426 c 2
 805 316 l 2
 879 243 921 183 932 135 c 0
 936 120 937 105 937 90 c 0
 937 51 924 15 898 -16 c 1
 871 -16 l 1
 858 24 831 66 790 109 c 2
 256 670 l 1
 155 759 l 1
 122 792 85 809 43 809 c 2
 13 809 l 2
 -58 809 -118 885 -140 977 c 0
 -151 1025 -156 1072 -156 1119 c 0xac
 -156 1139 -155 1159 -153 1179 c 2
 -144 1264 l 2
 -142 1279 -143 1291 -145 1298 c 0
 -149 1317 -165 1333 -192 1345 c 2
 -254 1372 l 2
 -286 1386 -305 1406 -310 1431 c 0
 -312 1438 -313 1449 -313 1461 c 0
 -313 1502 -304 1564 -292 1590 c 1
 -267 1590 l 1
 -256 1568 -240 1553 -218 1545 c 2
 -173 1529 l 2
 -127 1512 -100 1487 -92 1452 c 0
 -92 1452 -92 1451 -92 1449 c 0xc0
 -92 1431 -97 1338 -100 1268 c 2
 -102 1217 l 2
 -102 1214 -102 1211 -102 1207 c 0
 -102 1185 -99 1163 -94 1139 c 0
 -81 1084 -55 1057 -15 1057 c 2
 33 1057 l 2
 64 1057 101 1034 146 989 c 2
 542 580 l 1
 539 606 534 636 534 671 c 0xa8
 534 712 540 761 562 821 c 1
 446 843 407 912 387 999 c 0
 382 1019 380 1039 380 1057 c 0
 380 1086 386 1113 397 1137 c 1
 424 1137 l 1
 441 1100 493 1057 546 1052 c 0x90
EndSplineSet
Validated: 1
LCarets2: 2 0 0 
MultipleSubs2: "Add thispace after Lamed subtable" aleflamed thinspace
Ligature2: "'rlig' Alef Lamed Ligature subtable" alef zerojoin lamed
EndChar

StartChar: hatafsegol_meteg
Encoding: 258 -1 164
Width: 0
GlyphClass: 4
Flags: W
HStem: -587 164<-52.2529 55.1163 412.332 520.116> -333 164<-228.876 -122.317 6.90985 113.876 354.317 460.876>
VStem: -248 145<-316.163 -186.269> -71 145<-570.919 -439.451> -12 145<-315.731 -185.081> 335 145<-315.731 -185.837> 394 145<-570.919 -439.314>
AnchorPoint: "A-48" 134.448 0 basemark 0
AnchorPoint: "A-47" 134.448 0 basemark 0
AnchorPoint: "A-46" 159.948 0 basemark 0
AnchorPoint: "A-45" -452.052 0 basemark 0
AnchorPoint: "A-44" -452.052 0 basemark 0
AnchorPoint: "A-43" -435.052 0 basemark 0
AnchorPoint: "A-7" 57.9482 0 mark 0
LayerCount: 2
Fore
SplineSet
345 -575 m 1xe0
 273 -575 l 1
 183 -185 l 1
 255 -185 l 1
 345 -575 l 1xe0
485 -587 m 256
 443 -587 407 -551 397 -505 c 256
 395 -496 394 -488 394 -480 c 0
 394 -445 415 -423 448 -423 c 256
 489 -423 525 -459 536 -505 c 256
 538 -513 539 -521 539 -528 c 0xe2
 539 -564 517 -587 485 -587 c 256
427 -333 m 256
 385 -333 349 -297 338 -251 c 256
 336 -242 335 -234 335 -227 c 0
 335 -192 356 -169 389 -169 c 256
 430 -169 466 -205 477 -251 c 256
 479 -260 480 -268 480 -275 c 0xe4
 480 -310 459 -333 427 -333 c 256
42 -169 m 256
 83 -169 119 -205 130 -251 c 256
 132 -260 133 -268 133 -275 c 0
 133 -310 112 -333 80 -333 c 256
 38 -333 2 -297 -9 -251 c 256
 -11 -243 -12 -235 -12 -228 c 0xe8
 -12 -192 10 -169 42 -169 c 256
-17 -423 m 256
 24 -423 60 -459 71 -505 c 256
 73 -513 74 -521 74 -528 c 0
 74 -564 52 -587 20 -587 c 256
 -22 -587 -58 -551 -68 -505 c 256
 -70 -496 -71 -488 -71 -481 c 0xf0
 -71 -445 -49 -423 -17 -423 c 256
-195 -169 m 256
 -153 -169 -117 -205 -106 -251 c 256
 -104 -260 -103 -268 -103 -275 c 0
 -103 -310 -124 -333 -157 -333 c 256
 -198 -333 -234 -297 -245 -251 c 256
 -247 -242 -248 -234 -248 -227 c 0
 -248 -192 -227 -169 -195 -169 c 256
EndSplineSet
Validated: 1
Ligature2: "'ccmp' Hataf CGJ Meteg substitutions subtable" hatafsegol zerojoin meteg
Ligature2: "'ccmp' Hataf CGJ Meteg substitutions subtable" hatafsegol .null meteg
Ligature2: "'ccmp' Hataf CGJ Meteg substitutions subtable" hatafsegol cgj meteg
LCarets2: 2 0 0 
MultipleSubs2: "Add hairspace after last low mark subtable" hatafsegol_meteg hairspace
MultipleSubs2: "Add thinspace before narrow letter subtable" hatafsegol_meteg thinspace
MultipleSubs2: "Add hairspace before low marked Qof" hatafsegol_meteg hairspace
EndChar

StartChar: hatafpatah_meteg
Encoding: 259 -1 165
Width: 0
GlyphClass: 4
Flags: W
HStem: -587 164<378.747 487.09> -333 164<319.91 428.09> -286 94<-199 78>
VStem: 301 146<-315.731 -186.269> 360 146<-570.919 -440.269>
AnchorPoint: "A-48" 100.096 0 basemark 0
AnchorPoint: "A-47" 100.096 0 basemark 0
AnchorPoint: "A-46" 125.596 0 basemark 0
AnchorPoint: "A-45" -435.404 0 basemark 0
AnchorPoint: "A-44" -435.404 0 basemark 0
AnchorPoint: "A-43" -435.404 0 basemark 0
AnchorPoint: "A-7" 57.5957 0 mark 0
LayerCount: 2
Fore
SplineSet
100 -286 m 1xa0
 -199 -286 l 1
 -221 -192 l 1
 78 -192 l 1
 100 -286 l 1xa0
311 -575 m 1
 239 -575 l 1
 149 -185 l 1
 221 -185 l 1
 311 -575 l 1
452 -587 m 256
 410 -587 373 -551 363 -505 c 256
 361 -496 360 -488 360 -481 c 0
 360 -445 382 -423 414 -423 c 256
 456 -423 492 -459 503 -505 c 256
 505 -513 506 -521 506 -528 c 0x88
 506 -564 484 -587 452 -587 c 256
393 -333 m 256xd0
 351 -333 315 -297 304 -251 c 256
 302 -243 301 -235 301 -228 c 0
 301 -192 323 -169 355 -169 c 256
 397 -169 433 -205 444 -251 c 256
 446 -259 447 -267 447 -274 c 0
 447 -310 425 -333 393 -333 c 256xd0
EndSplineSet
Validated: 1
Ligature2: "'ccmp' Hataf CGJ Meteg substitutions subtable" hatafpatah zerojoin meteg
Ligature2: "'ccmp' Hataf CGJ Meteg substitutions subtable" hatafpatah .null meteg
Ligature2: "'ccmp' Hataf CGJ Meteg substitutions subtable" hatafpatah cgj meteg
LCarets2: 2 1 0 
MultipleSubs2: "Add hairspace after last low mark subtable" hatafpatah_meteg hairspace
MultipleSubs2: "Add thinspace before narrow letter subtable" hatafpatah_meteg thinspace
MultipleSubs2: "Add hairspace before low marked Qof" hatafpatah_meteg hairspace
EndChar

StartChar: hatafqamats_meteg
Encoding: 260 -1 166
Width: 0
GlyphClass: 4
Flags: W
HStem: -587 164<379.91 486.876> -333 164<320.91 428.557> -284 94<-200 -63.8077 -31 74>
VStem: -72 138<-562.094 -472.96> -57 34<-373.105 -284.616> 302 145<-315.731 -185.081> 361 145<-569.731 -439.081>
AnchorPoint: "A-48" 101.137 0 basemark 0
AnchorPoint: "A-47" 101.137 0 basemark 0
AnchorPoint: "A-46" 126.637 0 basemark 0
AnchorPoint: "A-45" -434.363 0 basemark 0
AnchorPoint: "A-44" -434.363 0 basemark 0
AnchorPoint: "A-43" -434.363 0 basemark 0
AnchorPoint: "A-7" 58.6367 0 mark 0
LayerCount: 2
Fore
SplineSet
-72 -284 m 1xb0
 -200 -284 l 1
 -222 -190 l 1
 74 -190 l 1
 96 -284 l 1
 -31 -284 l 1
 -23 -318 l 1
 -23 -319 -23 -320 -23 -321 c 0xa8
 -15 -353 -4 -382 10 -406 c 9
 66 -496 l 17
 62 -526 55 -555 36 -581 c 1
 22 -584 8 -584 -6 -580 c 1
 -37 -558 -56 -528 -72 -496 c 9xb0
 -57 -406 l 17
 -56 -403 -57 -398 -57 -393 c 0xa8
 -57 -370 -63 -332 -65 -322 c 0
 -66 -320 -66 -319 -66 -319 c 9
 -66 -319 -69 -297 -72 -284 c 1xb0
311 -576 m 1
 239 -576 l 1
 149 -186 l 1
 221 -186 l 1
 311 -576 l 1
453 -587 m 256
 411 -587 375 -551 364 -505 c 256
 362 -497 361 -489 361 -482 c 0
 361 -446 383 -423 415 -423 c 256
 456 -423 492 -459 503 -505 c 256
 505 -514 506 -522 506 -529 c 0x82
 506 -564 485 -587 453 -587 c 256
394 -333 m 256xc4
 352 -333 316 -297 305 -251 c 256
 303 -243 302 -235 302 -228 c 0
 302 -192 324 -169 356 -169 c 256
 397 -169 434 -205 444 -251 c 256
 446 -260 447 -268 447 -276 c 0
 447 -311 426 -333 394 -333 c 256xc4
EndSplineSet
Validated: 1
Ligature2: "'ccmp' Hataf CGJ Meteg substitutions subtable" hatafqamats zerojoin meteg
Ligature2: "'ccmp' Hataf CGJ Meteg substitutions subtable" hatafqamats .null meteg
Ligature2: "'ccmp' Hataf CGJ Meteg substitutions subtable" hatafqamats cgj meteg
LCarets2: 2 0 0 
MultipleSubs2: "Add hairspace after last low mark subtable" hatafqamats_meteg hairspace
MultipleSubs2: "Add thinspace before narrow letter subtable" hatafqamats_meteg thinspace
MultipleSubs2: "Add hairspace before low marked Qof" hatafqamats_meteg hairspace
EndChar

StartChar: exclam
Encoding: 2 33 167
Width: 494
Flags: W
HStem: 382 819<-33 154>
VStem: -125 262<927.328 1123.66>
LayerCount: 2
Fore
SplineSet
182 444 m 1
 182 442 182 441 182 439 c 0
 182 408 163 382 154 382 c 0
 146 382 103 422 97 444 c 1
 -85 935 l 1
 -105 995 -125 1059 -125 1109 c 0
 -125 1163 -103 1201 -33 1201 c 0
 112 1201 129 1030 137 937 c 1
 182 444 l 1
93 164 m 1
 152 285 l 2
 160 299 167 305 176 305 c 0
 183 305 192 299 205 285 c 2
 320 164 l 2
 336 146 344 133 333 109 c 2
 274 -12 l 2
 267 -27 261 -34 254 -34 c 0
 247 -34 236 -27 221 -12 c 2
 106 109 l 1
 89 132 88 145 93 164 c 1
EndSplineSet
Validated: 1
EndChar

StartChar: quotedbl
Encoding: 3 34 168
Width: 730
Flags: W
HStem: 631 570
VStem: -136 228<1065.02 1183.24> -62 46<645 689> 187 228<888.637 1169.1> 260 46<631 676>
LayerCount: 2
Fore
SplineSet
303 1188 m 0x90
 382 1188 406 1147 412 1120 c 0
 414 1113 415 1108 415 1099 c 0x90
 415 1090 414 1076 411 1051 c 1
 306 631 l 1
 260 631 l 1x88
 250 676 l 2
 224 787 208 858 187 1051 c 1
 186 1057 187 1066 187 1077 c 0
 187 1119 204 1188 303 1188 c 0x90
-19 1201 m 0
 62 1201 84 1160 90 1133 c 0
 91 1127 92 1119 92 1110 c 0xc0
 92 1089 89 1065 89 1065 c 1
 -16 645 l 1
 -62 645 l 1xa0
 -72 689 l 2
 -98 800 -112 872 -133 1065 c 1
 -135 1072 -136 1082 -136 1093 c 0xc0
 -136 1137 -116 1201 -19 1201 c 0
EndSplineSet
Validated: 1
EndChar

StartChar: numbersign
Encoding: 4 35 169
Width: 1003
Flags: W
HStem: 0 21G<301.785 430 634.731 763> 372 113<37 179 333 512 665 807> 710 113<-54 90 243 423 576 716>
LayerCount: 2
Fore
SplineSet
210 372 m 1
 37 372 l 1
 -9 485 l 1
 179 485 l 1
 120 710 l 1
 -54 710 l 1
 -100 823 l 1
 90 823 l 1
 0 1171 l 1
 123 1171 l 1
 213 823 l 1
 423 823 l 1
 333 1171 l 1
 456 1171 l 1
 546 823 l 1
 716 823 l 1
 762 710 l 1
 576 710 l 1
 635 485 l 1
 807 485 l 1
 853 372 l 1
 665 372 l 1
 763 0 l 1
 640 0 l 1
 542 372 l 1
 333 372 l 1
 430 0 l 1
 307 0 l 1
 210 372 l 1
243 710 m 1
 302 485 l 1
 512 485 l 1
 453 710 l 1
 243 710 l 1
EndSplineSet
Validated: 1
EndChar

StartChar: dollar
Encoding: 5 36 170
Width: 948
Flags: W
HStem: -19 92<236.67 398 526 617.545> 819 369<248 514> 1094 92<62.25 141>
VStem: -111 132<842.175 1053.74> 671 131<124.477 365.588>
LayerCount: 2
Fore
SplineSet
-101 865 m 0xb8
 -108 894 -111 921 -111 945 c 0
 -111 1086 -9 1163 141 1186 c 1xb8
 99 1367 l 1
 206 1367 l 1
 248 1188 l 1
 339 1188 418 1154 482 1106 c 1
 547 1062 587 1005 602 939 c 0
 606 923 608 909 608 896 c 0
 608 844 576 819 514 819 c 0xd8
 439 819 390 869 377 925 c 0
 375 934 374 943 374 950 c 0
 374 1003 422 1009 422 1030 c 0
 422 1031 422 1032 422 1033 c 0
 416 1057 371 1082 269 1094 c 1
 360 701 l 1
 388 695 l 1
 700 609 764 459 790 345 c 0
 798 309 802 276 802 246 c 0
 802 59 655 -19 526 -19 c 1
 573 -222 l 1
 466 -222 l 1
 419 -19 l 1
 283 -19 63 62 19 253 c 0
 16 266 14 281 14 296 c 0
 14 347 37 399 118 399 c 0
 188 399 237 347 249 294 c 0
 252 283 253 272 253 263 c 0
 253 198 195 182 195 162 c 0
 195 161 195 161 195 160 c 0
 205 119 316 73 398 73 c 1
 295 519 l 1
 130 564 -53 657 -101 865 c 0xb8
162 1094 m 1
 84 1094 21 1028 21 949 c 0
 21 872 81 784 246 734 c 1
 162 1094 l 1
505 75 m 1
 607 88 671 139 671 230 c 0
 671 247 669 265 664 285 c 0
 626 449 436 485 408 492 c 1
 505 75 l 1
EndSplineSet
Validated: 1
EndChar

StartChar: percent
Encoding: 6 37 171
Width: 1447
Flags: W
HStem: 0 21G<317 434.867> 26 92<923.36 1109.24> 548 90<98.4953 279.902> 591 93<991.132 1143.77> 1009 82<429.398 656.782> 1212 20G<722.5 851>
VStem: -106 176<672.453 969.626> 365 82<741.832 1021.21> 721 176<154.31 446.56> 1196 79<225.98 529.163>
LayerCount: 2
Fore
SplineSet
-98 759 m 0xefc0
 -103 782 -106 807 -106 834 c 0
 -106 998 -3 1208 195 1208 c 0
 259 1208 316 1181 370 1128 c 1
 419 1103 463 1091 502 1091 c 0
 617 1091 698 1138 747 1232 c 1
 851 1232 l 1
 428 0 l 1
 317 0 l 1
 678 1058 l 1
 628 1026 576 1009 516 1009 c 0
 487 1009 459 1014 428 1022 c 1
 434 1007 436 997 437 993 c 0
 443 965 447 934 447 903 c 0
 447 739 358 548 168 548 c 0
 43 548 -69 632 -98 759 c 0xefc0
182 638 m 0
 285 638 365 765 365 904 c 0
 365 954 355 1005 332 1053 c 1
 290 1067 254 1087 223 1116 c 1
 160 1090 150 1072 115 973 c 0
 95 913 70 841 70 776 c 0
 70 760 72 745 75 730 c 0
 87 679 130 638 182 638 c 0
731 232 m 0
 724 261 721 292 721 323 c 0
 721 501 832 684 1020 684 c 0xdfc0
 1139 684 1238 601 1266 481 c 0
 1272 457 1275 428 1275 396 c 0
 1275 242 1205 26 1001 26 c 0
 870 26 759 113 731 232 c 0
1186 466 m 0
 1171 531 1116 591 1062 591 c 0
 1018 591 981 553 953 478 c 0
 915 382 897 306 897 250 c 0
 897 234 898 220 901 207 c 0
 914 152 963 118 1009 118 c 0
 1111 118 1196 239 1196 383 c 0
 1196 410 1193 438 1186 466 c 0
EndSplineSet
Validated: 1
EndChar

StartChar: ampersand
Encoding: 7 38 172
Width: 1390
Flags: W
HStem: -26 116<388.501 649.991> -19 135<937.524 1151.37> 616 73<662 824.4 1011.9 1126> 1184 74<252.81 426.953>
VStem: 4 163<317.24 545.985> 80 150<921.002 1166.74> 510 136<842.278 1106.87> 1182 79<147.482 277.298>
LayerCount: 2
Fore
SplineSet
1069 116 m 0x77
 1157 116 1182 202 1182 283 c 0
 1182 285 1182 286 1182 288 c 1
 1259 278 l 1
 1260 263 1261 249 1261 235 c 0
 1261 79 1180 -19 1028 -19 c 0x77
 931 -19 856 15 760 96 c 1
 675 15 574 -26 460 -26 c 0
 199 -26 49 165 12 323 c 0
 7 347 4 371 4 394 c 0xbb
 4 516 79 624 220 701 c 1
 150 802 106 887 90 956 c 0
 83 985 80 1013 80 1039 c 0
 80 1172 166 1258 319 1258 c 0
 527 1258 646 1110 646 968 c 0
 646 901 620 836 564 788 c 0
 534 763 485 734 418 701 c 1
 562 517 684 375 791 278 c 1
 836 348 858 414 858 476 c 0
 858 497 856 517 851 536 c 0
 839 589 781 616 679 616 c 2
 662 616 l 1
 645 689 l 1
 1126 689 l 1
 1143 616 l 1
 1124 616 l 2
 985 616 980 536 932 384 c 1
 915 333 890 278 857 220 c 1
 938 150 1009 116 1069 116 c 0x77
331 1184 m 0
 267 1184 230 1138 230 1069 c 0
 230 1053 232 1034 237 1015 c 0
 250 956 293 874 366 773 c 1
 382 783 510 825 510 964 c 0
 510 982 508 1002 503 1024 c 0
 481 1118 412 1184 331 1184 c 0
693 154 m 1
 520 312 433 410 269 631 c 1
 216 596 167 551 167 470 c 0
 167 453 169 435 174 415 c 0
 215 237 388 90 535 90 c 0xbb
 585 90 636 111 693 154 c 1
EndSplineSet
Validated: 1
EndChar

StartChar: quotesingle
Encoding: 8 39 173
Width: 382
Flags: W
HStem: 645 556<-62 -16>
VStem: -136 228<1065.02 1183.24> -62 46<645 689>
LayerCount: 2
Fore
SplineSet
-19 1201 m 0xc0
 62 1201 84 1160 90 1133 c 0
 91 1127 92 1119 92 1110 c 0xc0
 92 1089 89 1065 89 1065 c 1
 -16 645 l 1
 -62 645 l 1xa0
 -72 689 l 2
 -98 800 -112 872 -133 1065 c 1
 -135 1072 -136 1082 -136 1093 c 0
 -136 1137 -116 1201 -19 1201 c 0xc0
EndSplineSet
Validated: 1
EndChar

StartChar: parenleft
Encoding: 9 40 174
Width: 593
Flags: W
HStem: 1238 20G<146.5 198>
VStem: -85 185<515.929 973.791>
LayerCount: 2
Fore
SplineSet
143 519 m 0
 217 200 325 2 537 -152 c 1
 524 -210 l 1
 409 -148 315 -80 238 -5 c 1
 49 186 -85 459 -85 724 c 0
 -85 848 -56 970 12 1080 c 0
 49 1140 107 1201 186 1258 c 1
 228 1188 l 1
 140 1093 100 981 100 834 c 0
 100 744 115 640 143 519 c 0
EndSplineSet
Validated: 1
EndChar

StartChar: parenright
Encoding: 10 41 175
Width: 593
Flags: W
HStem: 1238 20G<-175.385 42.5>
VStem: 253 183<73.7581 527.687>
LayerCount: 2
Fore
SplineSet
-172 1258 m 1
 257 1032 375 679 411 524 c 0
 428 452 436 383 436 318 c 0
 436 89 336 -90 166 -210 c 1
 126 -147 l 1
 213 -50 253 61 253 209 c 0
 253 299 238 403 210 524 c 0
 136 845 27 1039 -183 1193 c 1
 -172 1258 l 1
EndSplineSet
Validated: 1
EndChar

StartChar: asterisk
Encoding: 11 42 176
Width: 882
Flags: W
HStem: 661 154<-51.2821 89.1873 476.803 594.196> 964 149<-127.886 -7.46196 397.773 537.342>
VStem: 91 145<1201.28 1258.12> 236 149<510.302 647.712>
LayerCount: 2
Fore
SplineSet
239 568 m 0
 236 579 236 587 236 595 c 0
 236 624 248 642 248 687 c 0
 248 709 245 737 236 777 c 2
 222 838 l 1
 176 807 l 1
 140 785 l 1
 131 778 123 768 112 758 c 1
 91 709 l 2
 72 666 42 661 27 661 c 0
 -31 661 -55 704 -60 726 c 0
 -62 734 -63 742 -63 749 c 0
 -63 806 -1 815 48 815 c 0
 74 815 96 826 138 853 c 1
 183 884 l 1
 124 915 l 1
 59 947 57 948 29 952 c 1
 11 959 -13 964 -39 964 c 0
 -93 964 -136 1003 -145 1043 c 0
 -146 1049 -147 1055 -147 1060 c 0
 -147 1102 -106 1113 -90 1113 c 0
 -35 1113 -4 1056 53 1015 c 1
 104 973 85 994 139 964 c 2
 200 932 l 1
 170 1062 l 2
 165 1084 100 1163 91 1201 c 0
 90 1207 91 1212 91 1217 c 0
 91 1252 119 1273 148 1273 c 1
 214 1263 233 1214 236 1198 c 0
 238 1191 236 1183 236 1175 c 0
 236 1145 227 1112 227 1076 c 0
 227 1065 228 1053 231 1041 c 1
 231 1033 234 1015 239 992 c 2
 253 930 l 1
 299 964 l 2
 312 974 346 984 370 1024 c 1
 399 1062 410 1113 455 1113 c 0
 463 1113 533 1106 547 1046 c 0
 548 1040 549 1034 549 1029 c 0
 549 985 507 964 477 964 c 0
 462 964 401 956 390 945 c 1
 380 942 379 944 337 915 c 2
 291 884 l 1
 351 853 l 2
 359 849 414 824 421 823 c 1
 440 815 462 809 477 809 c 1
 496 804 601 807 619 727 c 0
 621 720 621 714 621 708 c 0
 621 664 578 655 564 655 c 0
 502 655 467 731 384 782 c 1
 373 787 373 787 335 807 c 2
 276 838 l 1
 290 777 l 2
 292 765 293 756 295 748 c 0
 313 671 373 610 383 568 c 0
 384 563 385 558 385 553 c 0
 385 519 356 495 328 495 c 0
 300 495 251 516 239 568 c 0
EndSplineSet
Validated: 1
EndChar

StartChar: plus
Encoding: 12 43 177
Width: 1034
Flags: W
HStem: 0 21G<444.385 585> 364 136<3 334 501 832>
LayerCount: 2
Fore
SplineSet
334 500 m 1
 250 862 l 1
 386 862 l 1
 470 500 l 1
 832 500 l 1
 863 364 l 1
 501 364 l 1
 585 0 l 1
 449 0 l 1
 365 364 l 1
 3 364 l 1
 -28 500 l 1
 334 500 l 1
EndSplineSet
Validated: 1
EndChar

StartChar: comma
Encoding: 13 44 178
Width: 496
Flags: W
HStem: -208 508
VStem: 114 264
LayerCount: 2
Fore
SplineSet
249 -208 m 0
 238 -208 221 -212 214 -181 c 0
 213 -176 211 -171 212 -166 c 2
 217 -7 l 1
 217 -7 213 31 192 48 c 1
 127 109 l 2
 108 125 101 144 114 164 c 1
 182 280 l 2
 191 294 201 300 209 300 c 0
 218 300 227 294 242 280 c 2
 365 164 l 1
 379 153 385 124 378 109 c 1
 273 -191 l 1
 266 -201 260 -208 249 -208 c 0
EndSplineSet
Validated: 1
EndChar

StartChar: hyphen
Encoding: 14 45 179
Width: 665
Flags: W
HStem: 422 186<-47.895 458.281>
VStem: -54 512<422 608>
LayerCount: 2
Fore
SplineSet
462 573 m 1
 458 447 l 1
 463 424 451 422 432 422 c 2
 -17 422 l 2
 -35 422 -60 425 -54 456 c 1
 -47 582 l 1
 -48 602 -43 608 -22 608 c 2
 428 608 l 2
 450 608 468 604 462 573 c 1
EndSplineSet
Validated: 1
EndChar

StartChar: period
Encoding: 15 46 180
Width: 494
Flags: W
HStem: -29 329<226.125 266.984>
VStem: 114 264
LayerCount: 2
Fore
SplineSet
114 164 m 1
 182 280 l 2
 191 294 201 300 209 300 c 0
 218 300 227 294 242 280 c 2
 365 164 l 1
 385 143 389 133 378 109 c 1
 309 -7 l 2
 300 -22 294 -29 285 -29 c 0
 277 -29 264 -22 249 -7 c 2
 127 109 l 2
 108 125 101 144 114 164 c 1
EndSplineSet
Validated: 1
EndChar

StartChar: slash
Encoding: 16 47 181
Width: 500
Flags: W
HStem: 1238 20G<123.52 251>
VStem: -33 284
LayerCount: 2
Fore
SplineSet
126 1258 m 1
 251 1258 l 1
 91 -24 l 1
 -33 -24 l 1
 126 1258 l 1
EndSplineSet
Validated: 1
EndChar

StartChar: zero
Encoding: 17 48 182
Width: 972
Flags: W
HStem: -26 91<363.442 550.707> 1111 90<146.661 330.917>
VStem: -94 196<618.684 1025.85> 597 201<158.393 551.571>
LayerCount: 2
Fore
SplineSet
-68 584 m 0
 -86 660 -94 732 -94 799 c 0
 -94 1038 18 1201 220 1201 c 0
 556 1201 798 730 798 372 c 0
 798 152 707 -26 489 -26 c 0
 239 -26 12 237 -68 584 c 0
471 65 m 0
 530 65 563 110 590 174 c 1
 595 201 597 230 597 260 c 0
 597 349 578 445 559 527 c 2
 533 641 l 2
 507 753 469 911 392 1009 c 1
 336 1077 283 1111 229 1111 c 0
 168 1111 126 1061 107 980 c 1
 103 964 102 944 102 920 c 0
 102 850 117 750 147 618 c 0
 206 365 245 247 307 167 c 1
 363 99 417 65 471 65 c 0
EndSplineSet
Validated: 1
EndChar

StartChar: one
Encoding: 18 49 183
Width: 972
Flags: W
HStem: 0 89<183 385.977 623.728 837> 993 82<-40 158.323> 1181 20G<261.5 385>
LayerCount: 2
Fore
SplineSet
-59 1075 m 1
 77 1075 239 1126 284 1201 c 1
 372 1201 l 1
 398 1089 408 993 426 915 c 2
 598 170 l 2
 605 137 610 122 623 113 c 1
 638 97 687 89 769 89 c 2
 837 89 l 1
 858 0 l 1
 183 0 l 1
 162 89 l 1
 247 89 l 2
 355 89 386 95 386 134 c 0
 386 143 384 155 381 169 c 2
 215 886 l 2
 204 935 192 966 179 976 c 1
 166 988 135 993 85 993 c 2
 -40 993 l 1
 -59 1075 l 1
EndSplineSet
Validated: 1
EndChar

StartChar: two
Encoding: 19 50 184
Width: 972
Flags: W
HStem: 0 195<269 718.714> 700 218<10.2503 139.649> 1109 92<56.8139 333.453>
VStem: -112 120<918.002 1058.37> 461 232<628.167 963.777> 722 84<306.765 369>
LayerCount: 2
Fore
SplineSet
206 1201 m 0
 464 1201 639 1062 683 869 c 0
 690 839 693 812 693 785 c 0
 693 644 598 541 453 404 c 0
 391 345 331 275 269 195 c 1
 604 195 l 2
 708 195 722 210 722 278 c 0
 722 284 722 290 722 297 c 2
 722 369 l 1
 806 369 l 1
 891 0 l 1
 72 0 l 1
 61 48 l 1
 179 258 l 1
 356 507 l 1
 427 604 461 712 461 809 c 0
 461 974 361 1109 174 1109 c 0
 85 1109 8 1044 8 973 c 0
 8 966 8 959 10 952 c 0
 15 933 42 923 51 918 c 1
 139 898 185 835 185 782 c 0
 185 738 153 700 85 700 c 0
 -14 700 -80 775 -104 881 c 0
 -109 903 -112 925 -112 946 c 0
 -112 1091 9 1201 206 1201 c 0
EndSplineSet
Validated: 1
EndChar

StartChar: three
Encoding: 20 51 185
Width: 972
Flags: W
HStem: -26 91<238.873 553.521> 575 97<160.982 416.733> 809 21G<6 93> 1111 90<66.6386 343.441>
VStem: -102 148<988.388 1083.55> 8 257<200.958 368.097> 449 206<716.462 993.327> 604 223<117.47 411.868>
LayerCount: 2
Fore
SplineSet
647 908 m 0xfa
 652 885 655 864 655 844 c 0xfa
 655 708 540 649 473 628 c 1
 638 601 776 496 817 321 c 0
 824 292 827 265 827 240 c 0
 827 69 683 -26 467 -26 c 0
 236 -26 52 86 13 254 c 0
 10 268 8 282 8 294 c 0
 8 360 49 404 112 404 c 0
 185 404 246 368 262 297 c 0
 264 289 265 281 265 274 c 0
 265 214 203 189 191 177 c 1
 189 172 188 167 190 159 c 0
 203 102 343 65 418 65 c 0
 539 65 604 131 604 242 c 0xf5
 604 267 601 295 594 324 c 0
 568 439 498 575 345 575 c 2
 224 575 l 2
 188 575 168 589 160 623 c 0
 159 630 158 636 158 641 c 0
 158 665 172 678 201 678 c 0
 217 678 231 676 240 676 c 0
 274 676 297 672 309 672 c 0
 416 672 449 739 449 818 c 0
 449 846 445 877 438 906 c 0
 417 996 354 1111 208 1111 c 0
 120 1111 46 1072 46 1035 c 0
 46 1033 47 1031 47 1029 c 0
 55 997 133 984 150 911 c 0
 152 903 153 894 153 886 c 0
 153 848 131 809 55 809 c 0
 -43 809 -102 888 -102 974 c 0
 -102 1081 -11 1201 213 1201 c 0
 440 1201 607 1084 647 908 c 0xfa
EndSplineSet
Validated: 1
EndChar

StartChar: four
Encoding: 21 52 186
Width: 972
Flags: W
HStem: 0 89<367 480.981 702.254 844> 299 95<92 423 661 820> 1181 20G<353.235 471.5>
LayerCount: 2
Fore
SplineSet
365 89 m 2
 455 89 481 98 481 132 c 0
 481 142 478 154 475 169 c 2
 445 299 l 1
 -9 299 l 1
 -31 394 l 1
 363 1201 l 1
 462 1201 l 1
 481 1116 499 1002 531 860 c 2
 639 394 l 1
 820 394 l 1
 842 299 l 1
 661 299 l 1
 691 169 l 2
 708 96 726 89 837 89 c 2
 844 89 l 1
 865 0 l 1
 367 0 l 1
 346 89 l 1
 365 89 l 2
423 394 m 1
 318 847 l 1
 92 394 l 1
 423 394 l 1
EndSplineSet
Validated: 1
EndChar

StartChar: five
Encoding: 22 53 187
Width: 972
Flags: W
HStem: -26 91<239.652 542.951> 667 103<136.51 424.691> 945 205<65.4145 449.406> 1181 20G<-60.5 -1.5>
VStem: 596 215<114.369 458.86>
LayerCount: 2
Fore
SplineSet
557 1186 m 0
 559 1178 560 1169 560 1160 c 0
 560 1074 473 945 280 945 c 0
 221 945 148 956 63 975 c 1
 122 719 l 1
 175 742 190 770 305 770 c 0
 550 770 745 612 798 382 c 0
 807 344 811 308 811 275 c 0
 811 84 671 -26 436 -26 c 0
 165 -26 39 145 13 254 c 0
 10 268 8 280 8 293 c 0
 8 356 49 398 120 398 c 0
 196 398 254 356 269 292 c 0
 271 282 272 274 272 266 c 0
 272 199 200 194 200 160 c 0
 200 158 201 156 201 154 c 0
 215 96 340 65 413 65 c 0
 526 65 596 120 596 250 c 0
 596 285 591 325 580 372 c 0
 524 613 376 667 285 667 c 0
 283 667 281 667 279 667 c 0
 252 667 200 665 130 618 c 1
 105 604 109 541 75 541 c 0
 52 541 15 543 3 594 c 0
 0 606 0 667 0 667 c 1
 -26 881 -44 1056 -77 1201 c 1
 74 1167 201 1150 303 1150 c 0
 453 1150 519 1201 540 1201 c 0
 549 1201 555 1196 557 1186 c 0
EndSplineSet
Validated: 1
EndChar

